<?xml version="1.0" encoding="utf-8"?>
<!-- Generator: Adobe Illustrator 23.0.1, SVG Export Plug-In . SVG Version: 6.00 Build 0)  -->
<svg version="1.1" id="Capa_1" xmlns="http://www.w3.org/2000/svg" xmlns:xlink="http://www.w3.org/1999/xlink" x="0px" y="0px"
	 viewBox="0 0 60 24" style="enable-background:new 0 0 60 24;" xml:space="preserve">
<style type="text/css">
	.st0{fill:#00913E;}
</style>
<g>
	<g>
		<path class="st0" d="M8.36121,7.78451c0-0.34501,0.10771-0.66461,0.28969-0.92763l1.58774-2.30894
			c0,0,0.02058-0.03086,0.02829-0.03987c0.00643-0.00836,0.01544-0.01833,0.03698-0.01833c0.02186,0,0.03151,0.00997,0.0389,0.01672
			c0.00676,0.01062,0.02894,0.04148,0.02894,0.04148l0.32829,0.47297c0.05016,0.07138,0.12893,0.11029,0.20963,0.11029
			c0.05146,0,0.10289-0.01479,0.14791-0.04662c0.11543-0.07975,0.14501-0.24083,0.06463-0.35627l-0.6016-0.86396
			c-0.08038-0.1164-0.2405-0.14405-0.35786-0.06398c-0.02508,0.01703-0.06078,0.06141-0.06078,0.06141l-5.46543,7.92613
			c-0.05916,0.08521-0.06687,0.19517-0.01768,0.2881c0.04952,0.09293,0.14468,0.15144,0.24887,0.15144l1.84689-0.00193
			l2.20604-3.20858C8.57793,8.71632,8.36121,8.27678,8.36121,7.78451 M10.19878,9.31694c0-0.3495,0.10899-0.67168,0.29517-0.93695
			l1.45493-2.11537c0.03345-0.04502,0.05595-0.09871,0.05595-0.15981c0-0.14791-0.11929-0.26495-0.26688-0.26495
			c-0.09453,0-0.1778,0.05081-0.22379,0.12541l-4.30566,6.26219h2.37935l1.16041-1.68708
			C10.41067,10.24005,10.19878,9.8047,10.19878,9.31694 M16.02466,11.78792l-1.40383-2.0398
			c-0.04534-0.07686-0.12668-0.12991-0.22218-0.12991c-0.14341,0-0.25852,0.11704-0.25852,0.25788
			c0,0.06173,0.0209,0.1151,0.05531,0.15883l0.94723,1.37617c0.00162,0.00161,0.00193,0.00354,0.00193,0.00354l0.15659,0.22669
			c0.00996,0.01414,0.01094,0.03215,0.00386,0.04952c-0.00933,0.01607-0.02412,0.02572-0.04309,0.02572h-2.83142
			c-0.13955-0.00322-0.27973-0.04469-0.40352-0.12862c-0.32958-0.22861-0.41349-0.67939-0.18617-1.00994l1.57134-2.28321
			c0.03086-0.04276,0.05016-0.09389,0.05016-0.1524c0-0.1418-0.1164-0.25786-0.25851-0.25786
			c-0.091,0-0.17107,0.04855-0.21639,0.11832l-2.90441,4.22271l5.71076,0.00257c0.10321,0,0.19967-0.05755,0.24854-0.15112
			C16.09056,11.98599,16.08285,11.87409,16.02466,11.78792"/>
		<path class="st0" d="M25.50315,12.22749h-1.17613c-0.6744,0-0.9034-0.60468-0.9034-0.60468l-0.66103-1.70386h-2.64952
			l-0.88716,2.30854h-1.02946c0,0,2.36669-5.73829,3.1509-7.64913c0.03864-0.09608,0.12678-0.26188,0.31534-0.26188
			c0.1741,0.00289,0.66138,0,0.66138,0L25.50315,12.22749z M21.45679,6.52532c0,0-0.89836,2.25002-1.07535,2.71996h2.11564
			C22.3201,8.77534,21.45679,6.52532,21.45679,6.52532"/>
		<path class="st0" d="M36.20208,8.57176l0.0029,3.65551h-1.87363V4.64027c0,0-0.01048-0.32076,0.34424-0.32076h2.2735
			c0.28898,0,0.53605,0.01084,0.74266,0.02312c0.2059,0.01733,0.38218,0.0372,0.53064,0.06646
			c0.14918,0.03359,0.27777,0.07297,0.38939,0.12282c0.11053,0.04985,0.2142,0.10764,0.3139,0.17772
			c0.22937,0.16905,0.40818,0.3753,0.54254,0.62202c0.13257,0.24562,0.20084,0.54255,0.20084,0.88678
			c0,0.55628-0.15351,1.00816-0.45656,1.36071c-0.30704,0.34894-0.7452,0.59601-1.31483,0.74122
			c0.36591,0.64839,2.43351,3.90691,2.43351,3.90691h-1.39285c-0.73508,0-1.01286-0.63068-1.01286-0.63068l-1.62186-3.02483
			H36.20208z M37.3569,5.20666c-0.46922-0.27597-1.15482-0.23443-1.15482-0.23443l0.0076,3.12705
			c0,0,0.65922,0.05925,1.18118-0.28391c0.33918-0.2254,0.62274-0.62165,0.62274-1.317
			C38.0136,5.79834,37.71306,5.41581,37.3569,5.20666"/>
		<path class="st0" d="M26.08517,4.64897c0,0-0.00254-0.33232,0.35182-0.33232c0.92652,0,3.22457,0,4.07417,0.00289v0.60359
			c0,0.4378-0.39771,0.38578-0.39771,0.38578c-0.36591,0-2.15213,0.00109-2.15213,0.00109v2.32299h2.50577V8.2691
			c0,0,0.02384,0.3464-0.36627,0.3464h-2.1395l0.00181,3.61181h-1.87795V4.64897z"/>
		<path class="st0" d="M31.41507,4.6993c0,0-0.04444-0.38253,0.34207-0.38253h1.5395v7.91064h-1.88157V4.6993z"/>
		<path class="st0" d="M42.03097,12.22741h-1.07461l1.14216-7.6614c0,0,0.0372-0.24924,0.33015-0.24924h0.63357l2.63797,5.52084
			l2.66578-5.52084h0.69318c0.25574,0,0.31064,0.24924,0.31064,0.24924l0.94676,7.6614h-1.87435
			c0,0-0.36448-4.36927-0.45514-5.26906h-0.02275l-2.52671,5.26906h-0.43383c0,0-2.05857-4.27789-2.49312-5.15456h-0.02167
			L42.03097,12.22741z"/>
		<path class="st0" d="M51.17403,4.60224c0,0,0.02131-0.28609,0.35003-0.28609h4.0738v0.64984
			c0,0.30631-0.27705,0.34135-0.27705,0.34135h-2.30457v2.32551h2.53647v0.59564c0,0.39084-0.30415,0.38832-0.30415,0.38832
			l-2.23232-0.00145v2.63905l2.58162,0.00289v0.63683c0,0,0.00289,0.3334-0.34532,0.3334h-4.07597L51.17403,4.60224z"/>
		<g>
			<path class="st0" d="M18.0491,17.79128v-0.20408h0.31341v0.20408c0,0.51115,0.21137,0.83818,0.72917,0.83818
				c0.45633,0,0.67435-0.29313,0.67435-0.81759v-0.13626c0-0.60622-0.22468-0.8515-0.77671-1.30149
				c-0.55868-0.4427-0.87875-0.77639-0.87875-1.40321v-0.06845c0-0.61984,0.36791-0.9811,0.94688-0.9811
				c0.61319,0,0.96082,0.35429,0.96082,0.99505v0.15655h-0.31341v-0.15655c0-0.49055-0.23165-0.72252-0.64742-0.72252
				c-0.40182,0-0.63347,0.24528-0.63347,0.69527v0.06781c0,0.5045,0.23165,0.7428,0.76308,1.17187
				c0.61984,0.49055,0.89935,0.79033,0.89935,1.52616v0.15021c0,0.71523-0.36126,1.09677-0.99473,1.09677
				C18.39673,18.90199,18.0491,18.46594,18.0491,17.79128z"/>
			<path class="st0" d="M24.24342,17.79825v-1.46468c0-0.68829,0.35429-1.09012,0.9472-1.09012
				c0.59259,0,0.9266,0.34034,0.9266,1.06952v0.76308h-1.56039v0.7222c0,0.53143,0.18412,0.83121,0.64742,0.83121
				c0.39517,0,0.61319-0.23165,0.61319-0.66072v-0.0957h0.29978v0.08873c0,0.63379-0.34066,0.9266-0.91297,0.9266
				C24.58409,18.88836,24.24342,18.49319,24.24342,17.79825z M24.55683,16.81714h1.24698v-0.50418
				c0-0.55869-0.19774-0.81093-0.61319-0.81093c-0.42242,0-0.63379,0.31372-0.63379,0.83153V16.81714z"/>
			<path class="st0" d="M30.2812,19.24265h0.31341c0.02028,0.37457,0.2383,0.56534,0.64044,0.56534
				c0.43605,0,0.67435-0.2383,0.67435-0.78336v-0.67435c-0.11567,0.27253-0.37457,0.50386-0.77671,0.50386
				c-0.53809,0-0.87209-0.34034-0.87209-1.02864v-1.53979c0-0.68798,0.36791-1.04226,0.90632-1.04226
				c0.40182,0,0.63347,0.22468,0.74248,0.48358v-0.44302h0.31341v3.74759c0,0.70857-0.37457,1.03561-0.9811,1.03561
				C30.62852,20.06721,30.30149,19.76045,30.2812,19.24265z M31.90941,17.80522v-1.49225c0-0.49055-0.24528-0.80396-0.69495-0.80396
				c-0.40182,0-0.64044,0.24528-0.64044,0.78336v1.53313c0,0.54506,0.23862,0.77005,0.62682,0.77005
				C31.63022,18.59555,31.90941,18.2888,31.90941,17.80522z"/>
			<path class="st0" d="M38.2945,18.84748h-0.31341v-0.44967c-0.10901,0.26556-0.36791,0.49055-0.73583,0.49055
				c-0.46995,0-0.74248-0.27253-0.74248-0.88572v-2.71863h0.31341v2.71198c0,0.42907,0.16352,0.61984,0.5178,0.61984
				c0.37457,0,0.6471-0.27253,0.6471-0.67435v-2.65747h0.31341V18.84748z"/>
			<path class="st0" d="M42.59475,15.28401h0.31341v0.49055c0.11599-0.29978,0.36126-0.50386,0.77671-0.51781v0.29313
				c-0.4633,0.0206-0.77671,0.23165-0.77671,0.76974v2.52786h-0.31341V15.28401z"/>
			<path class="st0" d="M47.62418,17.81187v-1.48528c0-0.68829,0.3882-1.08314,0.9811-1.08314
				c0.59956,0,0.98776,0.3882,0.98776,1.07617v1.4856c0,0.69463-0.39516,1.08315-0.99473,1.08315
				S47.62418,18.48654,47.62418,17.81187z M49.27298,17.81187v-1.47831c0-0.52478-0.23165-0.82456-0.6677-0.82456
				c-0.42939,0-0.66769,0.29978-0.66769,0.81759v1.48528c0,0.51115,0.23165,0.81759,0.66072,0.81759
				C49.04133,18.62946,49.27298,18.32302,49.27298,17.81187z"/>
			<path class="st0" d="M53.6889,17.96176v-0.08873h0.29978v0.08873c0,0.44302,0.19743,0.6677,0.59259,0.6677
				c0.36792,0,0.54506-0.19742,0.54506-0.61319v-0.04753c0-0.36823-0.21105-0.55203-0.63379-0.84484
				c-0.48358-0.32703-0.74914-0.57231-0.74914-1.07681v-0.02725c0-0.50386,0.34034-0.77639,0.79699-0.77639
				c0.47692,0,0.81758,0.24528,0.81758,0.85149v0.09538h-0.30643v-0.09538c0-0.41545-0.19077-0.58594-0.51115-0.58594
				c-0.31341,0-0.50418,0.16352-0.50418,0.50418v0.02725c0,0.36094,0.1838,0.53143,0.62682,0.82424
				c0.43605,0.29978,0.76308,0.56565,0.76308,1.09709v0.04753c0,0.559-0.27253,0.87906-0.84484,0.87906
				C54.00199,18.88836,53.6889,18.56133,53.6889,17.96176z"/>
		</g>
	</g>
</g>
</svg>
