<?xml version="1.0" encoding="UTF-8" standalone="no"?>
<!DOCTYPE svg  PUBLIC '-//W3C//DTD SVG 1.1//EN'  'http://www.w3.org/Graphics/SVG/1.1/DTD/svg11.dtd'>
<svg id="Capa_1" xmlns="http://www.w3.org/2000/svg" xml:space="preserve" height="512px" viewBox="0 0 512 512" width="512px" version="1.1" y="0px" x="0px" xmlns:xlink="http://www.w3.org/1999/xlink" enable-background="new 0 0 512 512">
				<path d="m500.52 404.63l-79.07-79.08c-15.75-15.686-41.831-15.209-58.129 1.095l-39.836 39.827c-2.517-1.387-5.122-2.836-7.86-4.373-25.156-13.938-59.586-33.043-95.817-69.301-36.338-36.333-55.46-70.816-69.441-95.989-1.475-2.667-2.889-5.238-4.284-7.68l26.735-26.696 13.145-13.161c16.323-16.328 16.772-42.401 1.061-58.133l-79.07-79.088c-15.71-15.706-41.803-15.229-58.127 1.098l-22.284 22.413 0.608 0.604c-7.473 9.535-13.717 20.531-18.363 32.39-4.283 11.288-6.95 22.06-8.169 32.854-10.441 86.556 29.112 165.66 136.46 273.01 148.38 148.37 267.96 137.16 273.11 136.62 11.235-1.343 22.003-4.027 32.945-8.277 11.755-4.592 22.745-10.827 32.273-18.283l0.486 0.433 22.576-22.107c16.28-16.33 16.75-42.41 1.04-58.17z" fill="#fff"/>
</svg>
