<?xml version="1.0" encoding="utf-8"?>
<!-- Generator: Adobe Illustrator 23.0.1, SVG Export Plug-In . SVG Version: 6.00 Build 0)  -->
<svg version="1.1" id="Capa_1" xmlns="http://www.w3.org/2000/svg" xmlns:xlink="http://www.w3.org/1999/xlink" x="0px" y="0px"
	 viewBox="0 0 351.8 131.1" style="enable-background:new 0 0 351.8 131.1;" xml:space="preserve">
<style type="text/css">
	.st0{fill:#C10E2D;}
	.st1{fill:#6E6158;}
</style>
<path class="st0" d="M1.5,48.7c0.3-1.1,1.1-1.8,1.9-2.5c6.3-5.4,13.4-7,21.3-4.4C32.5,44.4,37.4,50,39,58c1.5,7.4-0.5,13.9-5.7,19.4
	c-1,1.1-2.2,1.4-3.6,0.9c-1.4-0.5-2.1-1.5-2.3-2.9c-0.1-1,0.2-2,1-2.7c2.2-2.3,3.6-4.9,4.1-8c1.4-7.5-3.8-15.3-11.3-16.8
	C16,46.8,11.4,48,7.6,51.7c-2.1,2.1-5.5,1-6-1.5c0-0.1-0.1-0.1-0.1-0.2C1.5,49.5,1.5,49.1,1.5,48.7z"/>
<path class="st1" d="M302.4,58.1c-0.2,2.9-0.6,5.7-1.7,8.4c-1.8,4.2-4.8,7.2-9,8.8c-4.4,1.7-8.9,1.9-13.4,0.6
	c-6.5-1.9-10.3-6.5-11.7-13.1c-1-4.8-0.5-9.5,1.9-13.8c2.7-5,7.1-7.8,12.7-8.7c3.6-0.6,7.1-0.3,10.5,1c5.5,2.2,8.7,6.3,10,11.9
	C302.1,54.8,302.2,56.5,302.4,58.1z M293.2,58.3c0-2.8-0.6-5.3-1.7-7.4c-2-3.6-5.6-5.3-9.5-4.3c-2.7,0.7-4.5,2.6-5.6,5.1
	c-1.2,2.7-1.5,5.5-1.2,8.4c0.2,2.4,0.8,4.6,2.3,6.6c2.1,2.9,4.9,4,8.4,3.4c2.8-0.5,4.7-2.3,5.9-4.8
	C292.9,63.1,293.2,60.7,293.2,58.3z"/>
<path class="st1" d="M236.5,58.1c-0.1,3.1-0.6,6.1-1.9,8.9c-2.4,5-6.4,8-11.7,9.1c-3.9,0.8-7.7,0.8-11.5-0.6
	c-6-2.2-9.4-6.6-10.6-12.7c-1-4.7-0.5-9.2,1.7-13.5c2.7-5.2,7.1-8.1,12.8-9c3.6-0.6,7.1-0.3,10.5,1c5.7,2.3,9,6.6,10.2,12.5
	C236.3,55.2,236.4,56.7,236.5,58.1z M227.4,58.3c0-3-0.7-5.7-2-7.8c-1.9-3.2-5.1-4.6-8.7-3.9c-2.8,0.5-4.7,2.3-6,4.8
	c-1.1,2.2-1.5,4.6-1.5,7.1c0,2.7,0.5,5.3,2,7.7c2,3.2,5.2,4.6,8.9,3.8c2.7-0.5,4.5-2.2,5.7-4.6C227,63.2,227.4,60.8,227.4,58.3z"/>
<path class="st1" d="M103.2,76.1c0-11.8,0-23.5,0-35.3c7.7,0,15.4,0,23.1,0c0,2.2,0,4.3,0,6.5c-5,0-10,0-15.1,0c0,2.5,0,4.9,0,7.3
	c4.7,0,9.4,0,14.2,0c0,2.2,0,4.3,0,6.5c-4.7,0-9.5,0-14.2,0c0,2.8,0,5.6,0,8.4c5.3,0,10.6,0,15.9,0c0,2.2,0,4.4,0,6.5
	C119.1,76.1,111.1,76.1,103.2,76.1z"/>
<path class="st1" d="M178.7,63.5c0,4.2,0,8.4,0,12.6c-2.8,0-5.6,0-8.5,0c0-0.2,0-0.4,0-0.6c0-11.3,0-22.5,0-33.8
	c0-0.5,0.1-0.7,0.6-0.7c4.1-0.6,8.2-0.7,12.4-0.6c2.7,0.1,5.3,0.4,7.8,1.5c4.5,1.9,6.9,6,6.3,10.8c-0.3,2.7-1.1,5.1-3.1,6.9
	c-1.9,1.8-4.3,2.8-6.9,3.4c-2.7,0.6-5.5,0.7-8.2,0.5C179,63.5,178.9,63.5,178.7,63.5z M178.7,52c0,1.6,0,3.1,0,4.7
	c0,0.4,0.1,0.6,0.5,0.6c0.8,0,1.5,0.1,2.3,0.1c1.7,0,3.3-0.2,4.7-1.1c2.1-1.2,2.8-3.1,2.5-5.4c-0.3-2.2-1.6-3.5-3.7-4
	c-2-0.6-4-0.4-6.1-0.2c-0.4,0-0.4,0.3-0.4,0.5C178.7,48.8,178.7,50.4,178.7,52z"/>
<path class="st1" d="M329.9,42c-0.6,2.1-1.2,4.2-1.9,6.3c-1.2-0.4-2.4-0.8-3.5-1.1c-2.2-0.5-4.5-0.8-6.7-0.2
	c-0.6,0.2-1.3,0.5-1.8,0.9c-1.5,1.1-1.6,3.2-0.1,4.3c0.7,0.6,1.5,1.1,2.4,1.4c1.6,0.7,3.3,1.2,5,2c1.4,0.7,2.9,1.4,4.2,2.2
	c5.7,3.8,5.1,12.2-0.1,15.8c-2.1,1.4-4.4,2.2-6.8,2.6c-4.6,0.7-9.1,0.2-13.4-1.4c-0.4-0.1-0.8-0.3-1.2-0.5c0.6-2.2,1.1-4.3,1.7-6.5
	c0.2,0.1,0.3,0.1,0.4,0.2c3,1.3,6.1,2,9.4,2c1.1,0,2.2-0.2,3.3-0.7c2.7-1.2,3-4.3,0.6-6c-1.2-0.8-2.6-1.4-4-1.9
	c-1.9-0.7-3.9-1.4-5.6-2.5c-1.4-0.9-2.7-1.9-3.7-3.3c-2.6-3.6-2-8.7,1.4-11.8c2-1.9,4.5-2.9,7.1-3.4c4.4-0.7,8.7-0.4,12.9,1.1
	C329.4,41.8,329.6,41.9,329.9,42z"/>
<path class="st1" d="M255.4,76.1c-2.8,0-5.6,0-8.4,0c0-9.6,0-19.1,0-28.7c-3.4,0-6.7,0-10,0c0-2.3,0-4.5,0-6.7c9.5,0,19,0,28.5,0
	c0,2.2,0,4.4,0,6.7c-3.3,0-6.7,0-10.1,0C255.4,57,255.4,66.5,255.4,76.1z"/>
<path class="st0" d="M40.2,44.3c-10.5-0.1-19.5-7.6-21.3-18c-0.2-1.4-0.4-2.8-0.3-4.1c0.1-1.8,1.7-3,3.4-3c1.8,0,3.2,1.4,3.4,3.2
	c0.2,1.4,0.2,2.9,0.6,4.3c1.8,6.6,7.9,10.9,14.9,10.7c6.5-0.2,12.3-5.1,13.7-11.5c0.3-1.2,0.3-2.4,0.4-3.6c0.1-1.4,1.1-2.5,2.5-2.9
	c1.4-0.4,2.9,0.1,3.7,1.2c0.4,0.6,0.6,1.3,0.6,2c0.1,10.7-7.8,19.9-18.3,21.5C42.4,44.1,41.3,44.2,40.2,44.3z"/>
<path class="st0" d="M63.6,40.6c5.7,0.1,10.7,2.1,14.9,6c1.5,1.4,1.6,3.5,0.2,4.9c-1.4,1.4-3.5,1.4-4.9,0c-8.4-7.9-22-3.9-24.6,7.4
	c-1.2,5.3,0.2,10,4,13.9c1,1,1.3,2.1,0.9,3.4c-0.4,1.3-1.3,2.2-2.6,2.5c-1.1,0.2-2.1-0.1-2.9-0.9c-3.8-3.8-6-8.3-6.5-13.7
	c-0.9-9.8,4.9-18.9,14.1-22.3C58.6,41,61.1,40.5,63.6,40.6z"/>
<path class="st1" d="M131.9,40.8c2.9,0,5.7,0,8.7,0c0,9.6,0,19.1,0,28.7c5,0,9.8,0,14.8,0c0,2.3,0,4.5,0,6.7c-7.8,0-15.6,0-23.4,0
	C131.9,64.4,131.9,52.6,131.9,40.8z"/>
<path class="st1" d="M336.6,40.5c2.8,0,5.5,0,8.3,0c0,11.9,0,23.7,0,35.6c-2.8,0-5.5,0-8.3,0C336.6,64.3,336.6,52.4,336.6,40.5z"/>
<path class="st0" d="M74,61.5c0,5.7-4.6,10.4-10.3,10.4c-5.8,0-10.4-4.6-10.4-10.4c0-5.7,4.6-10.4,10.4-10.4
	C69.3,51.1,74,55.7,74,61.5z M63.6,66.4c2.7,0,4.9-2.2,4.9-4.9c0-2.7-2.2-4.9-4.9-4.9c-2.7,0-4.9,2.2-4.9,5
	C58.7,64.2,60.9,66.4,63.6,66.4z"/>
<path class="st0" d="M29.3,23.1c0-5.8,4.7-10.4,10.5-10.4c5.7,0,10.3,4.7,10.3,10.4c0,5.8-4.7,10.4-10.4,10.4
	C33.9,33.4,29.2,28.8,29.3,23.1z M39.7,18.2c-2.7,0-4.9,2.2-4.9,4.9c0,2.7,2.2,4.9,4.9,4.9c2.7,0,4.9-2.2,4.9-4.9
	C44.6,20.4,42.4,18.2,39.7,18.2z"/>
<path class="st0" d="M8.1,62.3c0-5.7,4.6-10.4,10.3-10.4c5.8,0,10.4,4.6,10.5,10.4c0,5.8-4.6,10.4-10.3,10.4
	C12.8,72.7,8.2,68.1,8.1,62.3z M18.5,57.4c-2.7,0-4.9,2.2-4.9,4.9c0,2.7,2.2,4.9,4.9,4.9c2.7,0,4.9-2.2,4.9-4.9
	C23.4,59.6,21.2,57.4,18.5,57.4z"/>
<path class="st1" d="M266,113.7c0.5-2.6,1-5.2,1.4-7.7c0.1-0.8,0.2-1.7,0.2-2.5c-0.1-1.3-1.1-1.9-2.3-1.4c-0.6,0.3-1.2,0.7-1.6,1.3
	c-1,1.2-1.5,2.7-1.7,4.2c-0.4,2-0.7,4.1-1.1,6.1c-1.1,0-2.2,0-3.3,0c0.8-4.7,1.7-9.4,2.5-14.1c0.9,0,1.9,0,2.9,0
	c-0.1,0.8-0.2,1.5-0.3,2.4c0.3-0.3,0.5-0.6,0.7-0.8c1.3-1.4,2.8-2.1,4.7-1.9c1.5,0.1,2.5,1,2.8,2.4c0,0.1,0,0.2,0.1,0.4
	c0.3-0.3,0.5-0.6,0.7-0.9c1.1-1.2,2.4-1.8,3.9-1.9c2.3-0.1,3.8,1.2,3.8,3.5c0,1.4-0.3,2.8-0.5,4.2c-0.4,2.1-0.8,4.2-1.2,6.3
	c-0.1,0.3-0.2,0.4-0.5,0.4c-0.9,0-1.9,0-2.9,0c0.2-1.3,0.5-2.6,0.7-3.9c0.3-1.6,0.6-3.2,0.9-4.8c0.1-0.4,0.1-0.9,0.1-1.3
	c-0.1-1.4-1.2-2.1-2.5-1.5c-0.6,0.3-1.1,0.7-1.5,1.2c-1,1.2-1.4,2.6-1.7,4.1c-0.4,2-0.7,4-1.1,6c0,0.2-0.2,0.4-0.4,0.4
	C268.1,113.7,267.1,113.7,266,113.7z"/>
<path class="st1" d="M328.9,113.7c-1,0-2,0-3,0c0.1-0.8,0.2-1.6,0.3-2.5c-0.3,0.4-0.5,0.6-0.7,0.9c-1.3,1.5-3,2.2-4.9,1.9
	c-1.8-0.3-3.1-1.7-3.5-3.8c-0.6-3.6,1.1-8.4,5.3-10.3c1.8-0.8,3.6-1,5.6-0.3c0.4-2.2,0.8-4.4,1.3-6.5c1.1,0,2.2,0,3.4,0
	C331.4,99.9,329.7,106.7,328.9,113.7z M320.4,108.4c0.1,0.3,0.1,1,0.3,1.5c0.4,1.1,1.3,1.6,2.4,1.3c0.5-0.2,1.1-0.5,1.5-0.8
	c0.9-0.7,1.4-1.7,1.7-2.8c0.4-1.6,0.6-3.1,1-4.7c0.1-0.5-0.1-0.6-0.4-0.8c-1.6-0.6-3-0.2-4.2,0.8
	C321.1,104.3,320.5,106.1,320.4,108.4z"/>
<path class="st1" d="M233,113.7c0.1-0.3,0.2-0.4,0.3-0.6c3.1-6.2,6.2-12.4,9.3-18.6c0.2-0.4,0.4-0.5,0.8-0.5c1.2,0,2.4,0,3.7,0
	c0.8,6.6,1.6,13.1,2.5,19.7c-1.2,0-2.3,0-3.5,0c-0.1-0.9-0.2-1.9-0.3-2.9c-0.1-0.8-0.2-1.5-0.2-2.3c0-0.3-0.2-0.4-0.4-0.4
	c-1.8,0-3.6,0-5.4,0c-0.2,0-0.4,0.2-0.5,0.4c-0.8,1.6-1.5,3.2-2.3,4.8c-0.2,0.3-0.3,0.4-0.7,0.4C235.1,113.7,234.1,113.7,233,113.7z
	 M244.3,97c-1.3,2.8-2.6,5.6-3.9,8.5c1.6,0,3.2,0,4.8,0C244.9,102.6,244.6,99.8,244.3,97z"/>
<path class="st1" d="M313.5,113.7c-1.1,0-2.1,0-3.2,0c0.1-1,0.2-2,0.2-3.2c-0.3,0.4-0.5,0.8-0.8,1.2c-0.9,1.3-2.1,2.1-3.8,2.3
	c-2.6,0.3-4.5-1.4-4.7-4c-0.5-5.1,2.9-10.8,9.7-10.9c1,0,2.1,0.1,3.1,0.3c0.5,0.1,0.9,0.2,1.4,0.3
	C314.7,104.4,313.3,108.9,313.5,113.7z M311.7,102c-1.5-0.4-2.8-0.2-3.9,0.6c-2.3,1.7-3.3,4-3,6.8c0.2,1.7,1.7,2.4,3.2,1.5
	c0.5-0.4,1-0.9,1.4-1.4c0.4-0.6,0.8-1.2,1-1.9C310.9,105.8,311.3,103.9,311.7,102z"/>
<path class="st1" d="M347.3,105.8c-0.1,2.4-1.1,5-3.6,6.8c-1.8,1.3-3.8,1.7-6,1.3c-2.4-0.4-4.1-2.3-4.3-4.9
	c-0.3-3.4,0.8-6.3,3.5-8.4c1.8-1.4,3.9-1.8,6.1-1.3C345.6,99.8,347.3,102.1,347.3,105.8z M343.8,105.2c0-0.1,0-0.3,0-0.4
	c-0.1-1.6-0.9-2.7-2.2-2.9c-1-0.2-1.9,0.1-2.6,0.9c-1.7,1.8-2.4,4-2,6.5c0.4,2.2,2.6,3,4.4,1.6c0.5-0.4,0.9-0.9,1.2-1.4
	C343.4,108.2,343.7,106.7,343.8,105.2z"/>
<path class="st1" d="M183.2,23.2c0-4.6,3.7-8.3,8.3-8.3c4.6,0,8.4,3.7,8.4,8.3c0,4.6-3.7,8.3-8.4,8.3
	C186.9,31.5,183.2,27.8,183.2,23.2z M191.5,16.5c-3.6,0-6.6,3-6.6,6.6c0,3.6,3,6.6,6.5,6.6c3.6,0,6.6-3,6.6-6.6
	C198.1,19.5,195.2,16.5,191.5,16.5z"/>
<path class="st1" d="M140.7,24.8c0-0.6,0-1.1,0-1.7c2.2,0,4.4,0,6.6,0c0.1,1.7-0.1,3.4-1.1,4.9c-2.4,3.7-7.8,4.5-11.5,1.7
	c-2.9-2.2-4-5.9-2.8-9.2c1.1-3.4,4.3-5.7,7.9-5.7c2.8,0,5.2,1.3,6.8,3.5c-0.4,0.4-0.8,0.8-1.3,1.2c-0.3-0.4-0.6-0.7-0.9-1.1
	c-1.9-1.9-4.2-2.4-6.7-1.5c-2.6,0.9-4.1,2.9-4.4,5.6c-0.4,3.7,2.2,6.9,5.9,7.3c2.6,0.3,5.5-1.6,6.1-4c0.1-0.3,0.1-0.6,0.1-0.9
	C143.9,24.8,142.3,24.8,140.7,24.8z"/>
<path class="st0" d="M220.8,120.2c-0.8,0-1.6,0-2.4,0c0-10,0-20,0-30.1c0.8,0,1.6,0,2.4,0C220.8,100.1,220.8,110.1,220.8,120.2z"/>
<path class="st1" d="M297.2,113.7c-1.1,0-2.2,0-3.4,0c0.2-1,0.3-1.9,0.5-2.8c1.1-5.8,2.2-11.6,3.3-17.4c0.1-0.4,0.2-0.5,0.6-0.5
	c0.9,0,1.9,0,2.9,0C299.8,99.9,298.5,106.8,297.2,113.7z"/>
<path class="st1" d="M169.8,15.1c1.9,0,3.8-0.2,5.7,0.5c1.8,0.7,2.7,2.4,2.5,4.4c-0.3,2.3-1.5,3.5-4,3.9c1.7,2.4,3.3,4.7,5.1,7.2
	c-0.8,0-1.4,0-2.1,0c-0.1,0-0.3-0.2-0.4-0.4c-1.4-2.1-2.9-4.2-4.3-6.3c-0.1-0.2-0.4-0.3-0.5-0.5c-0.1,0-0.1,0.1-0.2,0.1
	c0,2.3,0,4.6,0,7c-0.6,0-1.2,0-1.8,0C169.8,25.8,169.8,20.5,169.8,15.1z M171.6,22.6c1-0.1,1.9-0.2,2.8-0.4c1.8-0.5,2.4-3.2,1.1-4.5
	c-0.2-0.2-0.4-0.4-0.7-0.5c-1-0.5-2.1-0.4-3.2-0.4C171.6,18.7,171.6,20.6,171.6,22.6z"/>
<path class="st1" d="M152.6,15.1c0.6,0,1.1,0,1.7,0c0,0.2,0,0.4,0,0.7c0,3.1,0,6.2,0,9.4c0,0.4,0,0.8,0.1,1.2
	c0.2,2.1,1.7,3.4,3.8,3.4c2.1,0,3.7-1.3,3.9-3.4c0.1-1.5,0.1-3,0.1-4.5c0-2.1,0-4.1,0-6.2c0-0.2,0-0.4,0-0.6c0.6,0,1.1,0,1.7,0
	c0,0.1,0.1,0.2,0.1,0.3c0,3.6,0,7.1,0,10.7c0,3.2-2.6,5-4.9,5.2c-1.4,0.2-2.7-0.1-3.9-0.9c-1.5-1-2.4-2.4-2.5-4.2
	c-0.1-3.7,0-7.3,0-11C152.5,15.3,152.6,15.2,152.6,15.1z"/>
<path class="st1" d="M126.8,15.1c0,0.5,0,1.1,0,1.6c-2.2,0-4.3,0-6.5,0c0,1.6,0,3.1,0,4.8c2.1,0,4.1,0,6.3,0c0,0.6,0,1.1,0,1.7
	c-2.1,0-4.1,0-6.3,0c0,2.1,0,4.2,0,6.3c2.1,0,4.3,0,6.4,0c0,0.6,0,1.1,0,1.6c-2.7,0-5.5,0-8.3,0c0-5.3,0-10.6,0-16
	C121.2,15.1,124,15.1,126.8,15.1z"/>
<path class="st1" d="M112.6,17.3c-0.5,0.3-0.9,0.6-1.4,0.9c-0.2-0.2-0.3-0.5-0.5-0.7c-0.9-1.1-2.5-1.4-3.8-0.6
	c-1.5,0.9-1.6,2.8-0.1,3.8c0.7,0.4,1.4,0.7,2.2,1.1c0.6,0.3,1.3,0.6,1.9,1c2.6,1.5,3.1,4.8,1,7c-1.4,1.5-3.2,2-5.2,1.5
	c-2-0.5-3.1-1.8-3.6-3.7c0-0.1,0-0.1,0-0.3c0.6-0.2,1.1-0.3,1.7-0.5c0.1,0.3,0.2,0.6,0.3,0.9c0.6,1.4,1.8,2.2,3.3,2.1
	c1.5-0.2,2.7-1.2,2.9-2.6c0.2-1.1-0.2-2.1-1.1-2.7c-0.7-0.5-1.5-0.8-2.2-1.2c-0.7-0.4-1.4-0.7-2.1-1.1c-1.4-0.8-2.1-2-1.9-3.7
	c0.2-1.7,1.1-2.8,2.7-3.4C109,14.2,111.5,15.1,112.6,17.3z"/>
<path class="st1" d="M213.6,17.4c-0.5,0.3-0.9,0.6-1.4,0.9c-0.2-0.2-0.3-0.5-0.5-0.7c-1-1.2-2.7-1.4-3.9-0.6c-1.4,1-1.4,2.7,0,3.7
	c0.6,0.4,1.3,0.7,2,1c0.7,0.4,1.5,0.7,2.2,1.1c2.6,1.5,3.1,4.8,1,7.1c-1.5,1.6-3.3,2-5.4,1.4c-1.9-0.6-2.9-2-3.4-3.9
	c0.6-0.2,1.1-0.3,1.7-0.5c0.1,0.4,0.2,0.7,0.4,1.1c0.7,1.4,2.1,2.2,3.6,1.8c1.6-0.4,2.6-1.7,2.5-3.2c0-1-0.5-1.7-1.3-2.2
	c-0.7-0.4-1.5-0.8-2.3-1.2c-0.7-0.4-1.4-0.7-2.1-1.1c-2.5-1.6-2.2-5.2,0.3-6.6c2.2-1.3,5.1-0.6,6.4,1.5
	C213.5,17.1,213.6,17.2,213.6,17.4z"/>
<path class="st1" d="M349.9,32.2c-1.8,1.8-3.6,3.4-5.3,5.2c-0.9,0.9-1.8,1.3-3,1.2c-1.6-0.1-3.1,0-4.8,0c0.1-0.2,0.1-0.3,0.2-0.4
	c1.3-1.9,2.6-3.8,3.9-5.7c0.1-0.2,0.4-0.3,0.5-0.3c2.7,0,5.4,0,8.1,0C349.7,32.1,349.7,32.2,349.9,32.2z"/>
<path class="st1" d="M284.8,113.7c-1.1,0-2.3,0-3.4,0c0.9-4.7,1.8-9.4,2.7-14.2c1.1,0,2.2,0,3.4,0
	C286.6,104.3,285.7,109,284.8,113.7z"/>
<path class="st1" d="M286.4,97.4c-1,0-1.7-0.8-1.7-1.9c0-1.1,0.9-2,2.1-2c1.1,0,1.8,0.8,1.8,1.8C288.5,96.6,287.6,97.5,286.4,97.4z"
	/>
</svg>
