<?xml version="1.0" encoding="UTF-8" standalone="no"?>
<svg id="Capa_1" style="enable-background:new 0 0 512 512" xmlns="http://www.w3.org/2000/svg" xml:space="preserve" viewBox="0 0 512 512" version="1.1" y="0px" x="0px" xmlns:xlink="http://www.w3.org/1999/xlink">
<path d="m349.87 196.27h8.533c14.14 0 25.6-11.46 25.6-25.6s-11.46-25.6-25.6-25.6h-8.533" fill="#FEDAC6"/>
<path d="m162.13 196.27h-8.53c-14.14 0-25.6-11.46-25.6-25.6s11.46-25.6 25.6-25.6h8.533" fill="#F5C4B0"/>
<path d="m162.13 110.93v68.27l2.048 26.624c4.352 50.756 49.033 88.38 99.789 84.028 2.765-0.239 5.513-0.597 8.243-1.084 42.044-8.132 73.25-43.699 75.861-86.443l1.792-23.125v-68.267l-42.667-25.6-145.06 25.6z" fill="#FEDAC6"/>
<path d="m204.8 203.26v-99.84l-42.667 7.509v68.27l2.048 26.624c3.593 43.153 36.838 77.935 79.787 83.456l-17.067-22.187c-14.28-18.21-22.07-40.67-22.1-63.83z" fill="#F5C4B0"/>
<path d="m307.2 25.6c-5.222-10.479-15.94-17.092-27.648-17.067h-151.55c0 18.85 15.283 34.133 34.133 34.133h-34.13c0 18.85 15.283 34.133 34.133 34.133h-34.13c0 18.85 15.283 34.133 34.133 34.133h34.133c40.96 0 84.224-15.531 110.93-25.6 11.622 12.262 26.377 21.111 42.667 25.6v-42.663c0.01-23.561-19.1-42.667-42.66-42.667z" fill="#A15D30"/>
<path d="m128.43 80.64c1.946 17.178 16.418 30.191 33.707 30.293h34.133c28.501 0 86.528-17.664 110.93-25.6-61.27 1.454-150.1 1.198-178.77-4.69z" fill="#8F4F24"/>
<g fill="#EBEBEB">
	<path d="m200.53 204.8c-21.163 0.051-38.349-17.067-38.4-38.229v-0.171-21.333h76.8v21.33c0.051 21.163-17.067 38.349-38.229 38.4h-0.17z"/>
	<path d="m311.47 204.8c-21.163 0.051-38.349-17.067-38.4-38.229v-0.171-21.333h76.8v21.33c0.051 21.163-17.067 38.349-38.229 38.4h-0.17z"/>
</g>
<path d="m256 401.07c31.044 0.017 59.11-18.483 71.339-47.019l3.84-8.533-17.493-2.048c-8.619-1.041-15.078-8.388-15.019-17.067v-44.8h-85.333v44.544c0.06 8.678-6.4 16.026-15.019 17.067l-17.067 2.048 3.84 8.533c12.09 28.49 39.96 47.08 70.91 47.28z" fill="#FEDAC6"/>
<path d="m375.98 350.46l-44.8-5.291-3.84 8.533c-16.939 39.398-62.609 57.609-102.01 40.67-18.261-7.851-32.811-22.409-40.67-40.67l-3.84-8.533-44.8 5.291c-33.903 4.531-59.221 33.459-59.221 67.669v93.87h358.4v-93.867c0-34.21-25.32-63.13-59.22-67.67z" fill="#3CACDE"/>
<path d="m76.8 418.13v93.87h34.133v-152.92c-21.1 12.19-34.104 34.69-34.13 59.05z" fill="#329AC7"/>
<rect height="42.667" width="68.267" y="469.33" x="76.8" fill="#FEDAC6"/>
<g fill="#F5C4B0">
	<rect height="42.667" width="34.133" y="469.33" x="76.8"/>
	<path d="m298.67 307.2v-25.6h-85.333v25.6c31.99 17.07 53.33 17.07 85.33 0z"/>
</g>
<rect height="42.667" width="68.267" y="469.33" x="366.93" fill="#FEDAC6"/>
<path d="m264.53 221.87h-25.6c-2.449 0-4.779-1.05-6.4-2.884-1.621-1.835-2.372-4.275-2.074-6.707l8.533-68.267 16.93 2.116-7.322 58.675h15.932v17.07z"/>
<path d="m240.38 256h-1.451v-17.067h1.451c13.286-0.009 25.779-5.18 35.183-14.575l12.066 12.075c-12.62 12.6-29.39 19.55-47.25 19.56z"/>
<path d="m358.4 204.8h-8.533v-17.067h8.533c9.412 0 17.067-7.654 17.067-17.067 0-9.412-7.654-17.067-17.067-17.067h-8.533v-17.067h8.533c18.825 0 34.133 15.309 34.133 34.133s-15.31 34.15-34.13 34.15z"/>
<path d="m162.13 204.8h-8.53c-18.825 0-34.133-15.309-34.133-34.133s15.309-34.133 34.133-34.133h8.533v17.06h-8.53c-9.412 0-17.067 7.654-17.067 17.067 0 9.412 7.654 17.067 17.067 17.067h8.533v17.06z"/>
<path d="m255.92 298.74c-23.689 0-46.404-8.26-64.734-23.697-20.591-17.34-33.203-41.66-35.499-68.48l-2.057-26.701-0.026-68.924h17.067v68.26l2.022 25.967c3.934 45.918 44.706 80.154 90.547 76.177 2.517-0.213 5.009-0.546 7.492-0.981 38.093-7.373 66.449-39.689 68.821-78.566l1.801-23.262-0.017-93.201h17.07v93.861l-1.818 23.782c-2.833 46.507-36.864 85.282-82.748 94.157-3.115 0.555-6.127 0.956-9.139 1.212-2.94 0.26-5.86 0.39-8.77 0.39z"/>
<path d="m349.87 119.47c-0.759 0-1.519-0.102-2.27-0.307-15.94-4.386-30.541-12.612-42.539-23.919-33.143 12.288-71.45 24.226-108.79 24.226h-34.133c-23.526 0-42.667-19.14-42.667-42.667 0-4.71 3.823-8.533 8.533-8.533h0.017c-5.359-7.134-8.55-16-8.55-25.6 0-4.71 3.823-8.533 8.533-8.533h0.017c-5.359-7.134-8.55-16-8.55-25.6 0-4.714 3.82-8.537 8.53-8.537h151.55 0.102c13.261 0 25.327 6.519 32.58 17.314 25.873 2.534 46.165 24.422 46.165 50.953v42.667c0 2.662-1.246 5.171-3.362 6.784-1.5 1.16-3.32 1.76-5.17 1.76zm-211.88-34.137c3.524 9.933 13.013 17.067 24.141 17.067h34.133c41.489 0 86.357-16.922 107.92-25.054 3.2-1.22 6.844-0.375 9.199 2.116 7.927 8.354 17.442 14.967 27.938 19.465v-30.66c0-18.825-15.309-34.133-34.133-34.133-3.234 0-6.195-1.826-7.637-4.727-3.797-7.629-11.716-12.237-19.977-12.339h-141.58c3.524 9.933 13.013 17.067 24.141 17.067 4.71 0 8.533 3.823 8.533 8.533s-3.823 8.533-8.533 8.533h-24.141c3.524 9.933 13.013 17.067 24.141 17.067 4.71 0 8.533 3.823 8.533 8.533s-3.823 8.533-8.533 8.533h-24.14z"/>
<path d="m200.45 213.33c-12.476 0-24.209-4.847-33.05-13.645-8.875-8.832-13.764-20.582-13.798-33.101v-21.521c0-4.71 3.823-8.533 8.533-8.533h76.8c4.71 0 8.533 3.823 8.533 8.533v21.34c0.026 12.493-4.821 24.269-13.645 33.135-8.832 8.875-20.582 13.764-33.101 13.798h-0.171c-0.03-0.01-0.07-0.01-0.1-0.01zm-29.78-59.73v12.8c0.034 16.546 13.389 29.867 29.781 29.867h0.085 0.171c16.401-0.034 29.73-13.423 29.696-29.85v-12.82h-59.74z"/>
<path d="m311.38 213.33c-25.779 0-46.788-20.949-46.848-46.746v-21.521c0-4.71 3.814-8.533 8.533-8.533h76.8c4.719 0 8.533 3.823 8.533 8.533v21.34c0.034 12.493-4.813 24.269-13.645 33.135-8.832 8.875-20.582 13.764-33.101 13.798h-0.179c-0.01-0.01-0.04-0.01-0.08-0.01zm-29.78-59.73v12.8c0.043 16.546 13.389 29.867 29.781 29.867h0.085 0.179c7.936-0.017 15.411-3.132 21.018-8.764 5.615-5.641 8.695-13.124 8.678-21.077v-12.83h-59.74z"/>
<rect y="136.53" x="238.93" height="17.067" width="34.133"/>
<circle cy="162.13" cx="204.8" r="17.067"/>
<circle cy="162.13" cx="307.2" r="17.067"/>
<path d="m85.333 512h-17.066v-93.867c0-38.315 28.638-71.04 66.628-76.126l62.421-7.356c4.284-0.521 7.518-4.181 7.484-8.533v-44.51h17.067v44.459c0.094 12.971-9.591 23.979-22.528 25.54l-62.319 7.339c-29.414 3.934-51.686 29.389-51.686 59.196v93.86z"/>
<path d="m443.73 512h-17.067v-93.867c-0.034-29.756-22.315-55.185-51.823-59.127l-62.157-7.322c-12.971-1.57-22.647-12.578-22.554-25.609v-44.47h17.07v44.544c-0.034 4.412 3.191 8.073 7.509 8.593l62.268 7.339c38.067 5.086 66.705 37.769 66.756 76.049v93.88z"/>
<path d="m256.04 409.6h-0.094c-34.492 0-65.545-20.48-79.13-52.19l-5.461-12.706 15.684-6.733 5.461 12.715c10.897 25.421 35.797 41.847 63.454 41.847h0.077c27.657 0 52.565-16.427 63.462-41.847l5.461-12.715 15.684 6.733-5.461 12.715c-13.57 31.72-44.64 52.2-79.13 52.2z"/>
<rect y="443.73" x="136.53" height="68.267" width="17.067"/>
<rect y="460.8" x="76.8" height="17.067" width="68.267"/>
<rect y="443.73" x="358.4" height="68.267" width="17.067"/>
<rect y="460.8" x="366.93" height="17.067" width="68.267"/>
</svg>
