<?xml version="1.0" encoding="utf-8"?>
<!-- Generator: Adobe Illustrator 23.0.1, SVG Export Plug-In . SVG Version: 6.00 Build 0)  -->
<svg version="1.1" id="Layer_1" xmlns="http://www.w3.org/2000/svg" xmlns:xlink="http://www.w3.org/1999/xlink" x="0px" y="0px"
	 viewBox="0 0 674 356" style="enable-background:new 0 0 674 356;" xml:space="preserve">
<style type="text/css">
	.st0{fill:#807F83;}
	.st1{fill-rule:evenodd;clip-rule:evenodd;fill:#00467F;}
	.st2{fill:#A1A1A4;}
	.st3{fill:#00467F;}
</style>
<g>
	<g>
		<path class="st0" d="M491.4,327.8v-3l0.2,0.1c1.9,0,3.4-0.8,4.5-2.2s1.8-3.3,1.8-5.5c0-2.5-0.6-4.4-2-6.1
			c-1.2-1.5-2.7-2.3-4.5-2.4v-3h0.3c1.5,0,2.9,0.3,4.1,0.8c1.2,0.6,2.3,1.3,3.3,2.5c1,1,1.7,2.2,2.2,3.5s0.7,2.6,0.7,4.2
			c0,1.5-0.3,3-0.8,4.4s-1.3,2.6-2.3,3.7c-1,0.9-2.2,1.8-3.6,2.4C494.1,327.5,492.8,327.8,491.4,327.8L491.4,327.8z M505.8,326.6
			l-1.5-4.6c1.4,1,2.9,1.8,4.1,2.4s2.4,0.8,3.6,0.8c1.4,0,2.5-0.3,3.4-0.9c0.8-0.6,1.2-1.3,1.2-2.4c0-1.2-1.4-2.5-4.3-3.7
			c-0.7-0.3-1.2-0.5-1.7-0.7c-1.6-0.8-2.9-1.6-3.7-2.6c-0.7-0.9-1.2-2.1-1.2-3.3c0-1.9,0.7-3.3,2.1-4.4c1.3-1.1,3.1-1.6,5.4-1.6
			c0.8,0,1.6,0,2.5,0.2c0.9,0.1,1.8,0.3,2.8,0.5v3.7c-1-0.6-2-0.9-2.9-1.2c-1-0.3-1.9-0.4-2.8-0.4c-1,0-1.8,0.2-2.4,0.7
			c-0.5,0.5-0.9,1-0.9,1.8c0,1.1,1.2,2.2,3.7,3c1,0.5,1.8,0.8,2.4,1c1.7,0.8,2.9,1.7,3.7,2.6s1.2,2.1,1.2,3.3c0,2.1-0.8,3.8-2.5,5.1
			c-1.7,1.2-4,1.9-6.9,1.9c-1,0-2-0.1-2.9-0.3C507.5,327.4,506.8,327.1,505.8,326.6z M491.4,305.8v3c0,0-0.1,0-0.2,0
			c-1.8,0-3.3,0.8-4.5,2.2c-1.2,1.3-1.8,3.1-1.8,5.2c0,2.6,0.6,4.6,1.9,6.2c1.2,1.6,2.7,2.4,4.5,2.4v3c-0.1,0-0.2,0-0.3,0
			c-1.5,0-2.9-0.2-4.1-0.8c-1.2-0.5-2.3-1.2-3.3-2.4c-1-1-1.7-2.2-2.2-3.5c-0.4-1.3-0.7-2.7-0.7-4.2s0.3-3,0.8-4.4s1.3-2.6,2.4-3.7
			c1-1,2.1-1.8,3.5-2.4C488.8,306.1,490.1,305.8,491.4,305.8L491.4,305.8z M432,337.4V335c0.3,0,0.5,0,0.8,0c2.1,0,3.7-0.6,5.2-1.5
			c1.3-1,2.1-2.3,2.1-3.7c0-1.3-0.6-2.4-1.8-3.1c-1.2-0.8-2.9-1.1-5.2-1.1c-0.2,0-0.5,0.1-1.1,0.1V323c0.4,0,0.9,0,1.4,0
			c0.6-0.1,1.1-0.1,1.3-0.1c2.8,0,5,0.6,6.7,1.8c1.7,1.2,2.5,2.7,2.5,4.5c0,2.4-1.1,4.4-3.3,5.9c-2.1,1.5-5,2.3-8.5,2.3L432,337.4
			L432,337.4z M432,321v-2.8c0.2,0,0.3,0,0.4,0c1.3,0,2.3-0.4,3.2-1.3c0.8-0.9,1.2-1.9,1.2-3.2c0-1.5-0.5-2.7-1.4-3.7
			c-1-0.9-2.1-1.4-3.4-1.5v-2.7c0.3,0,0.5,0,0.9,0c0.7,0,1.8,0,3.2,0.1c1.4,0.1,2.5,0.2,3.1,0.2s1.2-0.1,2.1-0.2s1.7-0.2,2.8-0.4
			l-1.2,3.3c-0.1,0.1-0.2,0.1-0.4,0.1c-0.2,0-0.4,0-0.7,0c-0.5,0-1.2,0-2-0.1c-0.7-0.1-1.5-0.2-2.5-0.3c1.2,0.7,2.1,1.5,2.8,2.4
			c0.5,0.9,0.8,1.9,0.8,3.1c0,1.3-0.4,2.5-1.1,3.5c-0.8,1-1.9,1.9-3.2,2.5c-1.2,0.5-2.4,0.9-3.7,0.9c-0.1,0.1-0.1,0.1-0.2,0.1h-0.2
			C432.3,321,432.2,321,432,321L432,321z M459.4,324.4c-1,1.1-2,1.9-2.9,2.5c-1,0.6-2.1,0.9-3.1,0.9c-2.1,0-3.8-0.8-5.2-2.2
			c-1.3-1.4-2.1-3.2-2.1-5.5v-9.7c0-0.9-0.1-1.7-0.3-2.3c-0.3-0.7-0.6-1.2-1.1-1.7h0.5c0.8,0,1.5,0,2.3-0.1c0.7-0.1,1.5-0.2,2.2-0.3
			v11.7c0,2.3,0.4,3.9,1.2,4.9s2,1.5,3.6,1.5c1.7,0,2.9-0.5,3.7-1.4c0.7-0.9,1.2-2.6,1.2-4.7v-7.7c0-0.9-0.2-1.7-0.4-2.3
			c-0.3-0.7-0.5-1.2-1.1-1.7h0.5c0.6,0,1.4,0,2.1-0.1s1.5-0.2,2.4-0.3v16.7c0,0.9,0.1,1.7,0.4,2.4c0.2,0.6,0.5,1.1,1,1.5H464
			c-0.5,0-1.2,0.1-1.9,0.2c-0.7,0.1-1.5,0.2-2.5,0.4L459.4,324.4L459.4,324.4z M478.6,310.2c-0.3-0.2-0.6-0.4-0.9-0.5
			c-0.4-0.1-0.7-0.2-1.1-0.2c-1.4,0-2.4,0.6-3.2,1.5c-0.7,1-1.1,2.5-1.1,4.4v7.7c0,0.9,0.1,1.7,0.4,2.3c0.2,0.7,0.5,1.1,1,1.6h-6.4
			c0.5-0.5,0.9-0.9,1.1-1.6c0.2-0.6,0.4-1.3,0.4-2.3v-12.9c0-0.9-0.2-1.7-0.4-2.3c-0.2-0.7-0.5-1.2-1.1-1.7h0.4c0.6,0,1.3,0,2.1-0.1
			c0.7-0.1,1.5-0.2,2.3-0.3l0.4,3.2c0.5-1,1.2-1.9,2-2.5c0.7-0.5,1.6-0.8,2.5-0.8c0.3,0,0.5,0,0.8,0c0.2,0.1,0.5,0.1,0.9,0.2
			L478.6,310.2L478.6,310.2z M432,305.8v2.7c-0.1,0-0.2,0-0.3,0c-1.4,0-2.5,0.4-3.3,1.2c-0.8,0.9-1.2,1.9-1.2,3.2
			c0,1.5,0.4,2.7,1.4,3.8c0.9,0.9,2.1,1.4,3.3,1.5v2.8c-1.1,0.2-1.6,0.6-1.6,1.1c0,0.3,0.1,0.6,0.3,0.7c0.3,0.2,0.6,0.2,1.2,0.2h0.2
			v2.6h-0.5c-0.8,0-1.6,0-2.3,0c-1,0-1.8-0.2-2.4-0.6c-0.5-0.4-0.8-0.9-0.8-1.7s0.3-1.3,0.8-1.9c0.5-0.5,1.3-0.9,2.4-1.1
			c-1.8-0.4-3.2-1.2-4.3-2.5c-1.1-1.3-1.5-2.8-1.5-4.5c0-2.3,0.8-4.2,2.5-5.5C427.3,306.7,429.4,306,432,305.8L432,305.8z M432,335
			v2.5c-3.1,0-5.7-0.7-7.7-1.8c-2.1-1.2-3.1-2.7-3.1-4.5c0-1,0.4-1.9,1.1-2.6c0.8-0.7,1.7-0.9,2.8-0.9c0.3,0,0.6,0,0.9,0.1
			c0.4,0.1,0.8,0.2,1.2,0.4c-0.6,0.1-1,0.3-1.3,0.7c-0.3,0.4-0.4,0.9-0.4,1.6c0,1.2,0.7,2.4,2.1,3.2
			C428.8,334.4,430.3,334.9,432,335L432,335z M411.1,327.8v-3.4c0.8,0.2,1.6,0.4,2.5,0.4c1,0,2.1-0.2,3.2-0.6s2.4-0.9,3.7-1.7
			l-2.1,4c-1.2,0.5-2.2,0.9-3.2,1c-1,0.3-1.9,0.4-2.8,0.4C412,327.9,411.6,327.9,411.1,327.8L411.1,327.8z M411.1,316.2v-2.8h5.2
			c-0.1-1.5-0.6-2.6-1.5-3.6c-0.9-0.9-2.1-1.4-3.4-1.4c-0.1,0-0.2,0-0.3,0v-2.8c0.2,0,0.4,0,0.5,0c2.7,0,4.8,0.9,6.4,2.9
			c1.6,1.9,2.4,4.5,2.4,7.8h-9.3V316.2z M380.4,326.4l-1.2-5.4c1.5,1.2,3.1,2.1,4.5,2.6c1.5,0.6,3,0.9,4.5,0.9
			c1.9,0,3.4-0.4,4.5-1.2c1.1-0.9,1.7-2.1,1.7-3.4c0-0.5-0.1-0.9-0.2-1.2c-0.2-0.4-0.3-0.8-0.5-1.1c-0.5-0.8-2.1-1.9-5-3.4
			c-0.7-0.4-1.2-0.7-1.7-0.9c-2.7-1.4-4.5-2.7-5.4-4c-1-1.2-1.5-2.6-1.5-4.4c0-2.4,0.9-4.3,2.8-5.7c1.8-1.4,4.3-2.1,7.4-2.1
			c0.9,0,1.9,0,2.9,0.2c1.2,0.1,2.3,0.3,3.6,0.6v4.9c-1.2-0.9-2.2-1.6-3.4-2c-1.2-0.5-2.3-0.8-3.6-0.8c-1.5,0-2.8,0.4-3.7,1.1
			s-1.4,1.6-1.4,2.8c0,1,0.4,1.9,1.2,2.7c0.7,0.8,2.4,1.8,5,3.1c0.1,0.1,0.4,0.2,0.6,0.4c2.2,1.1,3.8,2.1,5,3
			c0.8,0.7,1.4,1.5,1.9,2.5c0.4,1,0.6,2,0.6,3.1c0,2.6-1.1,4.7-3.2,6.4c-2.1,1.8-4.8,2.6-8,2.6c-1.1,0-2.1-0.1-3.3-0.4
			C383.1,327.2,381.9,326.9,380.4,326.4L380.4,326.4z M411.1,305.6v2.8c-1.3,0.1-2.5,0.5-3.4,1.3c-0.9,0.9-1.5,2.1-1.7,3.7h5.1v2.8
			h-5.4c0.1,2.6,0.9,4.6,2.3,6.2c0.8,0.9,1.9,1.6,3,2v3.4c-2.6-0.2-4.7-1.2-6.5-3c-2.1-2.1-3.1-4.7-3.1-7.9c0-3.3,1-6,2.9-8
			C406.1,306.8,408.4,305.7,411.1,305.6z"/>
		<g>
			<rect x="159.2" y="347.2" class="st0" width="361.3" height="2.5"/>
		</g>
		<path class="st1" d="M187.5,76.2l10.3-6.9l10.8,7l-0.4-3.9l-6.5-4.7c0,0-2.3-2.1-2.5-4.4l-0.3-49.1c0,0-0.4-1.1-1.2-1.1
			c-1.1,0-1.3,0.7-1.3,1.1l0.1,49c0,0,0,1-1.3,2.5l-7.8,6.4L187.5,76.2L187.5,76.2L187.5,76.2z"/>
		<path class="st1" d="M209.8,82.6l-10.7-7.1c0,0-1.7-1.1-1.7-2.4l-9.6,7.1c0,0-0.2,0.3-0.5,0.7l-0.2,4.1l10.4-7l13.3,9L209.8,82.6z
			"/>
		<path class="st1" d="M181.4,96.9l15.8-9.2l20.4,12.6v-3.6l-18.6-12c0,0-1.5-1.4-1.5-2.6l-14.6,9c0,0-1.1,1.9-2.5,2.2v3.6H181.4
			L181.4,96.9z"/>
		<path class="st1" d="M217.6,104.4l-18.1-11c0,0-1.8-1.4-1.8-2.6l-17.1,10.6c0,0-0.2,0.9-0.8,1.4l-1.8,4.4h0.6l18.9-10.9l20.2,11.9
			L217.6,104.4z"/>
		<path class="st1" d="M197.8,99.3l-20.5,12c0,0-0.4,1.4-1.7,2.2l-0.8,4.4l22.5-12.9l25.8,14.2l-0.1-3.6l-24-14.2
			C199.1,101.4,197.8,100.4,197.8,99.3z"/>
		<path class="st1" d="M223.2,124.6l-23.7-12.4c0,0-1.6-1.9-2.1-3.6l-22.7,13l-0.1,6.4l23.2-12.7l25.4,13.7V124.6z"/>
		<path class="st1" d="M223.2,134.8L200.3,123c0,0-2.5-1.3-2.5-3.3l-23.3,12.5l-0.1,6.2l23.4-12.4l25.5,13.2L223.2,134.8z"/>
		<path class="st1" d="M223.4,144.9l-23-11.4c0,0-2.2-1-2.4-2.9l-23.6,11.7l-0.1,6.2l23.6-11.5l25.6,12.3L223.4,144.9z"/>
		<path class="st1" d="M223.5,155.4l-22.4-10c0,0-2.6-1-3.3-3.9l-23.6,10.8l-0.1,6.3l23.6-10.3l26,11L223.5,155.4z"/>
		<path class="st1" d="M223.6,166.1l-22.5-9.7c0,0-2.5-0.9-2.9-4.2L174,163.1l-0.1,6.2l23-10.4l26.8,11.4L223.6,166.1L223.6,166.1z"
			/>
		<path class="st1" d="M223.6,176.8l-22.1-9.3c0,0-2.2,0-3.5-4.2l-24,9.8c0,0-0.1,0.2-0.2,0.4l-0.1,6.2l23.8-9.3l26.3,10
			L223.6,176.8z"/>
		<path class="st1" d="M223.8,186.6l-22.5-8.2c0,0-2.8-0.8-3.7-3.8l-23.6,9.2c0,0-0.1,0.3-0.4,0.8l-0.1,5.8l25.1-8.5l25.2,9.2V186.6
			z"/>
		<path class="st1" d="M223.8,197.2l-22.2-7.6c0,0-2.9-0.8-3.6-3.9l-24.1,8.3c0,0-0.2,0.4-0.5,0.9l-0.1,6.1l25.1-7.9l25.4,8V197.2z"
			/>
		<path class="st1" d="M223.8,207.4l-22.3-6.7c0,0-2.8-0.7-3.7-4.2l-24.3,7.7c0,0-0.1,0.2-0.3,0.5l-0.1,6.5l0,0l25.1-7.5l25.9,7.6
			L223.8,207.4z"/>
		<path class="st1" d="M223.9,217.6l-22.5-6.2c0,0-2.6-0.7-3.6-3.5l-24.2,6.7c0,0-0.2,0.5-0.5,1.1l-0.1,6.2l25.1-7l26,6.8
			L223.9,217.6z"/>
		<path class="st1" d="M223.9,228.2l-22.4-5.8c0,0-3.4-0.8-3.4-3.2l-25.2,6.6l-0.1,6.1l25.6-6l25.7,6.2L223.9,228.2z"/>
		<path class="st1" d="M224.2,238.6l-22.5-4.5c0,0-2.8-0.7-3.7-3.7l-25.1,5.6c0,0,0,0.3-0.2,0.7l-0.1,5.9l25.7-5.2l26,5L224.2,238.6
			z"/>
		<path class="st1" d="M224.6,249.2l-22.4-4.3c0,0-3-0.5-4.2-3.3l-24.4,4.3c0,0-0.4,0.9-1.1,1.5l-0.1,4.8l-0.2,0.3h1.3l25.4-4.2
			l25.5,4.6v-3.7H224.6z"/>
		<path class="st1" d="M198.1,252.1l-28.4,4.3l-4.5,6.8l0,0h2.4l31.5-4.3l31.4,4.9l-0.1-3.9l-28.2-4.3
			C202.4,255.8,199.4,255.4,198.1,252.1z"/>
		<path class="st1" d="M230.7,274.2v-4.4l0,0l-28.2-3c0,0-3.6-0.7-4-3.8l-30.7,3.8c0,0-0.6,1.7-2.5,2.5v4.5h2.9l31.9-3.6
			L230.7,274.2z"/>
		<path class="st1" d="M231,284.6l-0.1-4.3l-27.2-2.3c0,0-3.7,0.5-4.9-3.7l-30.9,2.6c0,0-0.7,2.2-2.6,3v4.4h0.6l35.2-2.5L231,284.6z
			"/>
		<path class="st1" d="M198.5,285.4l-33.3,2.2v0.5l-5.7,6.4v0.7h2.5l40.5-1.5l38.1,1.9l-0.1-4.3l-37.6-1.7
			C203.1,289.5,199.8,289.5,198.5,285.4z"/>
		<path class="st1" d="M159.5,305.6l42.6-0.8l38.6,0.7l-0.1-3.9l-36.9-0.3c0,0-3.6,0.1-5.1-4.5l-38,1.2c0,0-0.3,0.9-1.2,1.9
			C159.5,299.8,159.5,305.6,159.5,305.6z"/>
		<path class="st1" d="M159.5,315.6h2.7l39.8,1.3l39-0.8l-0.1-4.2l-37.6,0.4c0,0-3.5,0.3-4.8-3.2h-36.9c0,0-0.5,1-2.1,1.7
			C159.5,310.7,159.5,315.6,159.5,315.6z"/>
		<path class="st1" d="M159.5,320.8v5.3h2.7l39.3,2.6l39.5-2l-0.1-4l-39.4,0.6c0,0-2.5,0.4-2.6-2.6l-38.6-1.2
			C160.3,319.2,160.2,320.1,159.5,320.8z"/>
		<path class="st1" d="M203.5,335c0,0-4,0.5-4.7-3l-38-2.4c0,0-0.3,0.9-1.2,1.5v4.7l40.1,3.4l41.7-2.7l-0.1-4.4L203.5,335z"/>
		<path class="st0" d="M257.7,278.6c-0.7,0-1.6-0.1-2.6-0.2c-1-0.1-2.1-0.3-3.4-0.5v-23.7c0-1.7,0.2-3,0.4-3.9
			c0.3-0.8,0.8-1.5,1.5-2.2h-9c0.7,0.7,1.2,1.4,1.5,2.2c0.3,0.9,0.4,2.2,0.4,3.9v22.1c0,1.7-0.2,3-0.4,3.9c-0.3,0.7-0.8,1.4-1.5,2.1
			h19.7l2.3-6.6c-1.4,1-2.9,1.7-4.4,2.2C260.9,278.4,259.4,278.6,257.7,278.6z M288.2,278c-0.6-0.7-0.9-2.3-0.9-4.9v-5.8
			c0-2.4-0.2-4.1-0.5-5.2c-0.4-1-1.1-2-2.1-2.7c-0.7-0.6-1.6-0.9-2.6-1.2c-0.9-0.3-2-0.5-3.1-0.5c-0.6,0-1.2,0-2,0.1
			c-0.7,0.1-1.5,0.2-2.3,0.3l-3,5.1c1.2-0.6,2.3-1,3.3-1.3c1.1-0.4,2-0.5,2.8-0.5c1.6,0,2.9,0.3,3.8,0.9s1.3,1.4,1.3,2.5
			c0,0.8-0.4,1.4-1,1.9c-0.7,0.5-2.1,0.9-4.3,1.5c-0.4,0.1-0.9,0.2-1.5,0.3c-3.2,0.8-5.3,1.7-6.2,2.7c-0.5,0.6-1,1.2-1.2,2
			c-0.3,0.8-0.4,1.5-0.4,2.4c0,2.1,0.8,3.9,2.3,5.4c1.5,1.3,3.4,2,5.7,2c0.1,0,0.2,0,0.3,0c3.9,0.1,6.3-2,7.2-2.9
			c0.2,0.4,0.4,0.7,0.8,0.9c1,0.9,2.6,1.3,4.9,1.3l2-3.1C289.8,279,288.7,278.6,288.2,278z M281.8,279c-0.7,0.2-1.3,0.3-1.8,0.4
			c-0.4,0.1-0.6,0.1-1,0.2c-0.4,0-0.6,0-0.7,0c-1.5,0-2.7-0.4-3.7-1.2c-1-0.8-1.5-1.7-1.5-3c0-1.9,2.9-3.7,8.7-5.4
			c0.5-0.2,0.9-0.3,1.2-0.3v7.1c0,0.6,0.1,1.1,0.1,1.6C282.8,278.6,282.3,278.8,281.8,279z"/>
		<path class="st2" d="M420.1,237.2c1.3,0,2.4-0.6,3.4-1.5c0.9-1,1.3-2.3,1.3-3.7s-0.4-2.6-1.4-3.7c-0.9-1-2.1-1.5-3.3-1.5
			c-1.3,0-2.5,0.5-3.5,1.5s-1.4,2.3-1.4,3.7s0.4,2.6,1.4,3.7C417.5,236.6,418.8,237.2,420.1,237.2z M325.3,277.5
			c-1.2,0-2.7-0.1-4.4-0.3c-1.7-0.1-3.6-0.4-5.7-0.8v-40.7c0-2.9,0.2-5.1,0.7-6.5c0.4-1.4,1.3-2.6,2.5-3.8h-15
			c1.2,1.1,2,2.4,2.5,3.8c0.5,1.4,0.8,3.6,0.8,6.5v37.9c0,2.9-0.3,5.1-0.8,6.5c-0.5,1.3-1.3,2.6-2.5,3.8h33.3l3.8-11.5
			c-2.4,1.7-4.8,2.9-7.3,3.7C330.7,277,328.1,277.5,325.3,277.5z M424.1,276.4V242c-1.2,0.3-2.7,0.5-4.3,0.7
			c-1.6,0.1-3.6,0.2-5.9,0.3c1,0.9,1.7,2,2.1,3.2s0.6,2.7,0.6,4.6v25.5c0,1.9-0.2,3.3-0.6,4.5c-0.4,1.1-1.2,2.2-2.1,3.1h12.9
			c-1-0.9-1.7-2-2.1-3.1C424.3,279.6,424.1,278.2,424.1,276.4z M469.8,276.4v-19.2c0-4.4-1.3-8-4-10.9c-2.7-2.7-6.2-4.2-10.4-4.2
			c-2.2,0-4.4,0.6-6.4,1.6s-3.9,2.7-6,4.9l-0.4-6.5c-1.7,0.3-3.2,0.6-4.6,0.7c-1.5,0.2-2.9,0.3-4.1,0.3H433c0.9,0.9,1.6,2,2.1,3.2
			c0.4,1.2,0.6,2.7,0.6,4.6v25.5c0,1.9-0.2,3.3-0.6,4.5c-0.4,1.1-1.1,2.2-2.1,3.1h12.9c-1-0.9-1.7-2-2.1-3.1
			c-0.4-1.2-0.6-2.6-0.6-4.5v-15.2c0-4.4,0.8-7.5,2.2-9.4c1.5-1.9,3.9-2.8,7.4-2.8c3.3,0,5.7,1,7.2,3c1.5,2.1,2.2,5.4,2.2,9.8v14.6
			c0,1.9-0.2,3.3-0.6,4.5c-0.4,1.1-1.2,2.2-2.1,3.1h13c-1-0.9-1.7-2-2.1-3.1C469.9,279.6,469.8,278.2,469.8,276.4z M519,254.9
			c-1.1-2.6-2.5-5-4.5-7.1s-4.2-3.7-6.7-4.7c-2.4-1-5.2-1.6-8.2-1.6h-0.5c-2.7,0.1-5.4,0.7-7.9,1.7c-2.7,1.1-5.1,2.7-7,4.7
			c-2.1,2.2-3.7,4.5-4.8,7.3c-1.1,2.7-1.7,5.7-1.7,8.8c0,2.7,0.5,5.5,1.6,8.1s2.5,4.9,4.5,7c2.1,2.1,4.2,3.7,6.7,4.7
			c2.4,0.9,5.2,1.5,8.2,1.5c0.2,0,0.4,0,0.5-0.1c2.8,0,5.4-0.6,7.9-1.6c2.7-1.1,5.1-2.6,7-4.5c2.1-2.2,3.7-4.5,4.8-7.3
			c1.1-2.7,1.6-5.7,1.6-8.8C520.5,260.2,519.9,257.5,519,254.9z M508.6,275.2c-2.3,2.8-5.4,4.3-9.1,4.3h-0.4
			c-3.7-0.1-6.9-1.7-9.3-4.7c-2.5-3.2-3.7-7.4-3.7-12.5c0-4.2,1.2-7.7,3.6-10.4c2.4-2.8,5.4-4.2,9-4.2h0.4c3.7,0.1,6.8,1.6,9.2,4.6
			c2.6,3.1,3.8,7.1,3.8,11.9C512.1,268.8,510.9,272.4,508.6,275.2z M396.7,229.8h-2.3c-0.2,4.8-1.2,8.6-2.9,11.5
			c-1.7,2.9-4.3,4.4-7.4,4.6v3h5.2v23.8c0,4.1,1,7.2,2.9,9.2c2,2.1,4.9,3.1,8.7,3.1c0.5,0,1.2-0.1,2.3-0.2c0.1,0,0.2,0,0.2,0l3.9-6
			c-0.6,0.2-1.2,0.3-1.9,0.4c-0.6,0.1-1.2,0.2-1.7,0.2c-2.4,0-4.2-0.9-5.4-2.6c-1.2-1.7-1.7-4.4-1.7-8v-20h5.5
			c1.4,0,2.7,0.2,3.6,0.5c0.9,0.2,1.7,0.7,2.3,1.2v-7.7h-11.4L396.7,229.8L396.7,229.8z M374.7,268.5v-9.7c0-4-0.3-6.8-0.9-8.7
			c-0.7-1.7-1.8-3.3-3.4-4.6c-1.2-0.9-2.7-1.6-4.4-2.1c-1.5-0.5-3.3-0.8-5.3-0.8c-1.1,0-2.1,0-3.3,0.2c-1.2,0.2-2.5,0.3-3.8,0.5
			l-5.1,8.5c2-0.9,3.9-1.7,5.5-2.2c1.8-0.7,3.3-0.8,4.6-0.8c2.7,0,4.8,0.5,6.4,1.6c1.5,0.9,2.2,2.4,2.2,4.2c0,1.2-0.6,2.4-1.6,3.2
			c-1.2,0.8-3.6,1.6-7.1,2.6c-0.6,0.2-1.5,0.3-2.5,0.5c-5.4,1.2-8.8,2.8-10.4,4.6c-0.9,0.9-1.6,2.1-2.1,3.3c-0.4,1.2-0.7,2.6-0.7,4
			c0,3.5,1.3,6.5,3.9,9c2.5,2.2,5.7,3.3,9.5,3.3c0.1,0,0.3,0,0.4,0c6.6,0.1,10.6-3.3,12.1-4.9c0.4,0.7,0.8,1.1,1.3,1.6
			c1.7,1.6,4.4,2.2,8.2,2.2l3.3-5.2c-2.7-0.2-4.5-0.8-5.4-1.9C375.2,275.6,374.7,273,374.7,268.5z M365.5,278.4
			c-1.2,0.3-2.1,0.5-3,0.7c-0.6,0.1-1.2,0.2-1.6,0.3c-0.6,0.1-1.1,0.1-1.2,0.1c-2.5-0.1-4.5-0.7-6.1-2.1c-1.6-1.2-2.5-2.8-2.5-5.1
			c0-3.2,4.9-6.2,14.6-9c0.9-0.3,1.5-0.5,2-0.5v11.9c0,1,0.1,1.9,0.2,2.7C367,277.7,366.3,278.1,365.5,278.4z"/>
	</g>
	<g>
		<path class="st3" d="M365,81.4v0.3c-1.2,0.2-2.4,0.5-3.6,1c-1.1,0.6-2.1,1.2-3,2.2c1.2,1.2,2.1,2.6,2.7,4c0.6,1.4,0.9,3,0.9,4.7
			c0,2-0.4,4.1-1.3,6c-0.9,2-2.1,3.6-3.6,4.9c-1.4,1.3-3.2,2.3-5.3,2.9c-2.1,0.7-4.4,0.9-6.9,0.9c-1,0-2-0.1-3-0.1
			c-1-0.1-2-0.2-2.9-0.4c-0.6,0.2-1.2,0.3-1.7,0.4s-1.1,0.1-1.5,0.1c-1.2,0-2-0.1-2.5-0.3c-0.5-0.2-0.9-0.5-0.9-0.9
			c0-0.2,0.1-0.4,0.4-0.6s0.5-0.2,0.9-0.2c0.5,0,1.4,0.1,2.6,0.4c1.2,0.3,2.1,0.4,2.9,0.5c1.2-0.3,2.5-0.9,3.7-2.1
			c1.2-1.1,2.3-2.8,3.5-5c0.4-0.7,1.2-2.3,2.4-4.8c1.2-2.6,2.4-4.5,3.4-6c0.7-1,1.5-2,2.3-2.7c0.8-0.9,1.7-1.5,2.6-2.2
			c-1-0.8-2.1-1.4-3.3-1.8c-1.2-0.4-2.5-0.7-3.9-0.7c-1.6,0-3.1,0.3-4.6,0.9s-2.9,1.4-4.1,2.5c-1.3,1.2-2.4,2.6-3.2,4.4
			c-0.8,1.7-1.2,3.5-1.2,5.4c0,1.7,0.4,3,1.2,4.1c0.7,1,1.7,1.5,2.9,1.5c1.9,0,3.4-0.9,4.5-2.8c1.2-1.9,1.8-4.4,1.8-7.7l0.2-0.1v1.1
			c0,1.1-0.2,2.3-0.4,3.5c-0.4,1.2-0.7,2.3-1.2,3.1c-0.7,1.2-1.6,2.2-2.7,2.8c-1.1,0.7-2.2,1-3.5,1c-1.6,0-2.9-0.6-3.9-1.7
			s-1.4-2.6-1.4-4.4c0-1.7,0.4-3.3,1.2-5c0.8-1.7,2-3.1,3.4-4.5c1.5-1.4,3.3-2.5,5.3-3.2c2-0.8,3.9-1.1,6-1.1c1.3,0,2.6,0.2,3.8,0.6
			c1.2,0.4,2.5,0.9,3.8,1.7c1.3-0.9,2.6-1.4,3.9-1.9C362.6,81.8,363.8,81.5,365,81.4z M357.9,85.5c-1.3,1.4-2.9,4-4.8,7.9
			c-1,2-1.8,3.5-2.3,4.5c-1.7,2.9-3.4,5.2-5.2,6.6c-1.7,1.4-3.7,2.5-6.2,3.1c0.7,0.2,1.4,0.3,2.2,0.4c0.8,0.1,1.6,0.1,2.5,0.1
			c2.3,0,4.4-0.4,6.2-1.2c1.8-0.9,3.4-2.2,4.8-4c1.2-1.6,2.3-3.5,3-5.7c0.7-2.2,1.2-4.2,1.2-6.2c0-1.2-0.1-2.3-0.4-3.1
			C358.7,87,358.3,86.3,357.9,85.5z"/>
		<path class="st3" d="M379.2,98.6c-2.2,3.2-4.5,5.7-6.8,7.5c-2.3,1.8-4.5,2.6-6.7,2.6c-1.2,0-2.1-0.4-2.9-1.1
			c-0.8-0.8-1.2-1.8-1.2-2.9c0-1.2,0.4-2.5,1-3.7s1.5-2.4,2.7-3.4c1-0.9,2.1-1.4,3.1-1.9c1.2-0.5,2.1-0.8,3.1-0.8s1.7,0.2,2.2,0.6
			s0.8,0.9,0.8,1.6c0,1.1-0.8,2.2-2.3,3c-1.5,0.9-4,1.8-7.4,2.6c0,0.1,0,0.2,0,0.3c-0.1,0.3-0.1,0.6-0.1,0.8c0,1.1,0.3,2.1,0.8,2.6
			c0.5,0.7,1.3,0.9,2.3,0.9c1.4,0,3.2-0.8,5.2-2.4s3.9-3.8,5.9-6.6L379.2,98.6z M365,102.3c2.1-0.6,3.7-1.4,5-2.6
			c1.3-1.2,2-2.4,2-3.5c0-0.4-0.1-0.6-0.3-0.8c-0.2-0.2-0.4-0.3-0.7-0.3c-1,0-2.1,0.7-3.3,2.1C366.5,98.7,365.5,100.4,365,102.3z"/>
		<path class="st3" d="M376.4,104.4c-0.2,0.1-0.4,0.3-0.4,0.5c-0.1,0.2-0.2,0.5-0.2,0.9c0,0.8,0.3,1.3,0.7,1.8s1.1,0.7,1.9,0.7
			c0.9,0,1.7-0.3,2.4-0.9c0.6-0.7,1-1.4,1-2.3c0-0.5-0.1-0.9-0.3-1.2c-0.2-0.4-0.5-0.9-1-1.7l-0.2-0.2c-0.9-1.2-1.3-2.4-1.3-3.1
			c0-1.1,0.4-2.1,1.4-2.8c1-0.8,2.1-1.1,3.6-1.1c1.2,0,2.1,0.3,2.8,0.8c0.7,0.5,1.1,1.2,1.1,2.1c0,0.7-0.3,1.2-0.7,1.7
			s-1.1,0.8-1.7,0.8c-0.1,0-0.3,0-0.4-0.1c-0.2-0.1-0.4-0.1-0.5-0.3c0.3-0.5,0.4-0.9,0.6-1.3c0.2-0.4,0.2-0.9,0.2-1.2
			c0-0.6-0.2-1.1-0.5-1.5c-0.4-0.4-0.8-0.6-1.2-0.6c-0.5,0-1,0.2-1.3,0.7c-0.4,0.5-0.5,1-0.5,1.7c0,0.5,0.1,0.9,0.3,1.3
			c0.2,0.5,0.4,0.9,0.9,1.6c0.1,0.1,0.2,0.2,0.3,0.4c1,1.4,1.4,2.6,1.4,3.4s-0.3,1.6-0.8,2.3c-0.5,0.7-1.2,1.1-2.1,1.4v0.2
			c1.9-0.4,3.7-1.3,5.5-2.9c1.9-1.6,3.7-3.9,5.4-6.8l0.2,0.1c-2.1,3.4-4.2,6.1-6.4,7.7c-2.2,1.7-4.5,2.6-7,2.6c-1.6,0-2.8-0.4-3.7-1
			c-0.9-0.7-1.3-1.7-1.3-2.9c0-0.9,0.3-1.6,0.7-2.2s1.1-0.9,1.8-0.9c0.4,0,0.9,0.2,1.2,0.5c0.3,0.3,0.4,0.7,0.4,1.1s-0.1,0.8-0.4,1
			c-0.3,0.3-0.5,0.4-0.9,0.4C376.9,104.6,376.7,104.5,376.4,104.4C376.5,104.4,376.5,104.4,376.4,104.4z"/>
		<path class="st3" d="M398.1,105.1c-0.8,1-1.8,1.9-2.7,2.5c-1,0.6-1.9,0.9-2.7,0.9c-0.9,0-1.6-0.3-2.1-0.9
			c-0.5-0.7-0.8-1.5-0.8-2.6c0-1.2,0.3-2.5,0.8-3.7c0.5-1.1,1.2-2.3,2.2-3.3s2.1-1.9,3.3-2.5c1.2-0.6,2.3-0.9,3.5-0.9
			c0.8,0,1.3,0.2,1.9,0.7c0.5,0.5,0.8,1,0.8,1.7l8.1-14.3l3.7-0.2l-11.4,19.3c-0.8,1.3-1.3,2.3-1.6,3.1c-0.4,0.8-0.5,1.4-0.5,1.9
			c0,0.3,0.1,0.5,0.3,0.7c0.2,0.2,0.4,0.3,0.6,0.3c0.9,0,2.2-0.9,4.1-2.6c1.9-1.8,3.7-4.1,5.5-6.8l0.2,0.2c-2.1,3.2-4.2,5.7-6.1,7.4
			c-1.9,1.7-3.6,2.6-4.9,2.6c-0.8,0-1.3-0.2-1.7-0.6s-0.5-0.9-0.5-1.7c0-0.1,0-0.3,0-0.5C398.1,105.6,398.1,105.3,398.1,105.1z
			 M394.7,107.2c0.5,0,1.2-0.3,1.9-0.9c0.7-0.6,1.4-1.3,2.1-2.4c0.8-1.1,1.4-2.4,1.9-3.6c0.4-1.2,0.7-2.4,0.7-3.2
			c0-0.7-0.2-1.1-0.4-1.5c-0.3-0.4-0.6-0.6-1.2-0.6c-0.5,0-1.2,0.2-1.8,0.7s-1.3,1.1-2,1.9c-0.9,1.2-1.7,2.5-2.2,3.8
			s-0.8,2.4-0.8,3.3c0,0.8,0.2,1.3,0.4,1.8C393.7,107,394.2,107.2,394.7,107.2z"/>
		<path class="st3" d="M425.8,98.6c-2.2,3.2-4.5,5.7-6.8,7.5s-4.5,2.6-6.7,2.6c-1.2,0-2.1-0.4-2.9-1.1c-0.8-0.8-1.2-1.8-1.2-2.9
			c0-1.2,0.4-2.5,1-3.7s1.5-2.4,2.7-3.4c1-0.9,2.1-1.4,3.1-1.9c1.2-0.5,2.1-0.8,3.1-0.8s1.7,0.2,2.2,0.6s0.8,0.9,0.8,1.6
			c0,1.1-0.8,2.2-2.3,3c-1.5,0.9-4,1.8-7.4,2.6c0,0.1,0,0.2,0,0.3c-0.1,0.3-0.1,0.6-0.1,0.8c0,1.1,0.3,2.1,0.8,2.6
			c0.5,0.7,1.3,0.9,2.3,0.9c1.4,0,3.2-0.8,5.2-2.4s3.9-3.8,5.9-6.6L425.8,98.6z M411.6,102.3c2.1-0.6,3.7-1.4,5-2.6s2-2.4,2-3.5
			c0-0.4-0.1-0.6-0.3-0.8c-0.2-0.2-0.4-0.3-0.7-0.3c-1,0-2.1,0.7-3.3,2.1C413.2,98.7,412.2,100.4,411.6,102.3z"/>
		<path class="st3" d="M437.3,108.2l8.2-14.2c0.1-0.2,0.4-0.6,0.9-1.4l0.3-0.4c-1.2,0.7-2.6,1.3-4.1,2s-3.1,1.2-4.7,1.7l-0.1-0.4
			c2.5-0.7,4.9-1.5,7.2-2.7c2.3-1.2,4.5-2.6,6.8-4.4l0.4,0.3l-10.8,19l3.2-0.3l-0.1,0.4c-0.8,0.1-1.7,0.1-2.7,0.2
			C440.8,107.9,439.3,108,437.3,108.2z"/>
		<path class="st3" d="M443.4,109.2c0.3,2.1,1,3.7,2,4.8s2.2,1.7,3.8,1.7c2.6,0,5.3-1.3,8.2-4c2.9-2.6,5.7-6.5,8.4-11.5l-0.2-0.1
			c-0.9,1.2-1.8,2.2-2.8,2.8c-1,0.7-2,0.9-2.9,0.9c-1.2,0-2.1-0.4-2.9-1.1c-0.8-0.8-1.1-1.8-1.1-3.1c0-1.4,0.4-2.9,1.1-4.4
			c0.7-1.4,1.7-2.8,3-4c1-0.9,1.9-1.6,2.9-2.1s1.9-0.7,2.9-0.7c1.3,0,2.4,0.5,3.2,1.5c0.8,0.9,1.2,2.4,1.2,4.1
			c0,1.2-0.2,2.5-0.5,3.8c-0.4,1.3-1,2.6-1.7,4.1c-1,1.8-2.1,3.4-3.3,4.9c-1.2,1.5-2.7,2.9-4.2,4.2c-2,1.6-4.1,2.8-6.3,3.8
			c-2.2,0.9-4.3,1.3-6.2,1.3c-1.9,0-3.4-0.4-4.5-1.2c-1.2-0.9-1.7-1.9-1.7-3.1c0-0.7,0.2-1.2,0.5-1.7
			C442.3,109.6,442.8,109.3,443.4,109.2z M465.2,89c-0.5,0-1.1,0.2-1.6,0.5c-0.5,0.4-1.1,0.8-1.6,1.3c-1,1.1-1.7,2.6-2.3,4.2
			c-0.6,1.6-0.9,3.1-0.9,4.5c0,1.1,0.2,2.1,0.6,2.7c0.4,0.7,1.1,0.9,1.8,0.9c0.5,0,1.1-0.2,1.6-0.5c0.5-0.4,1.1-0.9,1.6-1.4
			c1-1.2,1.8-2.6,2.3-4.1s0.8-3.1,0.8-4.6c0-1-0.2-1.9-0.6-2.6C466.4,89.3,465.9,89,465.2,89z"/>
		<path class="st3" d="M472.3,103.1c0-1.8,0.4-3.6,1.4-5.4s2.3-3.6,4-5.2c1.3-1.3,2.8-2.3,4.2-2.9c1.4-0.7,2.8-1,4.1-1
			c1.4,0,2.6,0.5,3.4,1.3c0.8,0.9,1.2,2.1,1.2,3.6c0,2-0.5,3.9-1.5,5.9c-1,1.9-2.4,3.8-4.3,5.5c-1.3,1.2-2.7,2.2-4.1,2.8
			c-1.4,0.7-2.7,1-3.7,1c-1.4,0-2.6-0.5-3.4-1.4C472.8,106.1,472.3,104.8,472.3,103.1z M484.2,89.1c-0.9,0-1.9,0.5-2.9,1.3
			c-1.1,0.9-2.1,2.1-2.9,3.6c-0.8,1.4-1.4,2.8-1.9,4.4c-0.4,1.5-0.6,3-0.6,4.4c0,1.5,0.3,2.7,0.8,3.5s1.3,1.2,2.3,1.2s1.9-0.4,2.9-1
			c1-0.7,1.9-1.7,2.7-3c0.9-1.4,1.5-2.9,2.1-4.6c0.5-1.7,0.7-3.3,0.7-4.8s-0.3-2.6-0.8-3.5C486,89.5,485.2,89.1,484.2,89.1z"/>
		<path class="st3" d="M498,96.6c0.9-1.1,1.8-2,2.8-2.6c0.9-0.6,1.9-0.9,2.9-0.9c1.2,0,2.1,0.4,2.9,1.2c0.7,0.9,1.1,2,1.1,3.3
			s-0.4,2.6-1,4s-1.6,2.6-2.8,3.7c-1.1,0.9-2.1,1.7-3.2,2.3c-1.2,0.6-2.1,0.9-3,0.9c-1.3,0-2.3-0.5-3-1.4s-1.1-2.3-1.1-3.9
			c0-2.6,0.7-5.3,2.1-7.9s3.4-5.1,6-7.3c1.9-1.6,3.8-2.8,6.1-3.8c2.2-0.9,4.2-1.4,6-1.4c1.5,0,2.7,0.3,3.5,0.9
			c0.8,0.7,1.3,1.5,1.3,2.6c0,0.7-0.2,1.3-0.6,1.9c-0.4,0.6-1,0.9-1.7,1V89c0.1-0.7,0.2-1.1,0.2-1.5c0-1.2-0.4-2.3-1.2-3
			c-0.8-0.8-1.8-1.2-2.9-1.2c-2.1,0-4.3,1.1-6.8,3.5C502.9,89.2,500.5,92.4,498,96.6L498,96.6z M502.2,93.9c-0.5,0-1.1,0.2-1.6,0.6
			s-1.2,0.9-1.8,1.6c-1,1.1-1.7,2.4-2.2,3.9s-0.8,3-0.8,4.5c0,1.1,0.2,2.1,0.6,2.6c0.4,0.7,1,0.9,1.8,0.9c0.5,0,1.1-0.2,1.6-0.5
			s1.1-0.8,1.6-1.4c0.9-1,1.7-2.4,2.2-4.1c0.5-1.6,0.9-3.2,0.9-4.7c0-1.1-0.2-2-0.6-2.6C503.4,94.2,502.9,93.9,502.2,93.9z"/>
	</g>
</g>
</svg>
