<?xml version="1.0" encoding="utf-8"?>
<!-- Generator: Adobe Illustrator 17.0.0, SVG Export Plug-In . SVG Version: 6.00 Build 0)  -->
<!DOCTYPE svg PUBLIC "-//W3C//DTD SVG 1.1//EN" "http://www.w3.org/Graphics/SVG/1.1/DTD/svg11.dtd">
<svg version="1.1" id="Capa_1" xmlns="http://www.w3.org/2000/svg" xmlns:xlink="http://www.w3.org/1999/xlink" x="0px" y="0px"
	 width="220.4853px" height="39.5224px" viewBox="0 1.4785 220.4853 39.5224" enable-background="new 0 1.4785 220.4853 39.5224"
	 xml:space="preserve">
<g>
	<g>
		<circle fill="#014F98" cx="14.9201" cy="22.0269" r="14.9201"/>
	</g>
	<g>
		<g>
			<path fill="#FFFFFF" d="M4.0796,26.0622c0.7951,1.0516,2.0916,2.0813,3.8192,2.7652c4.1281,1.6341,4.4522,5.5208,3.3796,7.1579
				c-0.8334,1.2724-1.7396,1.9434-3.0402,1.8738c0,0-0.0333-0.012-0.0377-0.0132c0.0404,0.0132,0.0907,0.0406,0.1299,0.0524
				l4.0105,1.1471c0,0,0.0011,0,0.0019,0l-0.0017-0.0003c1.7845-0.9116,2.7934-2.03,3.1684-4.0964
				c0.6069-3.3412-1.3806-6.3992-5.0097-8.5925c-2.7215-1.6444-3.9158-2.7248-3.5787-4.5812
				c0.3032-1.6702,1.902-2.8183,4.3158-2.3804c2.0883,0.3797,3.5776,1.4175,4.3586,2.1339l1.5604-2.7853
				c-1.118-0.9698-2.9959-1.9821-5.2704-2.395c-1.668-0.303-3.1717-0.2078-4.4549,0.1933L4.0796,26.0622z"/>
			<path fill="#E51B68" d="M7.8989,28.8274c-0.3506-0.1389-0.6709-0.3005-0.9852-0.4651c-1.2355-0.6463-2.2003-1.4619-2.8341-2.3001
				l-0.1077,0.3034l-0.4148,1.1717l0.5245,0.7696l-0.9247,0.3607L3.14,28.714l-0.4759,1.3143l-1.55,4.2813
				c-0.0725,0.2005-0.0524,0.4072,0.0285,0.5898c0.0737,0.1666,0.1966,0.3136,0.3707,0.3994
				c1.2366,0.6116,6.4785,2.4728,6.6875,2.5469c0.0044,0.0014,0.0377,0.0132,0.0377,0.0132
				c1.3005,0.0694,2.2068-0.6015,3.0402-1.8738C12.351,34.3482,12.027,30.4614,7.8989,28.8274z"/>
			<path fill="#E51B68" d="M24.9393,16.3497l-1.2509-6.0084c-0.051-0.3355-0.1402-0.531-0.2655-0.6807
				C23.373,9.601,23.335,9.5275,23.264,9.4876L20.9657,8.676l0.0125-0.0098c-0.0409-0.202-0.121-0.3765-0.2317-0.5282
				c0.9645-0.6521,3.945-2.552,3.9306-5.0229c-0.0043-0.5757-0.2394-1.0172-0.7034-1.3142
				c-0.5103-0.3216-1.0188-0.4035-1.5123-0.2414c-1.1596,0.4158-1.9147,2.391-2.1992,3.0936
				C19.8589,5.645,19.5368,6.5988,19.1473,7.36c-0.0174,0.0415-0.0339,0.0814-0.0508,0.1223
				c-0.4973,0.039-0.7375,0.2585-0.7375,0.2585L18.3574,7.755l-0.2014-0.0711c0,0-3.0687-1.123-3.1668-1.1191
				c-0.2866-0.0117-0.5011,0.0705-0.8418,0.3747l-4.6296,3.9004c-0.0311,0.0193-0.0635,0.0387-0.0986,0.0588L7.42,16.5433
				c0.0033-0.0011,0.0076-0.0008,0.0109-0.0019c1.2832-0.401,2.7869-0.4962,4.4549-0.1933
				c1.6637,0.3021,3.1071,0.9272,4.2043,1.6195c0.4027,0.254,0.7659,0.5153,1.0661,0.7755l-1.5604,2.7853
				c-0.781-0.7164-2.2703-1.7542-4.3586-2.1339c-2.4137-0.438-4.0125,0.7102-4.3158,2.3804
				c-0.2817,1.5522,0.5713,2.5778,2.4282,3.8282c0.364,0.2451,0.7046,0.4834,1.1505,0.753
				c3.6291,2.1933,5.6166,5.2514,5.0097,8.5925c-0.375,2.0664-1.3838,3.1847-3.1684,4.0964l0.0017,0.0003l3.3897,1.1037
				c0.3994,0.1504,0.7772,0.0417,0.8889-0.2742l1.8556-5.2402l0.0331-0.0927l0.0466-0.1317l-0.4911-0.8626l0.8962-0.2809
				l0.1232-0.3476l5.0943-14.3851l0.739-2.0861l0.0233-0.0524L24.9393,16.3497z M19.3555,7.7661
				c0.1276,0.0098,0.2696,0.0369,0.4296,0.0974c0.1726,0.0653,0.3327,0.1296,0.4754,0.2476
				c-0.0398,0.0601-0.0991,0.1495-0.1699,0.2558L19.234,8.0645C19.2733,7.9671,19.3135,7.868,19.3555,7.7661z M20.494,8.3894
				c0.0258,0.0442,0.0504,0.0929,0.0741,0.1462l-0.1385-0.0489C20.4528,8.4517,20.4747,8.4186,20.494,8.3894z M20.4925,4.8491
				c0.6128-1.3044,0.9863-2.5808,2.0743-2.9527c0.3991-0.1303,0.8018-0.0613,1.2246,0.2058
				c0.3596,0.2308,0.5366,0.5631,0.5391,1.0151c0.0125,2.2443-2.9156,4.1755-3.8283,4.767
				c-0.2035-0.1626-0.4614-0.2828-0.773-0.3568c-0.0922-0.0191-0.1758-0.0285-0.2585-0.0369
				C19.8541,6.7323,20.0895,5.8401,20.4925,4.8491z M18.7318,7.8722c0.0537-0.0218,0.1339-0.0539,0.2364-0.0784
				c-0.0212,0.0522-0.0422,0.1039-0.0625,0.1546L18.716,7.8816L18.7318,7.8722z M19.0433,10.6995
				c-0.0084,0.0271-0.0158,0.0548-0.0267,0.0805c-0.0065,0.0168-0.016,0.0313-0.0234,0.0475
				c-0.1645,0.3257-0.5321,0.508-0.9046,0.4165c-0.0992-0.0244-0.1886-0.0679-0.2688-0.1228
				c-0.1582-0.1229-0.2713-0.2925-0.3199-0.4833c-0.0252-0.1429-0.0132-0.2912,0.0361-0.4371
				c0.1152-0.3247,0.4063-0.529,0.7287-0.5552c-0.0586,0.1668-0.0905,0.2627-0.0918,0.2659
				c-0.0306,0.0924,0.022,0.196,0.1093,0.2254c0.0916,0.0309,0.1893-0.0187,0.2196-0.1115c0.001-0.0033,0.0384-0.116,0.1079-0.3132
				c0.142,0.0701,0.2582,0.1757,0.3392,0.3063c-0.0521,0.0685-0.0978,0.1261-0.1316,0.1635
				c-0.0656,0.0719-0.0599,0.1839,0.0101,0.2503l0.0389,0.0277c0.0668,0.0346,0.1521,0.022,0.205-0.0377
				C19.0746,10.5144,19.0691,10.6071,19.0433,10.6995z"/>
		</g>
	</g>
	<g>
		<g>
			<g>
				<path fill="#014F98" d="M39.3857,13.8155l6.8922,18.4473h-4.1521l-1.2712-3.7709h-7.4289l-1.2711,3.7709h-4.2089l6.4121-17.2265
					c0.2826-0.8138,0.9039-1.2208,1.8643-1.2208C36.2221,13.8155,39.3857,13.8155,39.3857,13.8155z M34.4706,25.3722h5.2821
					l-2.6554-7.84L34.4706,25.3722z"/>
				<g>
					<path fill="#014F98" d="M59.9502,22.0643c-0.2878-2.0309-1.2454-3.3359-2.8791-3.9085
						c-2.7963-0.9496-5.141-0.3527-7.0618,1.7633v-4.2861c0-1.1936-0.6212-1.8175-1.8643-1.8175h-1.8927v18.4473h3.7568v-7.3517
						c0-2.1974,0.9603-3.9879,3.1918-3.9879c2.1467,0,3.1071,1.5733,3.1074,3.9877v7.3518h3.7286v-3.7521
						c-0.306-0.9531-0.4604-2.0708-0.4604-3.3555C59.5767,23.986,59.7024,22.9573,59.9502,22.0643z"/>
				</g>
				<g>
					<path fill="#014F98" d="M80.3519,17.9119c-4.1526,0-6.6275,1.5922-7.4124,4.789c0.1487,0.7365,0.2242,1.5536,0.2242,2.4541
						c0,1.3252-0.1664,2.4728-0.495,3.4451v3.6626h3.8135v-7.4604c0-2.0889,1.0453-3.1469,3.1355-3.1469h1.2712v-3.7437h-0.5369
						V17.9119z"/>
					<path fill="#014F98" d="M72.9395,22.7009c-0.6751-3.3466-2.8791-5.0061-6.5833-5.0061c-3.4612,0-5.5954,1.4496-6.4059,4.3696
						c-0.2478,0.8929-0.3735,1.9217-0.3735,3.0907c0,1.2847,0.1544,2.4024,0.4604,3.3555c0.87,2.7101,2.9753,4.0776,6.3191,4.0776
						c3.3065,0,5.417-1.3376,6.3125-3.988c0.3286-0.9724,0.495-2.1199,0.495-3.4451C73.1637,24.2547,73.088,23.4375,72.9395,22.7009
						z M66.3278,29.36c-1.9208,0-2.9095-1.4108-2.9377-4.2049c0-2.8482,0.9886-4.2863,2.9658-4.2864
						c1.9209,0,2.8812,1.3836,2.8812,4.1779C69.2091,27.8949,68.2486,29.36,66.3278,29.36z"/>
				</g>
				<path fill="#014F98" d="M80.461,24.8567c0.1131-4.639,2.6835-6.9448,7.6833-6.9448h0.5368v3.7437h-1.2712
					c-2.0902,0-3.1355,1.0581-3.1355,3.1469v7.4602h-3.8133L80.461,24.8567L80.461,24.8567z"/>
				<path fill="#014F98" d="M92.4933,21.6556h-3.757c0.4518-2.6585,2.401-3.9607,5.8472-3.9607c4.124,0,6.2144,1.3022,6.2991,3.9607
					v4.8831c0,3.9607-2.4859,5.7242-6.5252,5.9953c-3.5875,0.2714-6.0732-1.3292-6.0732-4.5033
					c0.0847-3.4453,2.6833-4.3678,6.4687-4.7204c1.6101-0.19,2.4293-0.6511,2.4293-1.4379
					c-0.0847-0.8138-0.8758-1.2208-2.4293-1.2208C93.4256,20.6519,92.6911,20.9774,92.4933,21.6556z M97.2389,26.3759v-1.3292
					c-0.8758,0.3527-1.8925,0.6511-2.9941,0.8681c-1.4973,0.2714-2.26,0.9494-2.26,2.0074
					c0.0847,1.1394,0.7062,1.6819,1.8927,1.6819C95.9677,29.6041,97.2389,28.4105,97.2389,26.3759z"/>
			</g>
			<g>
				<path fill="#014F98" d="M112.0645,25.4823c-0.394-0.3138-0.8516-0.5713-1.3609-0.7654c-0.4991-0.1897-1.011-0.3227-1.5-0.392
					l-2.282-0.4956c-0.2806-0.067-0.5931-0.1571-0.929-0.2678c-0.3239-0.1062-0.624-0.2419-0.8926-0.4037
					c-0.2554-0.1533-0.4695-0.3429-0.6365-0.5643c-0.1516-0.2009-0.2253-0.4454-0.2253-0.7475c0-0.3732,0.0836-0.6862,0.2484-0.9308
					c0.1723-0.2554,0.4038-0.4659,0.6873-0.6248c0.298-0.1668,0.6304-0.2878,0.9884-0.3597c0.8438-0.17,1.6842-0.1409,2.4115,0.0482
					c0.3976,0.1039,0.7532,0.2684,1.0564,0.4885c0.2969,0.2162,0.5376,0.4945,0.7153,0.8265
					c0.1768,0.3333,0.2751,0.7338,0.2918,1.1906l0.0106,0.2899h2.322l-0.0158-0.3156c-0.0387-0.7714-0.2053-1.454-0.495-2.0295
					c-0.2915-0.5784-0.6904-1.0699-1.1851-1.461c-0.4918-0.3888-1.0673-0.6795-1.7107-0.8644
					c-1.1847-0.3389-2.5989-0.3659-3.9888-0.0563c-0.6551,0.1459-1.2567,0.3773-1.7884,0.6876
					c-0.5467,0.3188-0.9977,0.7473-1.3398,1.2731c-0.3486,0.5355-0.5253,1.1804-0.5253,1.9161c0,0.6208,0.1119,1.1551,0.3324,1.5888
					c0.2196,0.4311,0.5279,0.8002,0.9158,1.0958c0.3735,0.286,0.8157,0.5288,1.3134,0.722c0.4833,0.1876,1.018,0.3541,1.5984,0.4971
					l2.2018,0.4701c0.3694,0.0849,0.7411,0.1879,1.1039,0.3068c0.347,0.1139,0.6592,0.2575,0.9272,0.4264
					c0.251,0.1586,0.4537,0.3564,0.6016,0.5879c0.1404,0.2199,0.2118,0.5041,0.2118,0.8454c0,0.4067-0.1004,0.7367-0.3068,1.0086
					c-0.2175,0.2866-0.5018,0.5277-0.8444,0.7159c-0.353,0.1936-0.7405,0.3324-1.153,0.4132
					c-0.422,0.0831-0.8376,0.1251-1.2355,0.1251c-1.0738,0-1.9807-0.2663-2.6957-0.7919c-0.7032-0.5155-1.0776-1.2684-1.1445-2.3014
					l-0.0182-0.2813h-2.326l0.0288,0.3268c0.1526,1.7396,0.7846,3.0272,1.8789,3.8267c1.0732,0.7849,2.4848,1.1827,4.1952,1.1827
					c0.6686,0,1.358-0.0725,2.0495-0.2155c0.7029-0.1465,1.3439-0.3922,1.9049-0.7302c0.5715-0.3439,1.0476-0.7966,1.4159-1.3456
					c0.3771-0.5625,0.5684-1.2482,0.5684-2.0377c0-0.6401-0.1316-1.2077-0.3909-1.6866
					C112.7997,26.2037,112.4667,25.8029,112.0645,25.4823z"/>
				<path fill="#014F98" d="M124.4555,27.4989c-0.2561,0.983-0.72,1.7775-1.3788,2.3619c-0.6486,0.5746-1.5711,0.8662-2.7424,0.8662
					c-0.761,0-1.4167-0.1539-1.9485-0.4574c-0.5427-0.3092-0.9977-0.7044-1.3523-1.1753c-0.3564-0.4721-0.619-1.0141-0.7807-1.6116
					c-0.136-0.4997-0.2164-0.991-0.2408-1.4642h10.7945l0.0112-0.2892c0.0369-0.9648-0.0573-1.9293-0.2804-2.8671
					c-0.2255-0.9477-0.6034-1.8013-1.1228-2.5369c-0.5241-0.7402-1.2132-1.3471-2.0492-1.8034
					c-0.8412-0.4584-1.861-0.6909-3.0311-0.6909c-1.1493,0-2.1619,0.2178-3.0098,0.6474c-0.8454,0.429-1.5444,1.0037-2.0782,1.7082
					c-0.5279,0.6974-0.9249,1.5007-1.1797,2.3877c-0.2516,0.8779-0.379,1.786-0.379,2.6989c0,0.9822,0.1274,1.9293,0.3787,2.8157
					c0.2551,0.8973,0.653,1.6975,1.1823,2.3783c0.5358,0.6888,1.2373,1.2376,2.0853,1.6311
					c0.8444,0.3917,1.8538,0.5905,3.0005,0.5905c1.8452,0,3.2994-0.4472,4.3229-1.3286c1.0154-0.8752,1.7211-2.1255,2.0979-3.7161
					l0.0878-0.3699h-2.329L124.4555,27.4989z M124.4831,24.0304h-8.4324c0.0792-0.4683,0.2076-0.9319,0.3826-1.3821
					c0.2137-0.5497,0.5033-1.04,0.8602-1.4566c0.3538-0.4122,0.7896-0.7485,1.2949-0.9991
					c0.5004-0.2481,1.0875-0.3738,1.7458-0.3738c0.6398,0,1.2179,0.1256,1.7183,0.3738c0.5062,0.2513,0.9419,0.5876,1.2946,0.9988
					c0.3553,0.4148,0.6351,0.8985,0.8309,1.4372C124.34,23.0758,124.4426,23.5462,124.4831,24.0304z"/>
				<path fill="#014F98" d="M137.7648,19.8722c-0.0708-0.0908-0.1459-0.1803-0.2255-0.2681
					c-0.3151-0.3483-0.678-0.6595-1.0782-0.9248c-0.4041-0.2681-0.8568-0.4789-1.346-0.626
					c-0.4898-0.1477-1.0185-0.2225-1.5711-0.2225c-1.0546,0-2.008,0.1894-2.834,0.5632c-0.8259,0.374-1.5298,0.8929-2.0918,1.5421
					c-0.5584,0.6453-0.9904,1.4094-1.2835,2.2711c-0.2904,0.8562-0.4378,1.7732-0.4378,2.7256c0,0.9833,0.1228,1.9215,0.365,2.7879
					c0.2455,0.8817,0.6454,1.6627,1.1883,2.321c0.5453,0.6616,1.2464,1.1867,2.0838,1.5615
					c0.8342,0.3732,1.8468,0.5622,3.0099,0.5622c1.0902,0,2.0574-0.272,2.8748-0.808c0.5297-0.347,0.9798-0.7722,1.346-1.2698
					v0.8353c0,1.5609-0.3348,2.7648-0.9951,3.5775c-0.645,0.7942-1.7305,1.1971-3.2257,1.1971c-0.4478,0-0.894-0.0464-1.3266-0.1378
					c-0.4234-0.0893-0.8119-0.2326-1.1545-0.4257c-0.3356-0.1885-0.626-0.4392-0.8627-0.7457
					c-0.2323-0.2998-0.3914-0.6824-0.473-1.1378l-0.0444-0.2476h-2.2922l0.0247,0.3236c0.0584,0.7649,0.2822,1.4351,0.6653,1.9919
					c0.3764,0.5467,0.8556,1.0021,1.424,1.3539c0.5614,0.347,1.2009,0.606,1.9009,0.7693c0.6904,0.1615,1.4097,0.2434,2.1385,0.2434
					c1.1742,0,2.1857-0.1562,3.0067-0.4639c0.8332-0.3133,1.5197-0.7725,2.0404-1.3647c0.517-0.589,0.9002-1.3146,1.1389-2.1569
					c0.2337-0.8265,0.3523-1.7606,0.3523-2.7765V18.2233h-2.3176L137.7648,19.8722L137.7648,19.8722z M136.7806,21.4906
					c0.3421,0.5092,0.5937,1.0844,0.7478,1.7092c0.1568,0.6359,0.2364,1.2804,0.2364,1.9158c0,0.6486-0.0922,1.2887-0.2736,1.9029
					c-0.1788,0.606-0.4506,1.1495-0.8083,1.6155c-0.3532,0.461-0.7977,0.8386-1.3209,1.1221
					c-0.5153,0.2795-1.1268,0.4213-1.8177,0.4213c-0.747,0-1.3961-0.1425-1.9306-0.4234c-0.5388-0.2822-0.991-0.6592-1.3448-1.1202
					c-0.3564-0.4651-0.6237-1.0074-0.7934-1.6119c-0.1732-0.6149-0.2611-1.2563-0.2611-1.9065c0-0.67,0.084-1.3357,0.2496-1.9784
					c0.1622-0.631,0.4252-1.1994,0.7825-1.6895c0.353-0.4851,0.8059-0.883,1.3463-1.183c0.5334-0.2959,1.19-0.446,1.9514-0.446
					c0.7593,0,1.4097,0.1536,1.9329,0.4566C136.0064,20.5821,136.445,20.9909,136.7806,21.4906z"/>
				<path fill="#014F98" d="M151.4929,25.6129c0,0.6518-0.0795,1.3007-0.2364,1.9279c-0.1544,0.6169-0.3964,1.1698-0.7193,1.6433
					c-0.318,0.4662-0.7249,0.8448-1.2097,1.1254c-0.4771,0.2769-1.0681,0.4172-1.7561,0.4172c-1.2658,0-2.1566-0.2827-2.6478-0.84
					c-0.5038-0.5713-0.7763-1.4402-0.8101-2.5738v-9.0899h-2.3171v9.0637c0,0.8283,0.0958,1.5781,0.2842,2.2286
					c0.1929,0.6689,0.5035,1.2449,0.9225,1.7126c0.4213,0.4706,0.9742,0.8368,1.644,1.0881
					c0.658,0.2469,1.4587,0.3723,2.3801,0.3723c1.099,0,2.1149-0.2549,3.0196-0.7573c0.6274-0.3491,1.1568-0.8093,1.5823-1.3738
					v1.7647h2.1813V18.2233h-2.3171v7.3898C151.493,25.6129,151.4929,25.6129,151.4929,25.6129z"/>
				<path fill="#014F98" d="M162.7561,20.2891l0.3138,0.0138v-2.2506l-0.2883-0.0117c-1.3315-0.0543-2.492,0.2341-3.4573,0.8586
					c-0.6539,0.4228-1.1958,0.9721-1.6196,1.6401v-2.316h-2.1813v14.0989h2.3176v-7.4942c0-0.672,0.1201-1.2972,0.3574-1.858
					c0.2363-0.5593,0.5744-1.0488,1.0045-1.4543c0.4325-0.4064,0.9531-0.7241,1.547-0.9443
					C161.3444,20.3514,162.0187,20.2574,162.7561,20.2891z"/>
				<path fill="#014F98" d="M174.0814,20.0524c-0.5887-0.6738-1.3234-1.2184-2.1836-1.6181
					c-0.8635-0.4005-1.8636-0.6037-2.9729-0.6037c-1.1099,0-2.1099,0.2032-2.9729,0.6037
					c-0.8612,0.3999-1.5958,0.9443-2.1837,1.6184c-0.5866,0.6723-1.037,1.4681-1.3383,2.3643
					c-0.2998,0.8905-0.4519,1.8515-0.4519,2.856c0,1.0048,0.1521,1.9654,0.4516,2.8551c0.3016,0.897,0.7519,1.6928,1.3386,2.3645
					c0.5884,0.6753,1.324,1.2158,2.186,1.6064c0.8615,0.3914,1.861,0.5895,2.9706,0.5895c1.109,0,2.1084-0.1982,2.9706-0.5892
					c0.8615-0.3909,1.597-0.9313,2.1863-1.6067c0.5858-0.6715,1.0362-1.467,1.3383-2.3643
					c0.2995-0.8903,0.4513-1.8509,0.4513-2.8554c0-1.0042-0.1518-1.9651-0.4516-2.856
					C175.1179,21.5202,174.6675,20.7249,174.0814,20.0524z M173.5544,25.2729c0,0.6806-0.101,1.3598-0.3003,2.0183
					c-0.1985,0.6536-0.4939,1.2423-0.8783,1.7502c-0.3802,0.5033-0.8653,0.9152-1.4414,1.2244
					c-0.5699,0.306-1.2461,0.461-2.0095,0.461c-0.7639,0-1.4401-0.155-2.0098-0.461c-0.5755-0.3089-1.0605-0.7208-1.4411-1.2246
					c-0.3855-0.5097-0.6809-1.0984-0.8779-1.7499c-0.1994-0.6559-0.3003-1.3351-0.3003-2.0183c0-0.6835,0.101-1.3627,0.3003-2.0186
					c0.197-0.6507,0.4924-1.2396,0.8779-1.7499c0.3808-0.5038,0.8656-0.9155,1.4411-1.2244
					c0.5705-0.306,1.2467-0.4613,2.0098-0.4613c0.7626,0,1.4387,0.1553,2.0095,0.4613c0.576,0.3092,1.0608,0.7211,1.4414,1.2241
					c0.3844,0.5088,0.68,1.0976,0.8783,1.7502C173.4533,23.9129,173.5544,24.5921,173.5544,25.2729z"/>
				<path fill="#014F98" d="M187.7381,26.6732c-0.2536-0.469-0.5866-0.8697-0.9895-1.1909
					c-0.3937-0.3136-0.8513-0.5711-1.3609-0.7654c-0.4994-0.1897-1.0112-0.3227-1.4998-0.392l-2.2823-0.4956
					c-0.2793-0.0667-0.5916-0.1565-0.929-0.2678c-0.3232-0.1059-0.6234-0.2416-0.8929-0.4037
					c-0.2554-0.1533-0.4695-0.3429-0.6362-0.5643c-0.1518-0.2009-0.2255-0.4454-0.2255-0.7475c0-0.3729,0.0836-0.6858,0.2489-0.9308
					c0.1718-0.2554,0.4028-0.4657,0.6868-0.6248c0.2983-0.1671,0.631-0.2881,0.9886-0.3597
					c0.8447-0.1697,1.6845-0.1407,2.4115,0.0482c0.3976,0.1039,0.7532,0.2684,1.0564,0.4885
					c0.2972,0.2162,0.5376,0.4942,0.715,0.8269c0.177,0.3327,0.2754,0.7335,0.2922,1.1903l0.0106,0.2899h2.3214l-0.0156-0.3156
					c-0.0384-0.7719-0.2048-1.4546-0.4947-2.0295c-0.2915-0.5784-0.6904-1.0699-1.1851-1.461
					c-0.4918-0.3888-1.0673-0.6795-1.7107-0.8644c-1.1841-0.3385-2.5976-0.3662-3.9891-0.0563
					c-0.6539,0.1459-1.2558,0.3774-1.7884,0.6879c-0.5472,0.3192-0.998,0.7475-1.3391,1.2726
					c-0.3486,0.5352-0.5253,1.18-0.5253,1.9164c0,0.6219,0.1119,1.1566,0.332,1.5885c0.2193,0.4314,0.5279,0.8004,0.916,1.0961
					c0.3738,0.286,0.8153,0.5292,1.3131,0.722c0.4836,0.1876,1.0182,0.3541,1.5984,0.4971l2.2018,0.4701
					c0.3685,0.0846,0.7398,0.1879,1.1037,0.3068c0.3483,0.1145,0.6603,0.2578,0.9272,0.4264
					c0.2513,0.1588,0.4539,0.3564,0.6019,0.5879c0.1404,0.2199,0.2115,0.5044,0.2115,0.8454c0,0.407-0.1001,0.7369-0.3063,1.0086
					c-0.2182,0.2868-0.5027,0.5279-0.8451,0.7159c-0.3523,0.1932-0.7402,0.3324-1.153,0.4132
					c-0.4216,0.0831-0.8371,0.1251-1.2352,0.1251c-1.0738,0-1.9807-0.2663-2.6957-0.7919
					c-0.7032-0.5155-1.0776-1.2684-1.1443-2.3014l-0.0182-0.2813h-2.3264l0.0288,0.3268c0.1521,1.7396,0.7846,3.0272,1.8789,3.8267
					c1.0731,0.7849,2.4845,1.1828,4.1949,1.1828c0.6689,0,1.3583-0.0725,2.0495-0.2155c0.7026-0.1462,1.3437-0.392,1.9052-0.7302
					c0.5717-0.3441,1.0479-0.7969,1.4158-1.3456c0.3771-0.5622,0.5682-1.2479,0.5682-2.0377
					C188.1284,27.7187,187.9971,27.1515,187.7381,26.6732z"/>
			</g>
			<g>
				<path fill="#014F98" d="M191.5424,28.9366c0.4924,0,0.9018,0.1465,1.2281,0.4388c0.3264,0.2925,0.4893,0.6665,0.4893,1.1221
					c0,0.4556-0.163,0.8298-0.4893,1.1221c-0.3264,0.2923-0.7358,0.4388-1.2281,0.4388c-0.499,0-0.9098-0.1478-1.2329-0.4433
					c-0.3233-0.2955-0.4851-0.6682-0.4851-1.1176c0-0.4494,0.1617-0.8221,0.4851-1.1176
					C190.6326,29.0844,191.0436,28.9366,191.5424,28.9366z"/>
				<path fill="#014F98" d="M198.2748,21.9642l0.1017,1.1727c0.708-0.9049,1.6592-1.3574,2.8535-1.3574
					c1.2621,0,2.1149,0.5019,2.5582,1.5051c0.6771-1.0034,1.6561-1.5051,2.9368-1.5051c2.0255,0,3.066,1.2252,3.1214,3.6756v6.5015
					h-3.1214v-6.3076c0-0.5107-0.0863-0.8834-0.2586-1.1173c-0.1725-0.2339-0.4863-0.3509-0.9421-0.3509
					c-0.6157,0-1.0745,0.274-1.3762,0.8221l0.0094,0.1291v6.8248h-3.1214v-6.289c0-0.5234-0.0829-0.9021-0.2495-1.136
					c-0.166-0.2339-0.4832-0.3509-0.9512-0.3509c-0.5972,0-1.0528,0.274-1.3668,0.8221v6.9539h-3.1123v-9.9924
					C195.3563,21.9642,198.2748,21.9642,198.2748,21.9642z"/>
				<path fill="#014F98" d="M215.6737,24.7163l1.45-2.7521h3.2322l-2.6318,4.8668l2.7612,5.1256h-3.2508l-1.57-2.9553
					l-1.5423,2.9553h-3.269l2.7706-5.1256l-2.6227-4.8668h3.269L215.6737,24.7163z"/>
			</g>
		</g>
		<g>
			<path fill="#1C374C" d="M148.0845,35.1362h-1.581v4.3885h-0.6453v-4.3885h-1.5777V34.606h3.8042v0.5303H148.0845z"/>
			<path fill="#1C374C" d="M150.5826,39.1631c-0.2433,0.2861-0.6003,0.4292-1.0707,0.4292c-0.3898,0-0.6865-0.1132-0.8903-0.3395
				c-0.204-0.2265-0.3069-0.5613-0.3092-1.0052v-2.3782h0.6248v2.3612c0,0.5541,0.2254,0.8313,0.6756,0.8313
				c0.4775,0,0.7951-0.1781,0.953-0.5341v-2.6585h0.6248v3.6553h-0.5946L150.5826,39.1631z"/>
			<path fill="#1C374C" d="M155.8427,38.555c0-0.1686-0.0638-0.3001-0.1908-0.3935c-0.1273-0.0933-0.3491-0.174-0.6657-0.2416
				c-0.3165-0.0675-0.5675-0.1487-0.7532-0.2432c-0.186-0.0946-0.3232-0.2071-0.4122-0.3378
				c-0.0891-0.1306-0.1335-0.286-0.1335-0.4659c0-0.2996,0.1268-0.553,0.38-0.7602c0.2535-0.2073,0.5773-0.3108,0.9713-0.3108
				c0.4143,0,0.7504,0.107,1.0083,0.3209c0.2578,0.2141,0.3867,0.4877,0.3867,0.821h-0.6281c0-0.1711-0.0726-0.3187-0.2181-0.4427
				c-0.1451-0.1237-0.328-0.1856-0.5489-0.1856c-0.2276,0-0.4055,0.0495-0.5337,0.1487c-0.1284,0.0992-0.1927,0.2286-0.1927,0.3884
				c0,0.151,0.0598,0.2649,0.1792,0.3414c0.1194,0.0765,0.3349,0.1498,0.647,0.2197c0.3118,0.0697,0.5646,0.1529,0.7583,0.2498
				c0.1937,0.097,0.3372,0.2135,0.4308,0.3497c0.0933,0.1365,0.1402,0.3024,0.1402,0.4983c0,0.3265-0.1309,0.5883-0.3918,0.7854
				c-0.2613,0.1973-0.6003,0.2957-1.017,0.2957c-0.2928,0-0.5519-0.0519-0.777-0.1554c-0.2251-0.1035-0.4016-0.2483-0.5286-0.434
				c-0.1273-0.186-0.1908-0.3867-0.1908-0.603h0.6248c0.0113,0.2091,0.0952,0.3754,0.2516,0.4982
				c0.1565,0.1229,0.3632,0.1841,0.6199,0.1841c0.2364,0,0.4261-0.0475,0.5691-0.1436
				C155.7712,38.8428,155.8427,38.7149,155.8427,38.555z"/>
			<path fill="#1C374C" d="M158.7294,39.5923c-0.4954,0-0.8983-0.1627-1.2091-0.4881s-0.4665-0.7608-0.4665-1.3059v-0.1146
				c0-0.3627,0.0694-0.6865,0.2079-0.9714c0.1386-0.2848,0.3322-0.5078,0.581-0.6689c0.249-0.1612,0.5187-0.2416,0.8091-0.2416
				c0.4752,0,0.8445,0.1565,1.1081,0.4695c0.2634,0.3132,0.3953,0.7613,0.3953,1.3448v0.26h-2.4764
				c0.009,0.3603,0.1143,0.6516,0.3159,0.8732c0.2013,0.2219,0.4578,0.3327,0.7686,0.3327c0.2206,0,0.4075-0.0449,0.5606-0.1352
				c0.1532-0.09,0.2872-0.2091,0.4021-0.3578l0.3816,0.2973C159.8015,39.3568,159.342,39.5923,158.7294,39.5923z M158.6518,36.3154
				c-0.2521,0-0.464,0.0919-0.6351,0.2754s-0.2771,0.4409-0.3176,0.7719h1.8309v-0.0474c-0.018-0.3176-0.1035-0.5635-0.2567-0.738
				C159.1202,36.4028,158.9131,36.3154,158.6518,36.3154z"/>
			<path fill="#1C374C" d="M160.66,37.6668c0-0.5698,0.1319-1.0229,0.3951-1.3596c0.2638-0.3367,0.6127-0.5052,1.0475-0.5052
				c0.446,0,0.7937,0.1576,1.0437,0.473l0.0303-0.4053h0.5711v3.5674c0,0.473-0.1403,0.8456-0.4205,1.1181
				c-0.2805,0.2726-0.657,0.4089-1.13,0.4089c-0.2637,0-0.5216-0.0562-0.7737-0.1689c-0.2521-0.1127-0.4449-0.267-0.5775-0.4626
				l0.3243-0.3751c0.2678,0.3311,0.5956,0.4967,0.983,0.4967c0.3041,0,0.541-0.0857,0.711-0.2568
				c0.17-0.1714,0.2552-0.4123,0.2552-0.7232v-0.3141c-0.2499,0.2883-0.5913,0.4325-1.0238,0.4325
				c-0.4278,0-0.7741-0.1725-1.0387-0.5166C160.7923,38.7306,160.66,38.2613,160.66,37.6668z M161.2884,37.7377
				c0,0.4119,0.0846,0.7358,0.2532,0.971c0.1692,0.2353,0.4055,0.3532,0.7096,0.3532c0.394,0,0.6835-0.1791,0.8681-0.5373v-1.6688
				c-0.1914-0.3492-0.4786-0.5234-0.8616-0.5234c-0.3038,0-0.5416,0.1181-0.7127,0.3545
				C161.3741,36.9235,161.2884,37.2737,161.2884,37.7377z"/>
			<path fill="#1C374C" d="M166.8777,39.1631c-0.2433,0.2861-0.6003,0.4292-1.0707,0.4292c-0.3897,0-0.6865-0.1132-0.8903-0.3395
				c-0.204-0.2265-0.3069-0.5613-0.3092-1.0052v-2.3782h0.6248v2.3612c0,0.5541,0.2254,0.8313,0.6756,0.8313
				c0.4775,0,0.7951-0.1781,0.953-0.5341v-2.6585h0.6248v3.6553h-0.5945L166.8777,39.1631z"/>
			<path fill="#1C374C" d="M170.1327,36.4302c-0.0945-0.0156-0.1973-0.0238-0.3075-0.0238c-0.41,0-0.688,0.1747-0.8345,0.5238
				v2.5945h-0.6248v-3.6553h0.6081l0.0103,0.4224c0.2049-0.3268,0.4954-0.4899,0.8713-0.4899c0.1217,0,0.2141,0.0157,0.2773,0.0474
				L170.1327,36.4302L170.1327,36.4302L170.1327,36.4302z"/>
			<path fill="#1C374C" d="M170.4045,37.6632c0-0.3578,0.0703-0.68,0.2111-0.9659c0.1405-0.2861,0.3364-0.507,0.5879-0.6621
				c0.251-0.1557,0.5376-0.2332,0.8597-0.2332c0.4979,0,0.9002,0.1722,1.2078,0.517c0.3072,0.3443,0.461,0.8026,0.461,1.3748v0.0441
				c0,0.3557-0.0682,0.6751-0.2043,0.9575c-0.1365,0.2827-0.3311,0.503-0.5846,0.6606c-0.2532,0.1575-0.5443,0.2364-0.8732,0.2364
				c-0.4954,0-0.897-0.1725-1.2043-0.5166c-0.3075-0.3448-0.461-0.8007-0.461-1.3683v-0.0442H170.4045z M171.0326,37.7377
				c0,0.4055,0.0939,0.7307,0.2822,0.9761c0.188,0.2455,0.4398,0.3681,0.7551,0.3681c0.3176,0,0.5697-0.1244,0.7568-0.3732
				c0.1871-0.2487,0.2805-0.5972,0.2805-1.0457c0-0.4008-0.0955-0.7256-0.2856-0.9746c-0.1903-0.2487-0.4429-0.3732-0.7583-0.3732
				c-0.3086,0-0.5576,0.1226-0.7467,0.3684C171.1272,36.9292,171.0326,37.2805,171.0326,37.7377z"/>
			<path fill="#1C374C" d="M178.3469,39.5247c-0.0359-0.0722-0.0654-0.2006-0.0878-0.3852
				c-0.2906,0.302-0.6373,0.4527-1.0406,0.4527c-0.3603,0-0.6559-0.1019-0.8867-0.3057c-0.231-0.2038-0.3465-0.4624-0.3465-0.7754
				c0-0.3805,0.1448-0.6762,0.4344-0.8867c0.2892-0.2105,0.6964-0.3159,1.2213-0.3159h0.6081v-0.287
				c0-0.2186-0.0654-0.3924-0.1962-0.5221c-0.1305-0.1295-0.3229-0.1941-0.5775-0.1941c-0.2229,0-0.41,0.0562-0.5607,0.1686
				c-0.1508,0.1127-0.2265,0.2489-0.2265,0.4089h-0.6281c0-0.1824,0.0646-0.3586,0.1941-0.5286
				c0.1294-0.17,0.3051-0.3046,0.527-0.4038c0.2218-0.0992,0.4657-0.1487,0.7313-0.1487c0.4213,0,0.7513,0.1054,0.99,0.3159
				c0.2386,0.2105,0.3627,0.5005,0.3716,0.8697V38.67c0,0.3353,0.0427,0.6025,0.1284,0.8004v0.0541L178.3469,39.5247
				L178.3469,39.5247z M177.3096,39.0485c0.1962,0,0.3819-0.0508,0.5575-0.1522c0.1757-0.1014,0.3029-0.2332,0.3819-0.3954v-0.7497
				h-0.4899c-0.7656,0-1.1486,0.224-1.1486,0.6722c0,0.1959,0.0654,0.3491,0.1959,0.4595
				C176.937,38.9931,177.1048,39.0485,177.3096,39.0485z"/>
			<path fill="#1C374C" d="M180.4635,39.5247h-0.6248v-5.1889h0.6248V39.5247z"/>
			<path fill="#1C374C" d="M183.6258,35.8694l0.0171,0.4053c0.2678-0.3154,0.6295-0.473,1.0843-0.473
				c0.5114,0,0.8591,0.196,1.0437,0.5879c0.1217-0.1757,0.28-0.3176,0.4749-0.4257c0.1945-0.108,0.4252-0.1622,0.6908-0.1622
				c0.8018,0,1.2095,0.4246,1.2229,1.2738v2.4491h-0.6248v-2.4121c0-0.2613-0.0598-0.4564-0.1792-0.5862
				c-0.1194-0.1294-0.3198-0.194-0.6013-0.194c-0.2319,0-0.4246,0.0692-0.5778,0.2075c-0.1529,0.1387-0.2418,0.3249-0.2667,0.5592
				v2.4256h-0.6284v-2.395c0-0.5317-0.26-0.7973-0.7805-0.7973c-0.4097,0-0.6902,0.1743-0.8411,0.5235v2.6689h-0.6248v-3.6553
				L183.6258,35.8694L183.6258,35.8694z"/>
			<path fill="#1C374C" d="M190.5495,39.5923c-0.4954,0-0.8984-0.1627-1.2091-0.4881c-0.3108-0.3254-0.4665-0.7608-0.4665-1.3059
				v-0.1146c0-0.3627,0.0694-0.6865,0.2079-0.9714c0.1386-0.2848,0.3322-0.5078,0.581-0.6689
				c0.2489-0.1612,0.5186-0.2416,0.8091-0.2416c0.475,0,0.8445,0.1565,1.1081,0.4695c0.2635,0.3132,0.3954,0.7613,0.3954,1.3448
				v0.26h-2.4764c0.0089,0.3603,0.1143,0.6516,0.3159,0.8732c0.2013,0.2219,0.4578,0.3327,0.7686,0.3327
				c0.2206,0,0.4075-0.0449,0.5606-0.1352c0.1532-0.09,0.2874-0.2091,0.4021-0.3578l0.3816,0.2973
				C191.6217,39.3568,191.1622,39.5923,190.5495,39.5923z M190.472,36.3154c-0.2521,0-0.464,0.0919-0.6351,0.2754
				s-0.277,0.4409-0.3176,0.7719h1.8309v-0.0474c-0.0181-0.3176-0.1035-0.5635-0.2568-0.738
				C190.9404,36.4028,190.7333,36.3154,190.472,36.3154z"/>
			<path fill="#1C374C" d="M193.2744,35.8694v4.0774c0,0.7026-0.319,1.0541-0.9563,1.0541c-0.1372,0-0.2645-0.0201-0.3816-0.0602
				v-0.4971c0.0719,0.0182,0.1664,0.027,0.2838,0.027c0.1394,0,0.2459-0.0377,0.3192-0.1132
				c0.073-0.0754,0.1098-0.2067,0.1098-0.3937v-4.0941h0.6251V35.8694z M192.5852,34.9001c0-0.0992,0.0309-0.1843,0.0927-0.2551
				c0.0619-0.0711,0.1526-0.1065,0.2721-0.1065c0.1217,0,0.2138,0.0349,0.2768,0.1048c0.0632,0.0697,0.0945,0.1551,0.0945,0.2567
				c0,0.1011-0.0313,0.1857-0.0945,0.2532c-0.063,0.0675-0.1551,0.1014-0.2768,0.1014s-0.213-0.0339-0.2738-0.1014
				C192.6155,35.0858,192.5852,35.0011,192.5852,34.9001z"/>
			<path fill="#1C374C" d="M194.0461,37.6632c0-0.3578,0.0703-0.68,0.2111-0.9659c0.1405-0.2861,0.3364-0.507,0.5879-0.6621
				c0.251-0.1557,0.5376-0.2332,0.8597-0.2332c0.4979,0,0.9002,0.1722,1.2078,0.517c0.3072,0.3443,0.461,0.8026,0.461,1.3748v0.0441
				c0,0.3557-0.0682,0.6751-0.2043,0.9575c-0.1365,0.2827-0.3311,0.503-0.5846,0.6606c-0.2532,0.1575-0.5443,0.2364-0.8732,0.2364
				c-0.4954,0-0.897-0.1725-1.2042-0.5166c-0.3075-0.3448-0.461-0.8007-0.461-1.3683v-0.0442H194.0461z M194.6742,37.7377
				c0,0.4055,0.094,0.7307,0.2822,0.9761c0.1881,0.2455,0.4398,0.3681,0.7551,0.3681c0.3176,0,0.5697-0.1244,0.7568-0.3732
				c0.1871-0.2487,0.2805-0.5972,0.2805-1.0457c0-0.4008-0.0953-0.7256-0.2856-0.9746c-0.1903-0.2487-0.4429-0.3732-0.7583-0.3732
				c-0.3086,0-0.5575,0.1226-0.7467,0.3684C194.7689,36.9292,194.6742,37.2805,194.6742,37.7377z"/>
			<path fill="#1C374C" d="M199.8552,36.4302c-0.0945-0.0156-0.1973-0.0238-0.3075-0.0238c-0.41,0-0.688,0.1747-0.8345,0.5238
				v2.5945h-0.6248v-3.6553h0.6081l0.0102,0.4224c0.2049-0.3268,0.4954-0.4899,0.8713-0.4899c0.1217,0,0.2141,0.0157,0.2773,0.0474
				L199.8552,36.4302L199.8552,36.4302L199.8552,36.4302z"/>
			<path fill="#1C374C" d="M205.0914,37.7377c0,0.5562-0.1273,1.0042-0.3819,1.3442c-0.2543,0.3403-0.5989,0.5102-1.0336,0.5102
				c-0.4437,0-0.793-0.1408-1.0475-0.4221v1.76h-0.6248v-5.0605h0.5708l0.0306,0.4053c0.2546-0.3154,0.6081-0.473,1.0608-0.473
				c0.4392,0,0.7864,0.1656,1.0421,0.4965c0.2557,0.3313,0.3836,0.7918,0.3836,1.3818L205.0914,37.7377L205.0914,37.7377
				L205.0914,37.7377z M204.4662,37.6668c0-0.4122-0.0876-0.7376-0.2633-0.9765c-0.1757-0.2386-0.4168-0.3578-0.7232-0.3578
				c-0.3783,0-0.6621,0.1675-0.8513,0.5031v1.7465c0.1871,0.3334,0.473,0.5,0.8583,0.5c0.2994,0,0.5376-0.1186,0.7143-0.3563
				C204.3779,38.4883,204.4662,38.1351,204.4662,37.6668z"/>
			<path fill="#1C374C" d="M207.5829,36.4302c-0.0946-0.0156-0.1973-0.0238-0.3075-0.0238c-0.41,0-0.6882,0.1747-0.8346,0.5238
				v2.5945h-0.6248v-3.6553h0.6081l0.0102,0.4224c0.2049-0.3268,0.4954-0.4899,0.8713-0.4899c0.1217,0,0.2141,0.0157,0.2773,0.0474
				L207.5829,36.4302L207.5829,36.4302z"/>
			<path fill="#1C374C" d="M209.5404,39.5923c-0.4954,0-0.8984-0.1627-1.2092-0.4881s-0.4665-0.7608-0.4665-1.3059v-0.1146
				c0-0.3627,0.0694-0.6865,0.2078-0.9714c0.1386-0.2848,0.3322-0.5078,0.5811-0.6689c0.2489-0.1612,0.5186-0.2416,0.8091-0.2416
				c0.4752,0,0.8445,0.1565,1.1081,0.4695c0.2635,0.3132,0.3954,0.7613,0.3954,1.3448v0.26h-2.4764
				c0.0089,0.3603,0.1143,0.6516,0.3159,0.8732c0.2013,0.2219,0.4578,0.3327,0.7686,0.3327c0.2204,0,0.4075-0.0449,0.5606-0.1352
				c0.1532-0.09,0.2872-0.2091,0.4021-0.3578l0.3816,0.2973C210.6125,39.3568,210.153,39.5923,209.5404,39.5923z M209.4628,36.3154
				c-0.2521,0-0.4641,0.0919-0.6351,0.2754s-0.2771,0.4409-0.3176,0.7719h1.831v-0.0474c-0.0181-0.3176-0.1035-0.5635-0.2567-0.738
				C209.9312,36.4028,209.7241,36.3154,209.4628,36.3154z"/>
			<path fill="#1C374C" d="M213.0859,39.082c0.2229,0,0.4179-0.0675,0.5846-0.2027c0.1664-0.1352,0.2589-0.3038,0.2768-0.5064
				h0.5913c-0.0113,0.2091-0.0832,0.4086-0.2162,0.5978c-0.1329,0.1892-0.3103,0.34-0.5322,0.4527
				c-0.2219,0.1127-0.4564,0.1689-0.7043,0.1689c-0.4978,0-0.8934-0.1659-1.1874-0.4983c-0.2937-0.3322-0.4409-0.7864-0.4409-1.3632
				v-0.1046c0-0.356,0.0654-0.672,0.1959-0.9494c0.1305-0.2768,0.3181-0.4918,0.5624-0.645
				c0.2443-0.1533,0.5332-0.2298,0.8664-0.2298c0.41,0,0.7504,0.1228,1.0221,0.3684c0.2714,0.2454,0.4159,0.5639,0.434,0.9558
				h-0.5913c-0.0179-0.2365-0.1076-0.4308-0.2684-0.5826c-0.161-0.1522-0.3597-0.228-0.5965-0.228
				c-0.3173,0-0.5635,0.1143-0.738,0.3429c-0.1745,0.2287-0.2619,0.5589-0.2619,0.9914v0.1183c0,0.421,0.0868,0.7455,0.2603,0.9729
				C212.5162,38.9686,212.7637,39.082,213.0859,39.082z"/>
			<path fill="#1C374C" d="M215.1753,34.9001c0-0.1015,0.0311-0.1871,0.093-0.2567c0.0619-0.07,0.1537-0.1048,0.2754-0.1048
				s0.2141,0.0349,0.2771,0.1048c0.063,0.0697,0.0945,0.1551,0.0945,0.2567c0,0.1011-0.0316,0.1857-0.0945,0.2532
				c-0.063,0.0675-0.1554,0.1014-0.2771,0.1014s-0.2135-0.0339-0.2754-0.1014C215.2063,35.0857,215.1753,35.0011,215.1753,34.9001z
				 M215.8509,39.5247h-0.6248v-3.6553h0.6248V39.5247z"/>
			<path fill="#1C374C" d="M216.6163,37.6632c0-0.3578,0.0703-0.68,0.2111-0.9659c0.1405-0.2861,0.3364-0.507,0.5879-0.6621
				c0.2511-0.1557,0.5376-0.2332,0.8597-0.2332c0.4978,0,0.9002,0.1722,1.2078,0.517c0.3074,0.3443,0.4611,0.8026,0.4611,1.3748
				v0.0441c0,0.3557-0.0682,0.6751-0.2043,0.9575c-0.1366,0.2827-0.3311,0.503-0.5846,0.6606
				c-0.2532,0.1575-0.5443,0.2364-0.8732,0.2364c-0.4954,0-0.897-0.1725-1.2042-0.5166c-0.3075-0.3448-0.4611-0.8007-0.4611-1.3683
				L216.6163,37.6632L216.6163,37.6632z M217.2444,37.7377c0,0.4055,0.0941,0.7307,0.2822,0.9761
				c0.1881,0.2455,0.4398,0.3681,0.7551,0.3681c0.3176,0,0.5697-0.1244,0.7568-0.3732c0.187-0.2487,0.2805-0.5972,0.2805-1.0457
				c0-0.4008-0.0953-0.7256-0.2856-0.9746c-0.1903-0.2487-0.4429-0.3732-0.7583-0.3732c-0.3086,0-0.5575,0.1226-0.7467,0.3684
				C217.3389,36.9292,217.2444,37.2805,217.2444,37.7377z"/>
		</g>
	</g>
</g>
</svg>
