<?xml version="1.0" encoding="utf-8"?>
<!-- Generator: Adobe Illustrator 17.0.0, SVG Export Plug-In . SVG Version: 6.00 Build 0)  -->
<!DOCTYPE svg PUBLIC "-//W3C//DTD SVG 1.1//EN" "http://www.w3.org/Graphics/SVG/1.1/DTD/svg11.dtd">
<svg version="1.1" id="Capa_1" xmlns="http://www.w3.org/2000/svg" xmlns:xlink="http://www.w3.org/1999/xlink" x="0px" y="0px"
	 width="60px" height="24px" viewBox="0 0 60 24" enable-background="new 0 0 60 24" xml:space="preserve">
<g id="MAPFRE">
	<g>
		<path fill="#E40520" d="M30.0003,0.0189c-3.8973,0-7.0569,3.1594-7.0569,7.0569s3.1596,7.0569,7.0569,7.0569
			c3.8969,0,7.0564-3.1594,7.0564-7.0569C37.0565,3.1784,33.8972,0.0189,30.0003,0.0189z M30.0003,13.4605
			c-3.526,0-6.3847-2.8586-6.3847-6.3848c0-3.526,2.8586-6.3847,6.3847-6.3847c3.526,0,6.3843,2.8586,6.3843,6.3847
			C36.3846,10.602,33.5262,13.4605,30.0003,13.4605z"/>
		<path fill="#E40520" d="M34.6628,7.3567c-0.0004-0.0556-0.0065-0.1038-0.0133-0.1421c-0.0816-0.4575-0.2426-0.9085-0.4873-1.3322
			c-0.2461-0.426-0.6093-0.8321-0.9669-1.1326c-0.2407-0.1826-0.5463-0.2485-0.8417-0.1807
			c-0.1123-0.3263-0.3806-0.5996-0.6813-0.7305c-0.5225-0.1901-1.086-0.2935-1.6721-0.2935c-0.5832,0-1.1439,0.1023-1.6643,0.2906
			c-0.0394,0.0142-0.0868,0.0343-0.1374,0.0634c-0.267,0.139-0.4722,0.3832-0.5596,0.6784
			c-0.3094-0.0542-0.6455,0.0348-0.8856,0.212c-0.3577,0.3004-0.6695,0.667-0.9154,1.0929
			c-0.2448,0.4237-0.4058,0.8747-0.4876,1.3322c-0.0067,0.0385-0.0127,0.0866-0.0132,0.1421
			c-0.0151,0.374,0.1722,0.7455,0.5212,0.9472c0.18,0.1037,0.3798,0.1483,0.5743,0.1384l2.2957-0.0056
			c0.1633,0.0058,0.5952,0.007,0.9259,0.0072v2.1627h0.6921V8.4439c0.3307-0.0001,0.762-0.0014,0.9251-0.0072l2.2956,0.0056
			c0.1945,0.0099,0.3941-0.0346,0.5741-0.1384C34.4906,8.1022,34.6782,7.7307,34.6628,7.3567z M28.9124,7.6573
			c-0.0352,0.0607-0.1012,0.0925-0.1667,0.0867L26.4102,7.75c-0.0691,0.0061-0.1407-0.0085-0.2055-0.0457
			c-0.1217-0.0704-0.1857-0.2025-0.1748-0.3342c-0.0006-0.0093-0.0002-0.0204,0.0022-0.034
			c0.0679-0.3798,0.2016-0.7543,0.4054-1.1077c0.2051-0.3551,0.4643-0.6594,0.7611-0.9089
			c0.0041-0.0032,0.0077-0.0061,0.0114-0.0086c0.1095-0.0828,0.2624-0.0973,0.3887-0.0243c0.0663,0.0382,0.1154,0.0949,0.1449,0.16
			l1.1631,2.0265C28.9422,7.5268,28.9465,7.5978,28.9124,7.6573z M30.1929,7.6323c-0.0352,0.0708-0.1082,0.1195-0.1926,0.1195
			c-0.0862,0-0.1607-0.0509-0.1949-0.1241L28.363,5.144c-0.0489-0.07-0.0774-0.1551-0.0774-0.247
			c0-0.173,0.1016-0.3224,0.2483-0.3916c0.0093-0.0065,0.0216-0.0127,0.0376-0.0185c0.4462-0.1615,0.9276-0.2494,1.4289-0.2494
			c0.5043,0,0.9877,0.0888,1.4356,0.2518c0.006,0.0021,0.0114,0.0045,0.0162,0.0068c0.1557,0.0655,0.2649,0.2195,0.2649,0.3989
			c0,0.0945-0.0302,0.1819-0.0814,0.253L30.1929,7.6323z M33.7955,7.7043c-0.0647,0.0372-0.1363,0.0518-0.2055,0.0457l-2.3354-0.006
			c-0.0655,0.0058-0.1315-0.026-0.1665-0.0867c-0.0345-0.0595-0.0299-0.1307,0.0056-0.1842l1.1628-2.0265
			c0.0294-0.0651,0.0786-0.1217,0.1449-0.16c0.1264-0.073,0.2795-0.0586,0.3887,0.0243c0.0036,0.0026,0.0074,0.0054,0.0113,0.0086
			c0.2969,0.2494,0.5563,0.5537,0.7611,0.9089c0.204,0.3533,0.3376,0.7278,0.4054,1.1077c0.0022,0.0136,0.003,0.0248,0.0021,0.034
			C33.9812,7.5017,33.9174,7.6338,33.7955,7.7043z"/>
	</g>
	<g>
		<polygon fill="#E40520" points="9.7623,20.484 8.0545,16.9872 5.4721,16.9872 5.4721,23.9808 8.0545,23.9808 8.0545,20.484 
			9.7623,23.9808 11.4702,20.484 11.4702,23.981 14.0527,23.981 14.0527,16.9875 11.4702,16.9872 		"/>
		<path fill="#E40520" d="M16.89,16.9872l-2.0087,6.9938h2.5825l0.3297-1.1478h2.7562l0.3298,1.1478h2.5822l-2.0084-6.9938
			L16.89,16.9872L16.89,16.9872z M18.123,21.6854l1.0484-3.6509l1.0487,3.6509H18.123z"/>
		<path fill="#E40520" d="M29.118,16.9905h-4.833v6.9906h2.5818v-2.913h2.2511c1.1259,0,2.0387-0.9129,2.0387-2.039
			C31.1566,17.9033,30.2438,16.9905,29.118,16.9905z M27.4708,19.8839h-0.5601v-2.0925h0.5601c0.582,0,1.1477,0.3113,1.1477,0.9451
			C28.6185,19.3701,28.1196,19.8839,27.4708,19.8839z"/>
		<polygon fill="#E40520" points="32.0522,23.981 34.6343,23.981 34.6343,21.0611 38.9177,21.0611 38.9177,19.9134 34.6343,19.9134 
			34.6343,18.1349 38.9177,18.1349 38.9177,16.9872 32.0522,16.9872 		"/>
		<polygon fill="#E40520" points="54.5279,18.1347 54.5279,16.987 47.6615,16.987 47.6615,23.9808 54.5279,23.9808 54.5279,22.8331 
			50.2441,22.8331 50.2441,21.061 54.5279,21.061 54.5279,19.9133 50.2441,19.9133 50.2441,18.1347 		"/>
		<path fill="#E40520" d="M46.6921,18.7373c0-0.9653-0.7825-1.7479-1.7479-1.7479h-2.2548h-2.8682v3.4958v3.4958l2.6255-0.0003
			v-2.8953h0.5597c0.6329,0,1.1476,0.5139,1.1476,1.1474c0,0.0188-0.0005,0.0376-0.0015,0.0563v1.6915h0.7918h1.7479V22.233
			c0-0.0191,0.0005-0.0383,0-0.0575c-0.0305-0.9387-0.8018-1.6903-1.7479-1.6903C45.9097,20.4852,46.6921,19.7026,46.6921,18.7373z
			 M43.0064,19.8845h-0.5597v-2.0922h0.5597c0.5673,0,1.1476,0.3112,1.1476,0.9449C44.154,19.371,43.6405,19.8845,43.0064,19.8845z"
			/>
	</g>
</g>
</svg>
