<?xml version="1.0" encoding="utf-8"?>
<!-- Generator: Adobe Illustrator 17.0.0, SVG Export Plug-In . SVG Version: 6.00 Build 0)  -->
<!DOCTYPE svg PUBLIC "-//W3C//DTD SVG 1.1//EN" "http://www.w3.org/Graphics/SVG/1.1/DTD/svg11.dtd">
<svg version="1.1" id="Capa_1" xmlns="http://www.w3.org/2000/svg" xmlns:xlink="http://www.w3.org/1999/xlink" x="0px" y="0px"
	 width="450.71643px" height="220.75813px" viewBox="0 0 450.71643 220.75813" enable-background="new 0 0 450.71643 220.75813"
	 xml:space="preserve">
<g>
	<defs>
		<path id="SVGID_1_" d="M442.60849,73.73043c-3.39597-7.64203-7.96213-14.38137-13.69366-20.1129
			c-5.73151-5.73152-12.47086-10.29301-20.11288-13.58383c-7.69461-3.34339-15.76187-4.98637-24.30658-4.98637
			c-8.91736,0.31992-17.19473,2.17804-24.98474,5.66941c-7.74719,3.39596-14.43396,7.90488-20.1131,13.58383
			c-5.67892,5.67895-10.0827,12.26077-13.32095,19.85022c-3.23843,7.58964-4.82886,15.7093-4.82886,24.41171
			c0,9.01766,1.69556,17.40485,4.98639,25.04688c3.28613,7.64203,7.85229,14.27623,13.5838,19.95537
			c5.73154,5.67894,12.47089,10.08272,20.11292,13.21602c7.69458,3.1331,15.867,4.72369,24.56924,4.72369
			c8.91736,0,17.19473-1.69556,24.83676-4.98654c7.64203-3.28596,14.2764-7.85213,19.95535-13.58365
			c5.62656-5.7317,10.13531-12.36591,13.42612-19.95537c3.34338-7.58964,4.98654-15.7093,4.98654-24.41171
			C447.70483,89.64982,446.00443,81.37263,442.60849,73.73043z M411.40018,109.8774c-1.53802,3.55834-3.66348,6.68695-6.26172,9.395
			c-2.65079,2.70337-5.73154,4.82883-9.28519,6.41943c-3.55835,1.53784-7.37936,2.33556-11.35791,2.33556
			c-4.03598,0-7.75201-0.74516-11.25293-2.33556c-3.5011-1.59059-6.57697-3.7112-9.28519-6.41943
			c-2.70337-2.70805-4.82886-5.84134-6.41925-9.395c-1.53802-3.55835-2.33575-7.3268-2.33575-11.3579
			c0-4.18883,0.74515-8.06727,2.33575-11.62076c1.59039-3.55348,3.71118-6.68677,6.41925-9.28518
			c2.70337-2.65549,5.78409-4.67113,9.28519-6.15658c3.50577-1.48545,7.22165-2.23061,11.25293-2.23061
			c8.33463,0.36781,15.23151,3.34357,20.6431,8.9127c5.35904,5.57381,8.22479,12.36572,8.59729,20.38042
			C413.73575,102.50289,412.99075,106.32391,411.40018,109.8774z"/>
	</defs>
	<clipPath id="SVGID_2_">
		<use xlink:href="#SVGID_1_"  overflow="visible"/>
	</clipPath>
	<linearGradient id="SVGID_3_" gradientUnits="userSpaceOnUse" x1="0.00003" y1="108.65758" x2="447.70493" y2="108.65758">
		<stop  offset="0" style="stop-color:#FF7607"/>
		<stop  offset="0.5293" style="stop-color:#FF2940"/>
		<stop  offset="0.8306" style="stop-color:#FF025D"/>
	</linearGradient>
	<path clip-path="url(#SVGID_2_)" fill="url(#SVGID_3_)" d="M442.60855,73.73043
		c-3.39597-7.64203-7.96213-14.38137-13.69363-20.1129c-5.73154-5.73152-12.47089-10.29301-20.11292-13.58383
		c-7.69458-3.34339-15.76184-4.98637-24.30655-4.98637c-8.91739,0.31992-17.19476,2.17804-24.98477,5.66941
		c-7.74716,3.39596-14.43393,7.90488-20.11307,13.58383c-5.67896,5.67895-10.08273,12.26077-13.32098,19.85022
		c-3.04202,7.1293-4.57498,14.7463-4.75629,22.85461h-3.17758c-0.07724-8.4628-1.64117-16.47695-4.79913-23.92905
		c-3.18567-7.64203-7.69458-14.38137-13.42612-20.1129c-5.73151-5.73152-12.47086-10.29301-20.11288-13.58383
		c-7.69461-3.34339-15.86682-4.98636-24.56924-4.98636c-8.32993,0-16.29205,1.70041-23.88152,5.09618
		c-7.58946,3.39596-14.27641,7.96213-20.1129,13.69365c-5.83665,5.73152-10.4554,12.47105-13.95631,20.11308
		c-3.36697,7.51276-5.08971,15.38793-5.17053,23.70923h-5.02507V59.74729c0-4.28928-1.31694-7.99093-4.34041-11.01278
		c-2.55215-2.58743-5.44185-3.99943-8.97302-4.40036V32.36683c3.80734-0.37159,7.15756-1.96506,9.99164-4.93703
		c3.23825-3.39614,4.82884-7.37936,4.82884-11.88828c0-4.5136-1.59059-8.49232-4.82884-11.8881
		c-3.23357-3.39596-7.11183-5.09637-11.62074-5.09637c-4.50874,0-8.49232,1.48545-11.88811,4.67599
		c-3.39595,3.18568-5.20151,7.00687-5.35902,11.51561c0,5.57399,1.59041,9.9252,4.82883,12.94849
		c2.69455,2.51578,6.04802,4.01833,9.99164,4.56311v12.13078c-3.63504,0.48735-6.85654,1.79799-9.67136,4.0979
		c-3.28595,2.73236-5.40565,6.19276-5.40565,10.3328v38.18368h-6.63763V79.50497c0-6.13263-1.19902-11.95021-3.69211-17.40952
		c-2.49327-5.45931-5.82243-10.1353-9.97777-14.08522c-4.21259-3.9501-9.04629-7.06898-14.60588-9.35684
		c-5.50702-2.28786-11.27689-3.42944-17.25199-3.42944c-10.91376,0-20.47584,3.3243-28.63384,9.97777
		c-4.05019-3.38155-8.52094-5.92739-13.40703-7.53707c-4.88609-1.60949-9.87732-2.4407-14.96882-2.4407
		c-6.29052,0-12.21306,1.19416-17.67705,3.52972c-5.55959,2.39299-10.34072,5.61216-14.44834,9.61465
		c-4.10763,4.00267-7.32679,8.73122-9.71979,14.0854c-2.39281,5.35417-3.58697,11.0189-3.58697,16.994v62.94196
		c-0.15753,2.23546,0.20542,4.36093,1.14159,6.39079c0.93617,2.02988,2.13501,3.79707,3.69211,5.35417
		c1.50921,1.5618,3.32898,2.75595,5.35417,3.58698c2.02987,0.88361,4.26047,1.29912,6.65329,1.29912
		c4.41818,0,8.21057-1.50922,11.38203-4.47057c3.17146-2.96605,4.88609-6.49576,5.24903-10.60339V80.48904
		c0.15771-3.38174,1.40426-6.18539,3.69211-8.42067c2.28786-2.23529,5.09151-3.3243,8.31553-3.3243
		c2.91347,0,5.56445,1.0937,7.95258,3.22402c2.38813,2.13015,3.68725,4.88609,3.84478,8.31553v31.70016
		c0,4.26048,1.66224,7.90002,5.09169,10.86137c3.38155,2.96136,7.22651,4.47057,11.48681,4.47057
		c4.62828,0,8.57838-1.66206,11.90268-4.88609c3.32899-3.22403,4.99123-7.12155,4.99123-11.74497V80.28362
		c0-3.73981,1.19884-6.6009,3.69193-8.57352c2.44556-1.97262,5.14893-2.96117,8.05772-2.96117
		c3.42926,0,6.28548,1.08884,8.57333,3.3243c2.28786,2.18272,3.42944,4.93379,3.42944,8.15782v62.20651
		c0,4.41801,1.66692,8.31554,4.99123,11.63985c3.3243,3.32898,7.22165,4.99104,11.63984,4.99104
		c4.418,0,8.31552-1.55693,11.7448-4.62343c3.37686-3.06631,5.09167-6.64861,5.09167-10.75604V98.2759h6.63763v47.28811
		c0,4.63135,2.72893,8.2365,5.86221,10.77155c3.18568,2.5831,7.07205,3.85071,11.58096,3.85071
		c5.03894-0.29399,8.29915-1.89915,11.27005-4.77626c2.97072-2.87711,3.73299-6.43382,3.73299-10.77136V98.2759h5.02362
		c0.07687,8.96761,1.63884,17.24371,4.69418,24.79879c3.1286,7.74716,7.47981,14.38136,13.05362,19.95537
		c5.52142,5.56912,12.20821,9.92033,19.95537,13.05362c7.74718,3.1333,16.23949,4.72371,25.47211,4.72371
		c7.32195,0,13.16347-0.58276,17.61961-1.80537c4.45636-1.22278,8.38721-2.81319,11.88828-4.72388v0.26753
		c1.22263,4.88141-0.10513,10.18787-3.92615,15.91939c-1.53802,1.91051-3.66348,3.02347-6.26172,3.39595h-19.31534
		c-5.25389,0.15753-10.13998,0.95526-14.6489,2.33557c-10.08273,2.9709-17.77733,7.74716-22.97865,14.38138
		c-2.9709,3.29099-4.29883,7.16458-4.0313,11.62074c0.26266,4.46103,2.06821,8.22479,5.35902,11.35808
		c3.50092,3.44853,7.64203,5.20132,12.4183,5.20132c4.77626,0,8.91737-1.69554,12.41847-4.98636
		c3.34338-3.28613,7.1644-5.09151,11.51561-5.46417h8.32021v0.0956h1.48544h8.86484
		c6.26172-0.3201,12.10321-1.75298,17.51465-4.29865c5.35904-2.49327,10.03033-5.83665,13.95633-10.03033
		c3.931-4.19351,7.05942-9.285,9.39499-15.28406c2.38812-6.05162,3.44852-11.56818,3.29083-16.61198
		c0-15.33662-2.54568-26.3746-7.58948-33.16652c4.95288-8.91144,7.48236-19.16196,7.57236-30.73573h3.10574
		c-0.00037,0.09704-0.01331,0.1894-0.01331,0.28661c0,9.01766,1.69553,17.40485,4.98636,25.04688
		c3.28613,7.64203,7.85229,14.27623,13.58383,19.95537c5.73151,5.67894,12.47086,10.08272,20.11288,13.21602
		c7.69461,3.1331,15.867,4.72369,24.56924,4.72369c8.91739,0,17.19473-1.69556,24.83676-4.98654
		c7.64203-3.28596,14.27643-7.85213,19.95538-13.58365c5.62656-5.7317,10.13528-12.36591,13.42612-19.95537
		c3.34338-7.58964,4.98654-15.7093,4.98654-24.41171C447.70493,89.64982,446.00452,81.37263,442.60855,73.73043z M228.4881,86.66974
		c1.64784-3.50092,3.82101-6.57696,6.52925-9.28501c2.70337-2.70823,5.78409-4.88626,9.285-6.52924
		c3.5011-1.64297,7.1644-2.49327,10.98541-2.49327c3.82121,0,7.53706,0.7403,11.09541,2.38345
		c3.55835,1.53783,6.68677,3.66331,9.39502,6.26172c2.70804,2.65079,4.88608,5.72665,6.52924,9.285
		c1.55331,3.36409,2.37085,6.96816,2.45853,10.71303h-58.73494C226.1223,93.42043,226.9346,89.97028,228.4881,86.66974z
		 M282.5701,108.90341c-1.48544,3.45321-3.55835,6.63421-6.15674,9.39501c-2.60312,2.76062-5.73154,4.93865-9.39484,6.52906
		c-3.61093,1.53802-7.54193,2.33575-11.73058,2.33575c-4.18881,0-8.06726-0.8503-11.62074-2.49327
		c-3.60625-1.64784-6.68697-3.82101-9.28519-6.52924c-2.65567-2.70805-4.67113-5.84135-6.15659-9.39501
		c-1.40443-3.35959-2.12331-6.86806-2.20018-10.4698h58.74593C284.69684,102.06757,283.97723,105.58667,282.5701,108.90341z
		 M411.40024,109.8774c-1.53802,3.55834-3.66348,6.68695-6.26172,9.395c-2.65079,2.70337-5.73151,4.82883-9.28519,6.41943
		c-3.55835,1.53784-7.37936,2.33556-11.35788,2.33556c-4.03598,0-7.75204-0.74516-11.25296-2.33556
		c-3.5011-1.59059-6.57697-3.7112-9.28519-6.41943c-2.70337-2.70805-4.82883-5.84134-6.41925-9.395
		c-1.53802-3.55835-2.33572-7.3268-2.33572-11.3579c0-4.18883,0.74515-8.06727,2.33572-11.62076
		c1.59042-3.55348,3.71121-6.68677,6.41925-9.28518c2.70337-2.65549,5.78409-4.67113,9.28519-6.15658
		c3.50577-1.48545,7.22165-2.23061,11.25296-2.23061c8.33459,0.36781,15.23148,3.34357,20.64307,8.9127
		c5.35904,5.57381,8.22479,12.36572,8.59729,20.38042C413.73581,102.50289,412.99084,106.32391,411.40024,109.8774z"/>
</g>
<g>
	<defs>
		<path id="SVGID_4_" d="M45.46768,35.22404c5.09153,0,10.08276,0.83108,14.96891,2.44069
			c4.88614,1.60961,9.35675,4.15538,13.40705,7.53699c8.15791-6.65337,17.72004-9.97768,28.63387-9.97768
			c5.97514,0,11.7449,1.14154,17.25197,3.42938c5.55962,2.28785,10.3932,5.40676,14.6059,9.35675
			c4.15536,3.94999,7.48447,8.62598,9.97768,14.08529c2.49323,5.4593,3.69208,11.27683,3.69208,17.40959v64.18384
			c0,4.1076-1.71469,7.68983-5.09154,10.75621c-3.42937,3.06636-7.32684,4.62344-11.7449,4.62344
			c-4.41807,0-8.31554-1.66216-11.63983-4.99123c-3.3243-3.3243-4.99122-7.22176-4.99122-11.63983V80.23106
			c0-3.224-1.14153-5.97514-3.42937-8.15791c-2.28784-2.23531-5.14407-3.3243-8.57344-3.3243
			c-2.90877,0-5.61214,0.98869-8.0576,2.9613c-2.49323,1.97261-3.69207,4.8336-3.69207,8.57345v30.4011
			c0,4.62346-1.66215,8.52091-4.99122,11.7449c-3.3243,3.224-7.27429,4.88615-11.90253,4.88615
			c-4.26044,0-8.10536-1.50931-11.48698-4.47062c-3.42938-2.9613-5.09153-6.60083-5.09153-10.86129V80.28359
			c-0.15762-3.42938-1.45677-6.1853-3.84492-8.31552c-2.38815-2.13023-5.03899-3.224-7.95252-3.224
			c-3.22399,0-6.02768,1.089-8.31552,3.3243c-2.28785,2.23531-3.53445,5.03899-3.69208,8.42061v63.45783
			c-0.363,4.10762-2.07768,7.63728-5.24914,10.60338c-3.17146,2.9613-6.96383,4.47061-11.3819,4.47061
			c-2.39292,0-4.62345-0.41554-6.65337-1.29915c-2.02515-0.83107-3.84492-2.02515-5.35423-3.58699
			c-1.55707-1.55707-2.75592-3.3243-3.69208-5.35422s-1.29915-4.15536-1.14154-6.39069V79.44775
			c0-5.97514,1.19407-11.63983,3.58699-16.99406s5.61214-10.08276,9.71976-14.08529s8.88868-7.22176,14.44828-9.61468
			C33.2547,36.41812,39.17731,35.22404,45.46768,35.22404z"/>
	</defs>
	<clipPath id="SVGID_5_">
		<use xlink:href="#SVGID_4_"  overflow="visible"/>
	</clipPath>
	<linearGradient id="SVGID_6_" gradientUnits="userSpaceOnUse" x1="0.00003" y1="108.65758" x2="447.70493" y2="108.65758">
		<stop  offset="0" style="stop-color:#FF7607"/>
		<stop  offset="0.5293" style="stop-color:#FF2940"/>
		<stop  offset="0.8306" style="stop-color:#FF025D"/>
	</linearGradient>
	<path clip-path="url(#SVGID_5_)" fill="url(#SVGID_6_)" d="M442.60855,73.73043
		c-3.39597-7.64203-7.96213-14.38137-13.69363-20.1129c-5.73154-5.73152-12.47089-10.29301-20.11292-13.58383
		c-7.69458-3.34339-15.76184-4.98637-24.30655-4.98637c-8.91739,0.31992-17.19476,2.17804-24.98477,5.66941
		c-7.74716,3.39596-14.43393,7.90488-20.11307,13.58383c-5.67896,5.67895-10.08273,12.26077-13.32098,19.85022
		c-3.04202,7.1293-4.57498,14.7463-4.75629,22.85461h-3.17758c-0.07724-8.4628-1.64117-16.47695-4.79913-23.92905
		c-3.18567-7.64203-7.69458-14.38137-13.42612-20.1129c-5.73151-5.73152-12.47086-10.29301-20.11288-13.58383
		c-7.69461-3.34339-15.86682-4.98636-24.56924-4.98636c-8.32993,0-16.29205,1.70041-23.88152,5.09618
		c-7.58946,3.39596-14.27641,7.96213-20.1129,13.69365c-5.83665,5.73152-10.4554,12.47105-13.95631,20.11308
		c-3.36697,7.51276-5.08971,15.38793-5.17053,23.70923h-5.02507V59.74729c0-4.28928-1.31694-7.99093-4.34041-11.01278
		c-2.55215-2.58743-5.44185-3.99943-8.97302-4.40036V32.36683c3.80734-0.37159,7.15756-1.96506,9.99164-4.93703
		c3.23825-3.39614,4.82884-7.37936,4.82884-11.88828c0-4.5136-1.59059-8.49232-4.82884-11.8881
		c-3.23357-3.39596-7.11183-5.09637-11.62074-5.09637c-4.50874,0-8.49232,1.48545-11.88811,4.67599
		c-3.39595,3.18568-5.20151,7.00687-5.35902,11.51561c0,5.57399,1.59041,9.9252,4.82883,12.94849
		c2.69455,2.51578,6.04802,4.01833,9.99164,4.56311v12.13078c-3.63504,0.48735-6.85654,1.79799-9.67136,4.0979
		c-3.28595,2.73236-5.40565,6.19276-5.40565,10.3328v38.18368h-6.63763V79.50497c0-6.13263-1.19902-11.95021-3.69211-17.40952
		c-2.49327-5.45931-5.82243-10.1353-9.97777-14.08522c-4.21259-3.9501-9.04629-7.06898-14.60588-9.35684
		c-5.50702-2.28786-11.27689-3.42944-17.25199-3.42944c-10.91376,0-20.47584,3.3243-28.63384,9.97777
		c-4.05019-3.38155-8.52094-5.92739-13.40703-7.53707c-4.88609-1.60949-9.87732-2.4407-14.96882-2.4407
		c-6.29052,0-12.21306,1.19416-17.67705,3.52972c-5.55959,2.39299-10.34072,5.61216-14.44834,9.61465
		c-4.10763,4.00267-7.32679,8.73122-9.71979,14.0854c-2.39281,5.35417-3.58697,11.0189-3.58697,16.994v62.94196
		c-0.15753,2.23546,0.20542,4.36093,1.14159,6.39079c0.93617,2.02988,2.13501,3.79707,3.69211,5.35417
		c1.50921,1.5618,3.32898,2.75595,5.35417,3.58698c2.02987,0.88361,4.26047,1.29912,6.65329,1.29912
		c4.41818,0,8.21057-1.50922,11.38203-4.47057c3.17146-2.96605,4.88609-6.49576,5.24903-10.60339V80.48904
		c0.15771-3.38174,1.40426-6.18539,3.69211-8.42067c2.28786-2.23529,5.09151-3.3243,8.31553-3.3243
		c2.91347,0,5.56445,1.0937,7.95258,3.22402c2.38813,2.13015,3.68725,4.88609,3.84478,8.31553v31.70016
		c0,4.26048,1.66224,7.90002,5.09169,10.86137c3.38155,2.96136,7.22651,4.47057,11.48681,4.47057
		c4.62828,0,8.57838-1.66206,11.90268-4.88609c3.32899-3.22403,4.99123-7.12155,4.99123-11.74497V80.28362
		c0-3.73981,1.19884-6.6009,3.69193-8.57352c2.44556-1.97262,5.14893-2.96117,8.05772-2.96117
		c3.42926,0,6.28548,1.08884,8.57333,3.3243c2.28786,2.18272,3.42944,4.93379,3.42944,8.15782v62.20651
		c0,4.41801,1.66692,8.31554,4.99123,11.63985c3.3243,3.32898,7.22165,4.99104,11.63984,4.99104
		c4.418,0,8.31552-1.55693,11.7448-4.62343c3.37686-3.06631,5.09167-6.64861,5.09167-10.75604V98.2759h6.63763v47.28811
		c0,4.63135,2.72893,8.2365,5.86221,10.77155c3.18568,2.5831,7.07205,3.85071,11.58096,3.85071
		c5.03894-0.29399,8.29915-1.89915,11.27005-4.77626c2.97072-2.87711,3.73299-6.43382,3.73299-10.77136V98.2759h5.02362
		c0.07687,8.96761,1.63884,17.24371,4.69418,24.79879c3.1286,7.74716,7.47981,14.38136,13.05362,19.95537
		c5.52142,5.56912,12.20821,9.92033,19.95537,13.05362c7.74718,3.1333,16.23949,4.72371,25.47211,4.72371
		c7.32195,0,13.16347-0.58276,17.61961-1.80537c4.45636-1.22278,8.38721-2.81319,11.88828-4.72388v0.26753
		c1.22263,4.88141-0.10513,10.18787-3.92615,15.91939c-1.53802,1.91051-3.66348,3.02347-6.26172,3.39595h-19.31534
		c-5.25389,0.15753-10.13998,0.95526-14.6489,2.33557c-10.08273,2.9709-17.77733,7.74716-22.97865,14.38138
		c-2.9709,3.29099-4.29883,7.16458-4.0313,11.62074c0.26266,4.46103,2.06821,8.22479,5.35902,11.35808
		c3.50092,3.44853,7.64203,5.20132,12.4183,5.20132c4.77626,0,8.91737-1.69554,12.41847-4.98636
		c3.34338-3.28613,7.1644-5.09151,11.51561-5.46417h8.32021v0.0956h1.48544h8.86484
		c6.26172-0.3201,12.10321-1.75298,17.51465-4.29865c5.35904-2.49327,10.03033-5.83665,13.95633-10.03033
		c3.931-4.19351,7.05942-9.285,9.39499-15.28406c2.38812-6.05162,3.44852-11.56818,3.29083-16.61198
		c0-15.33662-2.54568-26.3746-7.58948-33.16652c4.95288-8.91144,7.48236-19.16196,7.57236-30.73573h3.10574
		c-0.00037,0.09704-0.01331,0.1894-0.01331,0.28661c0,9.01766,1.69553,17.40485,4.98636,25.04688
		c3.28613,7.64203,7.85229,14.27623,13.58383,19.95537c5.73151,5.67894,12.47086,10.08272,20.11288,13.21602
		c7.69461,3.1331,15.867,4.72369,24.56924,4.72369c8.91739,0,17.19473-1.69556,24.83676-4.98654
		c7.64203-3.28596,14.27643-7.85213,19.95538-13.58365c5.62656-5.7317,10.13528-12.36591,13.42612-19.95537
		c3.34338-7.58964,4.98654-15.7093,4.98654-24.41171C447.70493,89.64982,446.00452,81.37263,442.60855,73.73043z M228.4881,86.66974
		c1.64784-3.50092,3.82101-6.57696,6.52925-9.28501c2.70337-2.70823,5.78409-4.88626,9.285-6.52924
		c3.5011-1.64297,7.1644-2.49327,10.98541-2.49327c3.82121,0,7.53706,0.7403,11.09541,2.38345
		c3.55835,1.53783,6.68677,3.66331,9.39502,6.26172c2.70804,2.65079,4.88608,5.72665,6.52924,9.285
		c1.55331,3.36409,2.37085,6.96816,2.45853,10.71303h-58.73494C226.1223,93.42043,226.9346,89.97028,228.4881,86.66974z
		 M282.5701,108.90341c-1.48544,3.45321-3.55835,6.63421-6.15674,9.39501c-2.60312,2.76062-5.73154,4.93865-9.39484,6.52906
		c-3.61093,1.53802-7.54193,2.33575-11.73058,2.33575c-4.18881,0-8.06726-0.8503-11.62074-2.49327
		c-3.60625-1.64784-6.68697-3.82101-9.28519-6.52924c-2.65567-2.70805-4.67113-5.84135-6.15659-9.39501
		c-1.40443-3.35959-2.12331-6.86806-2.20018-10.4698h58.74593C284.69684,102.06757,283.97723,105.58667,282.5701,108.90341z
		 M411.40024,109.8774c-1.53802,3.55834-3.66348,6.68695-6.26172,9.395c-2.65079,2.70337-5.73151,4.82883-9.28519,6.41943
		c-3.55835,1.53784-7.37936,2.33556-11.35788,2.33556c-4.03598,0-7.75204-0.74516-11.25296-2.33556
		c-3.5011-1.59059-6.57697-3.7112-9.28519-6.41943c-2.70337-2.70805-4.82883-5.84134-6.41925-9.395
		c-1.53802-3.55835-2.33572-7.3268-2.33572-11.3579c0-4.18883,0.74515-8.06727,2.33572-11.62076
		c1.59042-3.55348,3.71121-6.68677,6.41925-9.28518c2.70337-2.65549,5.78409-4.67113,9.28519-6.15658
		c3.50577-1.48545,7.22165-2.23061,11.25296-2.23061c8.33459,0.36781,15.23148,3.34357,20.64307,8.9127
		c5.35904,5.57381,8.22479,12.36572,8.59729,20.38042C413.73581,102.50289,412.99084,106.32391,411.40024,109.8774z"/>
</g>
<g>
	<defs>
		<path id="SVGID_7_" d="M181.78076,48.73452c-2.85062-3.07005-6.51666-4.57878-10.76109-4.57878
			c-4.24443,0.19299-7.48079,1.60519-10.62363,4.33317c-3.0934,2.73235-4.67963,6.19272-4.67963,10.33291v86.74216
			c0,4.63138,1.94736,8.23651,4.89687,10.7715c2.99898,2.58319,6.34662,3.85072,10.59105,3.85072
			c4.7435-0.29388,8.50696-1.89906,11.30359-4.77614c2.79663-2.87709,4.2085-6.43396,4.2085-10.7715V59.74723
			C186.71642,55.45793,184.62683,51.7563,181.78076,48.73452z"/>
	</defs>
	<clipPath id="SVGID_8_">
		<use xlink:href="#SVGID_7_"  overflow="visible"/>
	</clipPath>
	<linearGradient id="SVGID_9_" gradientUnits="userSpaceOnUse" x1="0.00003" y1="108.65758" x2="447.70493" y2="108.65758">
		<stop  offset="0" style="stop-color:#FF7607"/>
		<stop  offset="0.5293" style="stop-color:#FF2940"/>
		<stop  offset="0.8306" style="stop-color:#FF025D"/>
	</linearGradient>
	<path clip-path="url(#SVGID_8_)" fill="url(#SVGID_9_)" d="M442.60855,73.73043
		c-3.39597-7.64203-7.96213-14.38137-13.69363-20.1129c-5.73154-5.73152-12.47089-10.29301-20.11292-13.58383
		c-7.69458-3.34339-15.76184-4.98637-24.30655-4.98637c-8.91739,0.31992-17.19476,2.17804-24.98477,5.66941
		c-7.74716,3.39596-14.43393,7.90488-20.11307,13.58383c-5.67896,5.67895-10.08273,12.26077-13.32098,19.85022
		c-3.04202,7.1293-4.57498,14.7463-4.75629,22.85461h-3.17758c-0.07724-8.4628-1.64117-16.47695-4.79913-23.92905
		c-3.18567-7.64203-7.69458-14.38137-13.42612-20.1129c-5.73151-5.73152-12.47086-10.29301-20.11288-13.58383
		c-7.69461-3.34339-15.86682-4.98636-24.56924-4.98636c-8.32993,0-16.29205,1.70041-23.88152,5.09618
		c-7.58946,3.39596-14.27641,7.96213-20.1129,13.69365c-5.83665,5.73152-10.4554,12.47105-13.95631,20.11308
		c-3.36697,7.51276-5.08971,15.38793-5.17053,23.70923h-5.02507V59.74729c0-4.28928-1.31694-7.99093-4.34041-11.01278
		c-2.55215-2.58743-5.44185-3.99943-8.97302-4.40036V32.36683c3.80734-0.37159,7.15756-1.96506,9.99164-4.93703
		c3.23825-3.39614,4.82884-7.37936,4.82884-11.88828c0-4.5136-1.59059-8.49232-4.82884-11.8881
		c-3.23357-3.39596-7.11183-5.09637-11.62074-5.09637c-4.50874,0-8.49232,1.48545-11.88811,4.67599
		c-3.39595,3.18568-5.20151,7.00687-5.35902,11.51561c0,5.57399,1.59041,9.9252,4.82883,12.94849
		c2.69455,2.51578,6.04802,4.01833,9.99164,4.56311v12.13078c-3.63504,0.48735-6.85654,1.79799-9.67136,4.0979
		c-3.28595,2.73236-5.40565,6.19276-5.40565,10.3328v38.18368h-6.63763V79.50497c0-6.13263-1.19902-11.95021-3.69211-17.40952
		c-2.49327-5.45931-5.82243-10.1353-9.97777-14.08522c-4.21259-3.9501-9.04629-7.06898-14.60588-9.35684
		c-5.50702-2.28786-11.27689-3.42944-17.25199-3.42944c-10.91376,0-20.47584,3.3243-28.63384,9.97777
		c-4.05019-3.38155-8.52094-5.92739-13.40703-7.53707c-4.88609-1.60949-9.87732-2.4407-14.96882-2.4407
		c-6.29052,0-12.21306,1.19416-17.67705,3.52972c-5.55959,2.39299-10.34072,5.61216-14.44834,9.61465
		c-4.10763,4.00267-7.32679,8.73122-9.71979,14.0854c-2.39281,5.35417-3.58697,11.0189-3.58697,16.994v62.94196
		c-0.15753,2.23546,0.20542,4.36093,1.14159,6.39079c0.93617,2.02988,2.13501,3.79707,3.69211,5.35417
		c1.50921,1.5618,3.32898,2.75595,5.35417,3.58698c2.02987,0.88361,4.26047,1.29912,6.65329,1.29912
		c4.41818,0,8.21057-1.50922,11.38203-4.47057c3.17146-2.96605,4.88609-6.49576,5.24903-10.60339V80.48904
		c0.15771-3.38174,1.40426-6.18539,3.69211-8.42067c2.28786-2.23529,5.09151-3.3243,8.31553-3.3243
		c2.91347,0,5.56445,1.0937,7.95258,3.22402c2.38813,2.13015,3.68725,4.88609,3.84478,8.31553v31.70016
		c0,4.26048,1.66224,7.90002,5.09169,10.86137c3.38155,2.96136,7.22651,4.47057,11.48681,4.47057
		c4.62828,0,8.57838-1.66206,11.90268-4.88609c3.32899-3.22403,4.99123-7.12155,4.99123-11.74497V80.28362
		c0-3.73981,1.19884-6.6009,3.69193-8.57352c2.44556-1.97262,5.14893-2.96117,8.05772-2.96117
		c3.42926,0,6.28548,1.08884,8.57333,3.3243c2.28786,2.18272,3.42944,4.93379,3.42944,8.15782v62.20651
		c0,4.41801,1.66692,8.31554,4.99123,11.63985c3.3243,3.32898,7.22165,4.99104,11.63984,4.99104
		c4.418,0,8.31552-1.55693,11.7448-4.62343c3.37686-3.06631,5.09167-6.64861,5.09167-10.75604V98.2759h6.63763v47.28811
		c0,4.63135,2.72893,8.2365,5.86221,10.77155c3.18568,2.5831,7.07205,3.85071,11.58096,3.85071
		c5.03894-0.29399,8.29915-1.89915,11.27005-4.77626c2.97072-2.87711,3.73299-6.43382,3.73299-10.77136V98.2759h5.02362
		c0.07687,8.96761,1.63884,17.24371,4.69418,24.79879c3.1286,7.74716,7.47981,14.38136,13.05362,19.95537
		c5.52142,5.56912,12.20821,9.92033,19.95537,13.05362c7.74718,3.1333,16.23949,4.72371,25.47211,4.72371
		c7.32195,0,13.16347-0.58276,17.61961-1.80537c4.45636-1.22278,8.38721-2.81319,11.88828-4.72388v0.26753
		c1.22263,4.88141-0.10513,10.18787-3.92615,15.91939c-1.53802,1.91051-3.66348,3.02347-6.26172,3.39595h-19.31534
		c-5.25389,0.15753-10.13998,0.95526-14.6489,2.33557c-10.08273,2.9709-17.77733,7.74716-22.97865,14.38138
		c-2.9709,3.29099-4.29883,7.16458-4.0313,11.62074c0.26266,4.46103,2.06821,8.22479,5.35902,11.35808
		c3.50092,3.44853,7.64203,5.20132,12.4183,5.20132c4.77626,0,8.91737-1.69554,12.41847-4.98636
		c3.34338-3.28613,7.1644-5.09151,11.51561-5.46417h8.32021v0.0956h1.48544h8.86484
		c6.26172-0.3201,12.10321-1.75298,17.51465-4.29865c5.35904-2.49327,10.03033-5.83665,13.95633-10.03033
		c3.931-4.19351,7.05942-9.285,9.39499-15.28406c2.38812-6.05162,3.44852-11.56818,3.29083-16.61198
		c0-15.33662-2.54568-26.3746-7.58948-33.16652c4.95288-8.91144,7.48236-19.16196,7.57236-30.73573h3.10574
		c-0.00037,0.09704-0.01331,0.1894-0.01331,0.28661c0,9.01766,1.69553,17.40485,4.98636,25.04688
		c3.28613,7.64203,7.85229,14.27623,13.58383,19.95537c5.73151,5.67894,12.47086,10.08272,20.11288,13.21602
		c7.69461,3.1331,15.867,4.72369,24.56924,4.72369c8.91739,0,17.19473-1.69556,24.83676-4.98654
		c7.64203-3.28596,14.27643-7.85213,19.95538-13.58365c5.62656-5.7317,10.13528-12.36591,13.42612-19.95537
		c3.34338-7.58964,4.98654-15.7093,4.98654-24.41171C447.70493,89.64982,446.00452,81.37263,442.60855,73.73043z M228.4881,86.66974
		c1.64784-3.50092,3.82101-6.57696,6.52925-9.28501c2.70337-2.70823,5.78409-4.88626,9.285-6.52924
		c3.5011-1.64297,7.1644-2.49327,10.98541-2.49327c3.82121,0,7.53706,0.7403,11.09541,2.38345
		c3.55835,1.53783,6.68677,3.66331,9.39502,6.26172c2.70804,2.65079,4.88608,5.72665,6.52924,9.285
		c1.55331,3.36409,2.37085,6.96816,2.45853,10.71303h-58.73494C226.1223,93.42043,226.9346,89.97028,228.4881,86.66974z
		 M282.5701,108.90341c-1.48544,3.45321-3.55835,6.63421-6.15674,9.39501c-2.60312,2.76062-5.73154,4.93865-9.39484,6.52906
		c-3.61093,1.53802-7.54193,2.33575-11.73058,2.33575c-4.18881,0-8.06726-0.8503-11.62074-2.49327
		c-3.60625-1.64784-6.68697-3.82101-9.28519-6.52924c-2.65567-2.70805-4.67113-5.84135-6.15659-9.39501
		c-1.40443-3.35959-2.12331-6.86806-2.20018-10.4698h58.74593C284.69684,102.06757,283.97723,105.58667,282.5701,108.90341z
		 M411.40024,109.8774c-1.53802,3.55834-3.66348,6.68695-6.26172,9.395c-2.65079,2.70337-5.73151,4.82883-9.28519,6.41943
		c-3.55835,1.53784-7.37936,2.33556-11.35788,2.33556c-4.03598,0-7.75204-0.74516-11.25296-2.33556
		c-3.5011-1.59059-6.57697-3.7112-9.28519-6.41943c-2.70337-2.70805-4.82883-5.84134-6.41925-9.395
		c-1.53802-3.55835-2.33572-7.3268-2.33572-11.3579c0-4.18883,0.74515-8.06727,2.33572-11.62076
		c1.59042-3.55348,3.71121-6.68677,6.41925-9.28518c2.70337-2.65549,5.78409-4.67113,9.28519-6.15658
		c3.50577-1.48545,7.22165-2.23061,11.25296-2.23061c8.33459,0.36781,15.23148,3.34357,20.64307,8.9127
		c5.35904,5.57381,8.22479,12.36572,8.59729,20.38042C413.73581,102.50289,412.99084,106.32391,411.40024,109.8774z"/>
</g>
<g>
	<defs>
		<path id="SVGID_10_" d="M159.31355,30.18494c3.23833,3.0234,7.37459,4.67121,12.41837,4.82882
			c4.50882,0,8.38235-1.70034,11.62071-5.0963c3.23831-3.39596,4.82881-7.37937,4.82881-11.88819
			c0-4.51361-1.5905-8.49226-4.82881-11.88819c-3.23354-3.39596-7.11189-5.0963-11.62071-5.0963s-8.49226,1.48542-11.8882,4.67596
			c-3.39595,3.18579-5.20137,7.00684-5.35902,11.51567C154.4847,22.81036,156.07524,27.16154,159.31355,30.18494z"/>
	</defs>
	<clipPath id="SVGID_11_">
		<use xlink:href="#SVGID_10_"  overflow="visible"/>
	</clipPath>
	<linearGradient id="SVGID_12_" gradientUnits="userSpaceOnUse" x1="-0.41459" y1="111.14533" x2="447.29028" y2="111.14533">
		<stop  offset="0" style="stop-color:#FF7607"/>
		<stop  offset="0.5293" style="stop-color:#FF2940"/>
		<stop  offset="0.8306" style="stop-color:#FF025D"/>
	</linearGradient>
	<path clip-path="url(#SVGID_11_)" fill="url(#SVGID_12_)" d="M442.19394,76.21818
		c-3.39597-7.64203-7.96213-14.38137-13.69366-20.11289c-5.73151-5.73152-12.47086-10.29301-20.11288-13.58383
		c-7.69461-3.34339-15.76187-4.98637-24.30658-4.98637c-8.91739,0.31992-17.19473,2.17804-24.98474,5.66941
		c-7.74719,3.39596-14.43396,7.90488-20.1131,13.58383c-5.67892,5.67895-10.08273,12.26077-13.32095,19.85023
		c-3.04202,7.1293-4.57501,14.74629-4.75629,22.85461h-3.17758c-0.07724-8.4628-1.64117-16.47695-4.79913-23.92905
		c-3.18567-7.64203-7.69461-14.38137-13.42612-20.11289c-5.73154-5.73152-12.47089-10.29301-20.11288-13.58383
		c-7.69461-3.34338-15.86685-4.98636-24.56926-4.98636c-8.32993,0-16.29205,1.70041-23.88152,5.09618
		c-7.58946,3.39596-14.27641,7.96213-20.1129,13.69365c-5.83665,5.73152-10.4554,12.47105-13.95631,20.11307
		c-3.36696,7.51277-5.08971,15.38794-5.17053,23.70923h-5.02507V62.23504c0-4.28928-1.31694-7.99093-4.34041-11.01278
		c-2.55215-2.58743-5.44185-3.99943-8.97301-4.40036V34.85458c3.80733-0.37159,7.15755-1.96505,9.99162-4.93703
		c3.23825-3.39614,4.82884-7.37936,4.82884-11.88828c0-4.5136-1.59059-8.49232-4.82884-11.8881
		c-3.23357-3.39596-7.11183-5.09637-11.62074-5.09637c-4.50874,0-8.49232,1.48545-11.88811,4.67599
		c-3.39595,3.18568-5.20149,7.00687-5.35902,11.51561c0,5.57399,1.59041,9.9252,4.82883,12.94849
		c2.69455,2.51578,6.04802,4.01833,9.99164,4.56311v12.13078c-3.63504,0.48735-6.85654,1.79799-9.67136,4.0979
		c-3.28595,2.73236-5.40565,6.19276-5.40565,10.3328v38.18367h-6.63763V81.99273c0-6.13264-1.19902-11.95021-3.69211-17.40952
		c-2.49327-5.45931-5.82243-10.1353-9.97777-14.08522c-4.21259-3.9501-9.04629-7.06898-14.60587-9.35684
		c-5.50702-2.28786-11.27689-3.42944-17.252-3.42944c-10.91376,0-20.47584,3.3243-28.63383,9.97777
		c-4.0502-3.38155-8.52095-5.92739-13.40704-7.53707c-4.88609-1.60949-9.87731-2.4407-14.96882-2.4407
		c-6.29052,0-12.21305,1.19416-17.67705,3.52972c-5.55959,2.39299-10.34072,5.61216-14.44834,9.61465
		c-4.10763,4.00267-7.32679,8.73123-9.71979,14.0854c-2.39281,5.35417-3.58697,11.01891-3.58697,16.99401v62.94195
		c-0.15753,2.23547,0.20542,4.36093,1.14159,6.39081c0.93617,2.02986,2.13501,3.79706,3.69211,5.35417
		c1.50921,1.56178,3.32898,2.75594,5.35417,3.58698c2.02987,0.88359,4.26047,1.2991,6.65329,1.2991
		c4.41818,0,8.21057-1.5092,11.38203-4.47057c3.17146-2.96603,4.88609-6.49576,5.24903-10.60339V82.97678
		c0.15771-3.38173,1.40425-6.18538,3.69211-8.42067c2.28785-2.23528,5.0915-3.3243,8.31553-3.3243
		c2.91347,0,5.56445,1.0937,7.95258,3.22403c2.38813,2.13014,3.68725,4.88609,3.84478,8.31553v31.70016
		c0,4.26048,1.66224,7.90002,5.09168,10.86137c3.38155,2.96135,7.22652,4.47057,11.48681,4.47057
		c4.62828,0,8.57838-1.66206,11.90268-4.88609c3.32899-3.22402,4.99123-7.12155,4.99123-11.74497V82.77137
		c0-3.73982,1.19884-6.6009,3.69193-8.57352c2.44556-1.97262,5.14893-2.96118,8.05772-2.96118
		c3.42926,0,6.28548,1.08884,8.57333,3.3243c2.28786,2.18272,3.42944,4.9338,3.42944,8.15782v62.20653
		c0,4.418,1.66692,8.31552,4.99123,11.63983c3.32431,3.32898,7.22166,4.99104,11.63984,4.99104
		c4.418,0,8.31552-1.55692,11.7448-4.62341c3.37686-3.06633,5.09167-6.64862,5.09167-10.75606v-45.41307h6.63763v47.2881
		c0,4.63135,2.72893,8.2365,5.86221,10.77155c3.18568,2.58311,7.07205,3.85072,11.58098,3.85072
		c5.03893-0.29399,8.29913-1.89917,11.27003-4.77628c2.97072-2.87711,3.73299-6.43382,3.73299-10.77135v-46.36275h5.02364
		c0.07687,8.96761,1.63882,17.24371,4.69417,24.79878c3.1286,7.74716,7.47981,14.38138,13.05363,19.95537
		c5.52142,5.56912,12.20819,9.92033,19.95535,13.05363c7.74718,3.13329,16.2395,4.72369,25.47211,4.72369
		c7.32193,0,13.16345-0.58276,17.61963-1.80537c4.45636-1.22278,8.38718-2.81319,11.88828-4.72388v0.26753
		c1.2226,4.88141-0.10513,10.18787-3.92615,15.91939c-1.53802,1.91051-3.66348,3.02347-6.26172,3.39597h-19.31535
		c-5.25389,0.15752-10.13998,0.95525-14.6489,2.33556c-10.08273,2.9709-17.77733,7.74718-22.97865,14.38138
		c-2.9709,3.291-4.29883,7.16458-4.0313,11.62074c0.26266,4.46103,2.06822,8.22479,5.35904,11.35809
		c3.50092,3.44852,7.64201,5.20132,12.41829,5.20132c4.77626,0,8.91737-1.69556,12.41847-4.98637
		c3.34338-3.28613,7.1644-5.09151,11.51561-5.46417h8.32022v0.0956h1.48544h8.86481
		c6.26172-0.3201,12.10324-1.75298,17.51468-4.29863c5.35901-2.49329,10.03033-5.83667,13.9563-10.03035
		c3.93103-4.1935,7.05945-9.285,9.39502-15.28406c2.38812-6.05162,3.44852-11.56818,3.2908-16.61197
		c0-15.33662-2.54565-26.37462-7.58945-33.16653c4.95288-8.91143,7.48233-19.16196,7.57236-30.73572h3.10574
		c-0.00037,0.09704-0.01334,0.18939-0.01334,0.28661c0,9.01765,1.69556,17.40484,4.98636,25.04687
		c3.28616,7.64203,7.85233,14.27623,13.58383,19.95537c5.73154,5.67896,12.47089,10.08273,20.11292,13.21602
		c7.69458,3.1331,15.86697,4.72369,24.56924,4.72369c8.91736,0,17.19473-1.69554,24.83676-4.98654
		c7.64203-3.28596,14.2764-7.85213,19.95535-13.58365c5.62656-5.7317,10.13531-12.36591,13.42612-19.95537
		c3.34338-7.58964,4.98654-15.70929,4.98654-24.41171C447.29028,92.13757,445.58987,83.86039,442.19394,76.21818z
		 M228.07349,89.15749c1.64783-3.50092,3.821-6.57695,6.52924-9.285c2.70337-2.70823,5.78409-4.88627,9.285-6.52924
		c3.5011-1.64298,7.16441-2.49328,10.98543-2.49328c3.82118,0,7.53706,0.7403,11.09541,2.38345
		c3.55835,1.53784,6.68677,3.66331,9.39499,6.26172c2.70807,2.6508,4.88611,5.72666,6.52927,9.285
		c1.55331,3.3641,2.37085,6.96817,2.45853,10.71303h-58.73495C225.70767,95.90817,226.51997,92.45803,228.07349,89.15749z
		 M282.15549,111.39117c-1.48544,3.45321-3.55835,6.63421-6.15677,9.395c-2.60309,2.76062-5.73151,4.93866-9.39481,6.52907
		c-3.61093,1.53802-7.54193,2.33575-11.73059,2.33575c-4.18881,0-8.06726-0.8503-11.62074-2.49328
		c-3.60623-1.64783-6.68695-3.82101-9.28519-6.52924c-2.65567-2.70805-4.67113-5.84134-6.15659-9.395
		c-1.40443-3.35959-2.12331-6.86807-2.20018-10.4698h58.74594C284.2822,104.55533,283.56262,108.07442,282.15549,111.39117z
		 M410.98563,112.36514c-1.53802,3.55835-3.66348,6.68696-6.26172,9.395c-2.65082,2.70338-5.73154,4.82884-9.28519,6.41943
		c-3.55835,1.53784-7.37936,2.33556-11.35791,2.33556c-4.03598,0-7.75201-0.74515-11.25293-2.33556
		c-3.5011-1.59059-6.57697-3.7112-9.28519-6.41943c-2.70337-2.70805-4.82886-5.84134-6.41925-9.395
		c-1.53802-3.55834-2.33575-7.32679-2.33575-11.3579c0-4.18882,0.74515-8.06727,2.33575-11.62075
		c1.59039-3.55348,3.71118-6.68678,6.41925-9.28519c2.70337-2.65548,5.78409-4.67113,9.28519-6.15658
		c3.50577-1.48545,7.22165-2.23061,11.25293-2.23061c8.33463,0.36781,15.23148,3.34357,20.6431,8.9127
		c5.35904,5.57381,8.22479,12.36573,8.59729,20.38042C413.3212,104.99065,412.5762,108.81166,410.98563,112.36514z"/>
</g>
<g>
	<defs>
		<path id="SVGID_13_" d="M263.67502,208.30763h-8.32985c-4.3512,0.37256-8.17224,2.17799-11.51564,5.46407
			c-3.50102,3.29088-7.64207,4.98643-12.41837,4.98643s-8.91734-1.75288-12.41837-5.20137
			c-3.29086-3.13324-5.0963-6.89696-5.35899-11.35802c-0.26747-4.45627,1.06033-8.32986,4.03119-11.62071
			c5.20139-6.63426,12.896-11.41055,22.97874-14.38142c4.50882-1.38036,9.39497-2.17799,14.6489-2.3356h19.31534
			c2.5983-0.37254,4.72372-1.48543,6.26172-3.39594c3.82101-5.73155,5.14883-11.03801,3.92609-15.91939v-0.26747
			c-3.50101,1.91054-7.43188,3.50104-11.88818,4.72375c-4.45627,1.22272-10.29767,1.80544-17.61974,1.80544
			c-9.23257,0-17.72482-1.59052-25.47197-4.72375s-14.43394-7.48445-19.95534-13.05362
			c-5.57394-5.57393-9.92516-12.20821-13.05362-19.95535c-3.13324-7.74715-4.72375-16.2394-4.72375-25.47197
			c0-8.5448,1.75291-16.61195,5.20139-24.30656c3.50102-7.64207,8.11971-14.38143,13.95633-20.11296
			c5.83662-5.73156,12.52344-10.29768,20.11298-13.69363c7.58952-3.39594,15.55161-5.09631,23.88145-5.09631
			c8.70242,0,16.87463,1.64305,24.56924,4.98644c7.64206,3.29086,14.38144,7.85223,20.11298,13.58379
			s10.24036,12.47091,13.42615,20.11296c3.23834,7.64206,4.82886,15.86684,4.82886,24.56925
			c0,11.83566-2.54578,22.29096-7.58954,31.36593c5.04376,6.79189,7.58954,17.82991,7.58954,33.16658
			c0.15762,5.04376-0.90271,10.56038-3.29086,16.61194c-2.3356,5.99901-5.46408,11.09055-9.39496,15.28413
			c-3.92612,4.19357-8.59735,7.537-13.95633,10.0302c-5.41156,2.54576-11.25296,3.97865-17.51468,4.29868h-8.86481h-1.48541v-0.0955
			H263.67502z M255.28786,68.36223c-3.82103,0-7.48445,0.85019-10.98547,2.49323s-6.58173,3.82103-9.28511,6.5292
			c-2.70816,2.70816-4.88138,5.78408-6.52921,9.28511s-2.49321,7.16444-2.49321,10.98547s0.7451,7.53699,2.23053,11.09055
			s3.50102,6.68681,6.15663,9.39496c2.59831,2.70817,5.67902,4.88137,9.28513,6.5292
			c3.55356,1.64305,7.4319,2.49323,11.62071,2.49323c4.18883,0,8.11971-0.79765,11.73058-2.3356
			c3.66342-1.59051,6.7919-3.7685,9.39499-6.5292c2.5983-2.76069,4.6712-5.9417,6.15665-9.39496
			c1.48541-3.50104,2.2305-7.21699,2.2305-11.25294c0-3.97865-0.85016-7.79968-2.49319-11.35802s-3.82104-6.63427-6.52921-9.28511
			c-2.70816-2.5983-5.83664-4.72375-9.39496-6.26173C262.82483,69.10255,259.10889,68.36223,255.28786,68.36223z"/>
	</defs>
	<clipPath id="SVGID_14_">
		<use xlink:href="#SVGID_13_"  overflow="visible"/>
	</clipPath>
	<linearGradient id="SVGID_15_" gradientUnits="userSpaceOnUse" x1="0.00003" y1="108.65758" x2="447.70493" y2="108.65758">
		<stop  offset="0" style="stop-color:#FF7607"/>
		<stop  offset="0.5293" style="stop-color:#FF2940"/>
		<stop  offset="0.8306" style="stop-color:#FF025D"/>
	</linearGradient>
	<path clip-path="url(#SVGID_14_)" fill="url(#SVGID_15_)" d="M442.60855,73.73043
		c-3.39597-7.64203-7.96213-14.38137-13.69363-20.1129c-5.73154-5.73152-12.47089-10.29301-20.11292-13.58383
		c-7.69458-3.34339-15.76184-4.98637-24.30655-4.98637c-8.91739,0.31992-17.19476,2.17804-24.98477,5.66941
		c-7.74716,3.39596-14.43393,7.90488-20.11307,13.58383c-5.67896,5.67895-10.08273,12.26077-13.32098,19.85022
		c-3.04202,7.1293-4.57498,14.7463-4.75629,22.85461h-3.17758c-0.07724-8.4628-1.64117-16.47695-4.79913-23.92905
		c-3.18567-7.64203-7.69458-14.38137-13.42612-20.1129c-5.73151-5.73152-12.47086-10.29301-20.11288-13.58383
		c-7.69461-3.34339-15.86682-4.98636-24.56924-4.98636c-8.32993,0-16.29205,1.70041-23.88152,5.09618
		c-7.58946,3.39596-14.27641,7.96213-20.1129,13.69365c-5.83665,5.73152-10.4554,12.47105-13.95631,20.11308
		c-3.36697,7.51276-5.08971,15.38793-5.17053,23.70923h-5.02507V59.74729c0-4.28928-1.31694-7.99093-4.34041-11.01278
		c-2.55215-2.58743-5.44185-3.99943-8.97302-4.40036V32.36683c3.80734-0.37159,7.15756-1.96506,9.99164-4.93703
		c3.23825-3.39614,4.82884-7.37936,4.82884-11.88828c0-4.5136-1.59059-8.49232-4.82884-11.8881
		c-3.23357-3.39596-7.11183-5.09637-11.62074-5.09637c-4.50874,0-8.49232,1.48545-11.88811,4.67599
		c-3.39595,3.18568-5.20151,7.00687-5.35902,11.51561c0,5.57399,1.59041,9.9252,4.82883,12.94849
		c2.69455,2.51578,6.04802,4.01833,9.99164,4.56311v12.13078c-3.63504,0.48735-6.85654,1.79799-9.67136,4.0979
		c-3.28595,2.73236-5.40565,6.19276-5.40565,10.3328v38.18368h-6.63763V79.50497c0-6.13263-1.19902-11.95021-3.69211-17.40952
		c-2.49327-5.45931-5.82243-10.1353-9.97777-14.08522c-4.21259-3.9501-9.04629-7.06898-14.60588-9.35684
		c-5.50702-2.28786-11.27689-3.42944-17.25199-3.42944c-10.91376,0-20.47584,3.3243-28.63384,9.97777
		c-4.05019-3.38155-8.52094-5.92739-13.40703-7.53707c-4.88609-1.60949-9.87732-2.4407-14.96882-2.4407
		c-6.29052,0-12.21306,1.19416-17.67705,3.52972c-5.55959,2.39299-10.34072,5.61216-14.44834,9.61465
		c-4.10763,4.00267-7.32679,8.73122-9.71979,14.0854c-2.39281,5.35417-3.58697,11.0189-3.58697,16.994v62.94196
		c-0.15753,2.23546,0.20542,4.36093,1.14159,6.39079c0.93617,2.02988,2.13501,3.79707,3.69211,5.35417
		c1.50921,1.5618,3.32898,2.75595,5.35417,3.58698c2.02987,0.88361,4.26047,1.29912,6.65329,1.29912
		c4.41818,0,8.21057-1.50922,11.38203-4.47057c3.17146-2.96605,4.88609-6.49576,5.24903-10.60339V80.48904
		c0.15771-3.38174,1.40426-6.18539,3.69211-8.42067c2.28786-2.23529,5.09151-3.3243,8.31553-3.3243
		c2.91347,0,5.56445,1.0937,7.95258,3.22402c2.38813,2.13015,3.68725,4.88609,3.84478,8.31553v31.70016
		c0,4.26048,1.66224,7.90002,5.09169,10.86137c3.38155,2.96136,7.22651,4.47057,11.48681,4.47057
		c4.62828,0,8.57838-1.66206,11.90268-4.88609c3.32899-3.22403,4.99123-7.12155,4.99123-11.74497V80.28362
		c0-3.73981,1.19884-6.6009,3.69193-8.57352c2.44556-1.97262,5.14893-2.96117,8.05772-2.96117
		c3.42926,0,6.28548,1.08884,8.57333,3.3243c2.28786,2.18272,3.42944,4.93379,3.42944,8.15782v62.20651
		c0,4.41801,1.66692,8.31554,4.99123,11.63985c3.3243,3.32898,7.22165,4.99104,11.63984,4.99104
		c4.418,0,8.31552-1.55693,11.7448-4.62343c3.37686-3.06631,5.09167-6.64861,5.09167-10.75604V98.2759h6.63763v47.28811
		c0,4.63135,2.72893,8.2365,5.86221,10.77155c3.18568,2.5831,7.07205,3.85071,11.58096,3.85071
		c5.03894-0.29399,8.29915-1.89915,11.27005-4.77626c2.97072-2.87711,3.73299-6.43382,3.73299-10.77136V98.2759h5.02362
		c0.07687,8.96761,1.63884,17.24371,4.69418,24.79879c3.1286,7.74716,7.47981,14.38136,13.05362,19.95537
		c5.52142,5.56912,12.20821,9.92033,19.95537,13.05362c7.74718,3.1333,16.23949,4.72371,25.47211,4.72371
		c7.32195,0,13.16347-0.58276,17.61961-1.80537c4.45636-1.22278,8.38721-2.81319,11.88828-4.72388v0.26753
		c1.22263,4.88141-0.10513,10.18787-3.92615,15.91939c-1.53802,1.91051-3.66348,3.02347-6.26172,3.39595h-19.31534
		c-5.25389,0.15753-10.13998,0.95526-14.6489,2.33557c-10.08273,2.9709-17.77733,7.74716-22.97865,14.38138
		c-2.9709,3.29099-4.29883,7.16458-4.0313,11.62074c0.26266,4.46103,2.06821,8.22479,5.35902,11.35808
		c3.50092,3.44853,7.64203,5.20132,12.4183,5.20132c4.77626,0,8.91737-1.69554,12.41847-4.98636
		c3.34338-3.28613,7.1644-5.09151,11.51561-5.46417h8.32021v0.0956h1.48544h8.86484
		c6.26172-0.3201,12.10321-1.75298,17.51465-4.29865c5.35904-2.49327,10.03033-5.83665,13.95633-10.03033
		c3.931-4.19351,7.05942-9.285,9.39499-15.28406c2.38812-6.05162,3.44852-11.56818,3.29083-16.61198
		c0-15.33662-2.54568-26.3746-7.58948-33.16652c4.95288-8.91144,7.48236-19.16196,7.57236-30.73573h3.10574
		c-0.00037,0.09704-0.01331,0.1894-0.01331,0.28661c0,9.01766,1.69553,17.40485,4.98636,25.04688
		c3.28613,7.64203,7.85229,14.27623,13.58383,19.95537c5.73151,5.67894,12.47086,10.08272,20.11288,13.21602
		c7.69461,3.1331,15.867,4.72369,24.56924,4.72369c8.91739,0,17.19473-1.69556,24.83676-4.98654
		c7.64203-3.28596,14.27643-7.85213,19.95538-13.58365c5.62656-5.7317,10.13528-12.36591,13.42612-19.95537
		c3.34338-7.58964,4.98654-15.7093,4.98654-24.41171C447.70493,89.64982,446.00452,81.37263,442.60855,73.73043z M228.4881,86.66974
		c1.64784-3.50092,3.82101-6.57696,6.52925-9.28501c2.70337-2.70823,5.78409-4.88626,9.285-6.52924
		c3.5011-1.64297,7.1644-2.49327,10.98541-2.49327c3.82121,0,7.53706,0.7403,11.09541,2.38345
		c3.55835,1.53783,6.68677,3.66331,9.39502,6.26172c2.70804,2.65079,4.88608,5.72665,6.52924,9.285
		c1.55331,3.36409,2.37085,6.96816,2.45853,10.71303h-58.73494C226.1223,93.42043,226.9346,89.97028,228.4881,86.66974z
		 M282.5701,108.90341c-1.48544,3.45321-3.55835,6.63421-6.15674,9.39501c-2.60312,2.76062-5.73154,4.93865-9.39484,6.52906
		c-3.61093,1.53802-7.54193,2.33575-11.73058,2.33575c-4.18881,0-8.06726-0.8503-11.62074-2.49327
		c-3.60625-1.64784-6.68697-3.82101-9.28519-6.52924c-2.65567-2.70805-4.67113-5.84135-6.15659-9.39501
		c-1.40443-3.35959-2.12331-6.86806-2.20018-10.4698h58.74593C284.69684,102.06757,283.97723,105.58667,282.5701,108.90341z
		 M411.40024,109.8774c-1.53802,3.55834-3.66348,6.68695-6.26172,9.395c-2.65079,2.70337-5.73151,4.82883-9.28519,6.41943
		c-3.55835,1.53784-7.37936,2.33556-11.35788,2.33556c-4.03598,0-7.75204-0.74516-11.25296-2.33556
		c-3.5011-1.59059-6.57697-3.7112-9.28519-6.41943c-2.70337-2.70805-4.82883-5.84134-6.41925-9.395
		c-1.53802-3.55835-2.33572-7.3268-2.33572-11.3579c0-4.18883,0.74515-8.06727,2.33572-11.62076
		c1.59042-3.55348,3.71121-6.68677,6.41925-9.28518c2.70337-2.65549,5.78409-4.67113,9.28519-6.15658
		c3.50577-1.48545,7.22165-2.23061,11.25296-2.23061c8.33459,0.36781,15.23148,3.34357,20.64307,8.9127
		c5.35904,5.57381,8.22479,12.36572,8.59729,20.38042C413.73581,102.50289,412.99084,106.32391,411.40024,109.8774z"/>
</g>
<g id="seguros_1_">
	<path fill="#FF0C51" d="M337.28461,195.08693c0.42508,0.85014,1.06027,1.43283,1.85788,1.91043
		c0.85013,0.42506,1.70026,0.63524,2.59818,0.63524c0.42505,0,0.85013-0.05255,1.27518-0.21014
		c0.42508-0.15759,0.79761-0.32001,1.11282-0.58269c0.32001-0.26746,0.5827-0.53014,0.79761-0.90269
		c0.21014-0.37254,0.32001-0.74506,0.32001-1.16536c0-0.68774-0.21014-1.27521-0.68774-1.59044
		c-0.4776-0.31522-1.00775-0.63522-1.70029-0.85014c-0.68774-0.21013-1.38028-0.37254-2.23041-0.53014
		s-1.53787-0.37254-2.23041-0.68774c-0.68774-0.31999-1.22269-0.74504-1.70026-1.27519
		c-0.4776-0.53014-0.68777-1.27519-0.68777-2.28293c0-0.74506,0.15762-1.43283,0.4776-1.96298
		c0.32001-0.53014,0.74506-1.00774,1.22269-1.38028c0.4776-0.37254,1.06027-0.63524,1.70026-0.79761
		s1.27521-0.26746,1.91043-0.26746c1.27521,0,2.38803,0.21014,3.29068,0.68774c0.90268,0.4776,1.64297,1.22266,2.17789,2.23042
		l-1.80533,1.06029c-0.37253-0.68774-0.85016-1.27519-1.4328-1.64297c-0.5827-0.36777-1.32776-0.53014-2.23044-0.53014
		c-0.37253,0-0.74506,0.05254-1.11282,0.15759c-0.37253,0.10509-0.74506,0.26746-1.06027,0.4776
		c-0.32001,0.21014-0.5827,0.4776-0.79761,0.74506c-0.21014,0.32001-0.32001,0.68774-0.32001,1.06029
		c0,0.68773,0.21014,1.22266,0.68777,1.53787c0.4776,0.31523,1.00772,0.58269,1.70026,0.79761
		c0.68777,0.21014,1.38028,0.37254,2.23041,0.4776c0.79761,0.15759,1.5379,0.37254,2.23041,0.63522
		c0.68777,0.32001,1.22269,0.74506,1.70029,1.32774s0.68774,1.38028,0.68774,2.44057c0,0.79761-0.15759,1.48534-0.42508,2.06802
		c-0.31998,0.58269-0.68774,1.11282-1.22266,1.48534c-0.53015,0.42506-1.11282,0.68774-1.80533,0.90269
		c-0.68777,0.21014-1.38031,0.31999-2.12057,0.31999c-1.32776,0-2.54565-0.26746-3.66324-0.74506
		c-1.11282-0.53014-1.96295-1.32773-2.54562-2.38802L337.28461,195.08693z"/>
	<path fill="#FF0C51" d="M365.14331,196.09468c-0.79761,1.16536-1.75281,2.01547-2.91818,2.54561
		c-1.16534,0.53015-2.388,0.74506-3.82083,0.74506c-1.16534,0-2.23041-0.21013-3.23816-0.58267
		c-0.95523-0.42506-1.80536-0.9552-2.4931-1.7003c-0.68774-0.74509-1.22266-1.59042-1.59042-2.59816
		c-0.37253-1.00774-0.53015-2.06802-0.53015-3.29071c0-1.16537,0.21014-2.23044,0.5827-3.23817
		c0.37253-1.00774,0.90265-1.85788,1.59042-2.54562c0.68774-0.74506,1.48535-1.27519,2.44055-1.70029
		c0.95523-0.42505,1.96295-0.63522,3.13309-0.63522s2.23041,0.21014,3.13309,0.63522
		c0.90268,0.42506,1.64297,0.9552,2.28296,1.64297c0.63522,0.68774,1.06027,1.43283,1.38028,2.33548
		c0.32001,0.85014,0.4776,1.75279,0.4776,2.65549v1.38028h-13.0004c0,0.42506,0.10504,0.9552,0.26746,1.64297
		c0.15759,0.63522,0.4776,1.27519,0.90265,1.91043c0.42508,0.63522,1.0603,1.16537,1.80536,1.59042s1.70026,0.68773,2.91815,0.68773
		c1.00775,0,2.0155-0.26746,2.9707-0.74504c0.95523-0.4776,1.70029-1.16537,2.23044-2.01549L365.14331,196.09468z
		 M363.60544,189.99089c0-0.68774-0.15762-1.32774-0.42508-1.96298c-0.26746-0.58269-0.63522-1.11282-1.11282-1.59042
		s-1.0603-0.79759-1.70029-1.11282c-0.63519-0.26746-1.38028-0.42506-2.06802-0.42506c-1.11282,0-2.0155,0.21014-2.70801,0.68774
		c-0.74506,0.42505-1.27521,0.9552-1.70029,1.53789s-0.74506,1.16536-0.90268,1.70029
		c-0.15759,0.53014-0.26746,0.90268-0.26746,1.11282h10.87985L363.60544,189.99089L363.60544,189.99089z"/>
	<path fill="#FF0C51" d="M385.62781,198.0051c0,1.91043-0.26746,3.44832-0.85016,4.67097
		c-0.58267,1.16536-1.27521,2.12056-2.06802,2.76056c-0.85013,0.63524-1.75281,1.06029-2.70804,1.32774
		c-0.9552,0.21014-1.80533,0.32001-2.59814,0.32001c-0.79285,0-1.5379-0.05255-2.28296-0.21014s-1.43283-0.37254-2.12057-0.63522
		c-0.68774-0.26746-1.27521-0.63524-1.80533-1.00774c-0.53015-0.42506-1.00775-0.85016-1.43283-1.38029l1.59042-1.48534
		c0.68777,1.00774,1.59045,1.75279,2.65549,2.23042c1.0603,0.4776,2.23041,0.68774,3.39578,0.68774
		c1.00772,0,1.91043-0.15759,2.59814-0.42505c0.68774-0.26746,1.27521-0.63524,1.75284-1.06029
		c0.4776-0.42505,0.79758-0.90269,1.06027-1.43283c0.26746-0.53014,0.42508-1.06029,0.58267-1.59042
		c0.10507-0.53015,0.21014-1.00774,0.21014-1.48534s0.05255-0.85014,0.05255-1.11282v-2.12057h-0.05255
		c-0.58267,0.9552-1.38028,1.70029-2.33548,2.23042c-1.00772,0.53015-2.17789,0.79761-3.50085,0.79761
		c-1.11282,0-2.23041-0.21014-3.23816-0.63524c-1.00775-0.42505-1.85788-1.00774-2.65549-1.70029
		c-0.74506-0.74506-1.32773-1.59042-1.75281-2.54561c-0.42508-0.9552-0.63522-1.96298-0.63522-3.07578
		c0-1.11282,0.21014-2.12056,0.63522-3.07576s1.00775-1.80534,1.75281-2.49312c0.74509-0.68777,1.64297-1.27519,2.65549-1.70029
		c1.00775-0.42508,2.06805-0.63522,3.23816-0.63522c1.32776,0,2.4931,0.26746,3.50085,0.79759
		c1.00775,0.53015,1.80536,1.27521,2.33548,2.23044h0.05255v-2.59821h2.0155v14.38069h-0.04776
		C385.62781,198.03374,385.62781,198.0051,385.62781,198.0051z M383.66483,191.10371c0-0.85014-0.15759-1.64297-0.47757-2.38803
		c-0.32001-0.74506-0.74506-1.38028-1.32776-1.96297c-0.53015-0.53015-1.22266-0.9552-1.96295-1.32774
		c-0.74506-0.32001-1.53787-0.4776-2.38803-0.4776c-0.85013,0-1.64297,0.15759-2.38803,0.4776s-1.38028,0.74506-1.96295,1.32774
		c-0.53012,0.53014-1.00772,1.22266-1.32773,1.96297c-0.32001,0.74506-0.4776,1.53789-0.4776,2.38803
		s0.15762,1.64296,0.4776,2.38802c0.32001,0.74506,0.74506,1.38029,1.32773,1.96298
		c0.53015,0.53014,1.16537,1.00774,1.96295,1.32774c0.74506,0.31999,1.5379,0.47758,2.38803,0.47758
		c0.85016,0,1.64297-0.15759,2.38803-0.47758c0.74506-0.32001,1.38028-0.74506,1.96295-1.32774
		c0.53015-0.53015,1.00775-1.16537,1.32776-1.96298C383.50244,192.75145,383.66483,191.95386,383.66483,191.10371z"/>
	<path fill="#FF0C51" d="M403.61441,194.66185c0,0.26746,0,0.63522,0.05252,1.06027c0,0.42506,0.05255,0.85014,0.05255,1.27521
		c0,0.42505,0.05255,0.79759,0.05255,1.16537c0,0.37254,0.05255,0.63522,0.05255,0.85014h-2.0155
		c0-0.58269-0.05255-1.11284-0.05255-1.70029c0-0.53015-0.05255-0.90269-0.10507-1.06029h-0.10507
		c-0.42508,0.85014-1.06027,1.59042-2.0155,2.17789c-0.9552,0.63522-2.0155,0.90268-3.29068,0.90268
		c-1.22269,0-2.17789-0.21013-2.9707-0.58269c-0.79761-0.37254-1.38031-0.90268-1.80536-1.48534
		c-0.42508-0.63522-0.74506-1.32774-0.90268-2.12056c-0.15759-0.79761-0.21011-1.64297-0.21011-2.49312v-9.17955h2.01547v9.12704
		c0,0.63522,0.05255,1.22266,0.15762,1.80534s0.32001,1.11282,0.5827,1.59042c0.26746,0.4776,0.68774,0.85014,1.16534,1.11282
		c0.4776,0.26746,1.16534,0.42505,1.96295,0.42505c0.74506,0,1.4328-0.10509,2.06802-0.37254s1.22266-0.63522,1.70026-1.16537
		c0.4776-0.53014,0.85016-1.16536,1.11285-1.96297c0.26746-0.79759,0.42505-1.70029,0.42505-2.81308v-7.74677h2.0155v11.19508
		h0.05731v-0.00478H403.61441z"/>
	<path fill="#FF0C51" d="M409.13553,187.92287c0-0.26747,0-0.63524-0.05255-1.06029c0-0.42506-0.05255-0.85014-0.05255-1.27521
		c0-0.42505-0.05255-0.79759-0.05255-1.16536c0-0.37256-0.05252-0.63524-0.05252-0.85014h2.01547
		c0,0.58267,0.05255,1.11282,0.05255,1.70029c0,0.53014,0.05255,0.90268,0.10507,1.06027
		c0.53015-0.90268,1.16537-1.64296,1.96295-2.23042c0.79761-0.58269,1.80536-0.85014,2.97073-0.85014
		c0.21011,0,0.37253,0,0.58267,0.05254c0.21014,0.05255,0.37253,0.05255,0.58267,0.1051l-0.21011,1.96292
		c-0.26746-0.10509-0.53015-0.15759-0.74506-0.15759c-0.85016,0-1.64297,0.15759-2.28296,0.42506
		c-0.63998,0.26746-1.16537,0.68773-1.59042,1.16536c-0.42508,0.4776-0.74506,1.06029-0.90268,1.70029
		c-0.21014,0.63524-0.32001,1.38029-0.32001,2.12057v8.43927h-2.0155L409.13553,187.92287L409.13553,187.92287z"/>
	<path fill="#FF0C51" d="M418.79269,191.26608c0-1.16537,0.21014-2.28294,0.58267-3.23817
		c0.42508-1.00774,0.95523-1.85788,1.70029-2.59816c0.68774-0.74506,1.59042-1.27521,2.59814-1.70029
		c1.00775-0.42506,2.06802-0.58269,3.29071-0.58269c1.16534,0,2.28296,0.21014,3.23816,0.58269
		c1.00775,0.42505,1.85788,0.95518,2.59818,1.70029c0.74506,0.74506,1.27521,1.59042,1.70026,2.59816
		c0.42508,1.00774,0.5827,2.06802,0.5827,3.23817c0,1.16537-0.21014,2.28293-0.5827,3.29071
		c-0.42505,1.00774-0.9552,1.85788-1.70026,2.59816c-0.74506,0.74506-1.59042,1.27521-2.59818,1.70029
		c-1.00772,0.42509-2.06802,0.58269-3.23816,0.58269s-2.28296-0.21013-3.29071-0.58269
		c-1.00772-0.42505-1.85788-0.95518-2.59814-1.70029c-0.68777-0.74506-1.27521-1.59042-1.70029-2.59816
		C419.0076,193.54428,418.79269,192.48399,418.79269,191.26608z M420.8082,191.26608c0,0.85014,0.15759,1.70029,0.42508,2.44057
		c0.26746,0.74506,0.68774,1.43283,1.22266,2.01547c0.53015,0.58269,1.16534,1.00775,1.96295,1.38029
		c0.74506,0.32001,1.59042,0.4776,2.54565,0.4776c0.9552,0,1.80533-0.15759,2.54562-0.4776s1.38028-0.79761,1.96295-1.38029
		c0.53015-0.58267,0.95523-1.22264,1.22269-2.01547c0.26746-0.79759,0.42505-1.59042,0.42505-2.44057
		s-0.15759-1.70029-0.42505-2.44057c-0.26746-0.74506-0.68777-1.43283-1.22269-2.01549
		c-0.53015-0.58269-1.16534-1.00774-1.96295-1.38028c-0.74506-0.32001-1.59042-0.4776-2.54562-0.4776
		c-0.95523,0-1.80536,0.15759-2.54565,0.4776c-0.74506,0.31999-1.38028,0.79759-1.96295,1.38028s-0.9552,1.22266-1.22266,2.01549
		C420.97058,189.61833,420.8082,190.41594,420.8082,191.26608z"/>
	<path fill="#FF0C51" d="M439.59717,195.08693c0.42508,0.85014,1.06027,1.43283,1.85788,1.91043
		c0.85013,0.42506,1.70026,0.63524,2.59818,0.63524c0.42505,0,0.85013-0.05255,1.27518-0.21014
		c0.42508-0.15759,0.79761-0.32001,1.11282-0.58269c0.32001-0.26746,0.5827-0.53014,0.79761-0.90269
		c0.21014-0.37254,0.32001-0.74506,0.32001-1.16536c0-0.68774-0.21014-1.27521-0.68774-1.59044
		c-0.4776-0.31999-1.00772-0.63522-1.70029-0.85014c-0.68774-0.21013-1.38028-0.37254-2.23041-0.53014
		c-0.79761-0.15759-1.53787-0.37254-2.23041-0.68774c-0.68774-0.31999-1.22266-0.74504-1.70026-1.27519
		c-0.4776-0.53014-0.68777-1.27519-0.68777-2.28293c0-0.74506,0.15762-1.43283,0.4776-1.96298
		c0.32001-0.58269,0.74506-1.00774,1.22269-1.38028c0.4776-0.37254,1.06027-0.63524,1.70026-0.79761
		s1.27521-0.26746,1.91043-0.26746c1.27521,0,2.38803,0.21014,3.29071,0.68774s1.64297,1.22266,2.17789,2.23042l-1.80533,1.06029
		c-0.37256-0.68774-0.85016-1.27519-1.43283-1.64297c-0.5827-0.36777-1.32776-0.53014-2.23044-0.53014
		c-0.37253,0-0.74506,0.05254-1.11282,0.15759c-0.37253,0.10509-0.74506,0.26746-1.0603,0.4776
		c-0.31522,0.21014-0.58267,0.4776-0.79758,0.74506c-0.21014,0.32001-0.32001,0.68774-0.32001,1.06029
		c0,0.68773,0.21014,1.22266,0.68774,1.53787c0.4776,0.32001,1.00775,0.58269,1.70029,0.79761
		c0.68771,0.21014,1.38028,0.37254,2.23041,0.4776c0.79761,0.15759,1.5379,0.37254,2.23044,0.63522
		c0.68774,0.32001,1.22266,0.74506,1.70029,1.32774c0.4776,0.58269,0.68774,1.38028,0.68774,2.44057
		c0,0.79761-0.15759,1.48534-0.42505,2.06802c-0.32001,0.58269-0.68774,1.11282-1.22266,1.48534
		c-0.53015,0.42506-1.11282,0.68774-1.80536,0.90269c-0.68771,0.21014-1.38028,0.31999-2.12054,0.31999
		c-1.32776,0-2.54565-0.26746-3.66324-0.74506c-1.11282-0.53014-1.96295-1.32773-2.54562-2.38802L439.59717,195.08693z"/>
</g>
</svg>
