<?xml version="1.0" encoding="utf-8"?>
<!-- Generator: Adobe Illustrator 17.0.0, SVG Export Plug-In . SVG Version: 6.00 Build 0)  -->
<!DOCTYPE svg PUBLIC "-//W3C//DTD SVG 1.1//EN" "http://www.w3.org/Graphics/SVG/1.1/DTD/svg11.dtd">
<svg version="1.1" id="Capa_1" xmlns="http://www.w3.org/2000/svg" xmlns:xlink="http://www.w3.org/1999/xlink" x="0px" y="0px"
	 width="60px" height="24px" viewBox="0 0 60 24" enable-background="new 0 0 60 24" xml:space="preserve">
<g id="PRIMEROSEGUROS">
	<path fill="#0042A1" d="M-0.0097,6.1628c0.0504-0.1311,0.0908-0.2623,0.1513-0.3884c0.1967-0.4136,0.5245-0.7112,0.9785-0.7112
		C2.3608,5.0532,3.6167,4.9876,4.8372,5.149c2.3251,0.3127,3.9694,2.7236,3.5608,5.0336c-0.4085,2.2797-2.1789,3.7676-4.4989,3.7676
		c-0.4539,0-0.9028,0-1.382,0c0,0.7717,0.005,1.503,0,2.2394c0,0.1816-0.005,0.3682-0.0504,0.5397
		c-0.1412,0.5195-0.6355,0.8776-1.1701,0.8877c-0.5296,0.0101-0.9986-0.3228-1.1802-0.8322
		c-0.0353-0.1009-0.0757-0.2068-0.111-0.3077C-0.0097,13.0373-0.0097,9.6026-0.0097,6.1628z M2.5222,11.4486
		c0.5296,0,1.0239,0.005,1.5131,0c0.9583-0.0101,1.7552-0.7112,1.9015-1.6644C6.078,8.841,5.5181,7.8625,4.5901,7.6608
		C3.9243,7.5145,3.2182,7.5599,2.5222,7.5195C2.5222,8.8662,2.5222,10.1372,2.5222,11.4486z"/>
	<path fill="#0042A1" d="M27.0091,5.9258c0.691-0.58,1.4929-0.9179,2.421-0.923c2.0477-0.0151,3.7474,1.619,3.7827,3.6718
		c0.0202,1.3517,0.0101,2.7084,0.005,4.0601c-0.005,0.7364-0.5498,1.2811-1.2559,1.276c-0.7162-0.005-1.2256-0.5346-1.2256-1.2912
		c-0.005-1.3013,0.005-2.6076-0.005-3.9088c-0.005-0.6506-0.4136-1.155-1.0289-1.2861c-0.5346-0.116-1.1298,0.1967-1.3567,0.7364
		c-0.0656,0.1513-0.0908,0.3329-0.0908,0.4993c-0.005,1.3214,0,2.6479-0.005,3.9694c-0.005,0.5548-0.2522,0.9785-0.7767,1.1903
		c-0.4943,0.1967-0.9533,0.111-1.3416-0.2623c-0.2724-0.2572-0.3732-0.5901-0.3682-0.9583c0.005-1.16,0.005-2.3251,0-3.4852
		c0-0.2219,0-0.4438-0.0303-0.6658c-0.0757-0.5952-0.6456-1.0541-1.2609-1.039c-0.6355,0.0151-1.1651,0.5296-1.2004,1.1802
		c-0.0202,0.3833-0.005,0.7666-0.005,1.15c0,0.9583,0.005,1.9216,0,2.8799c-0.005,0.5397-0.232,0.9633-0.7364,1.1853
		c-0.464,0.2017-0.9129,0.1412-1.3063-0.1816c-0.2875-0.2371-0.4388-0.5548-0.4388-0.928c-0.005-1.392-0.0403-2.7891,0.0101-4.1812
		c0.0555-1.4828,0.7868-2.5975,2.1284-3.238c1.3467-0.6405,2.6479-0.4741,3.8584,0.4035c0.0656,0.0454,0.1261,0.0958,0.1917,0.1463
		C26.9688,5.9207,26.9839,5.9207,27.0091,5.9258z"/>
	<path fill="#0042A1" d="M37.3637,10.6517c0.7011,0.9886,1.9822,1.1802,2.9556,0.4691c0.3026-0.2219,0.6204-0.343,0.9886-0.2774
		c0.5044,0.0908,0.8372,0.3884,0.9633,0.8877c0.1362,0.5245-0.0303,0.9583-0.4489,1.2912c-0.58,0.459-1.2407,0.7565-1.967,0.8826
		c-2.4411,0.4237-4.7763-1.1853-5.2202-3.586c-0.459-2.4815,1.1096-4.8369,3.5507-5.3412c2.7488-0.5649,5.4219,1.6392,5.3816,4.4334
		c-0.0101,0.7364-0.5195,1.2357-1.2811,1.2357c-1.5232,0.005-3.0514,0-4.5746,0C37.6058,10.6517,37.505,10.6517,37.3637,10.6517z
		 M40.743,8.2156c-0.9179-1.3013-2.7538-1.044-3.349,0C38.5036,8.2156,39.6082,8.2156,40.743,8.2156z"/>
	<path fill="#0042A1" d="M51.0774,9.532c-0.005-2.4764,1.9922-4.4939,4.4485-4.504c2.4714-0.005,4.4838,2.0074,4.4838,4.4939
		c0,2.4815-2.0225,4.5191-4.4788,4.509C53.0747,14.0208,51.0825,12.0034,51.0774,9.532z M55.5511,11.5192
		c1.0894-0.005,1.9771-0.9079,1.9721-1.9973c-0.005-1.0894-0.9129-1.9922-1.9922-1.9872c-1.0894,0.005-1.9721,0.9079-1.967,2.0023
		C53.569,10.6365,54.4567,11.5192,55.5511,11.5192z"/>
	<path fill="#00449D" d="M11.5554,5.4063c0.5851-0.121,1.1701-0.2875,1.7653-0.348c0.7666-0.0757,1.3467,0.464,1.392,1.2004
		c0.0403,0.691-0.5145,1.2609-1.271,1.3013c-0.9583,0.0504-1.619,0.7263-1.6241,1.6846c-0.0101,1.15,0,2.3049-0.005,3.4549
		c-0.005,0.8272-0.575,1.3719-1.3618,1.3113c-0.6355-0.0454-1.1197-0.5699-1.1247-1.2407c-0.005-1.6442,0-3.2935,0-4.9377
		c0-0.4943,0-0.9886,0-1.4828c0-0.5699,0.2371-0.9936,0.7717-1.2206c0.5245-0.2219,0.9886-0.0908,1.387,0.3026
		c0.0252,0.0252,0.0605,0.0504,0.0908,0.0757C11.5604,5.4668,11.5604,5.4365,11.5554,5.4063z"/>
	<path fill="#E63A8F" d="M16.8109,7.9583c-0.5498-0.0504-0.9432-0.2925-1.1399-0.7767c-0.2017-0.5044-0.121-0.9835,0.2673-1.3668
		c0.4338-0.4237,0.8826-0.8322,1.3467-1.2206c0.3884-0.3278,0.8473-0.3833,1.3063-0.1513c0.464,0.232,0.7061,0.6153,0.7061,1.1449
		c0,2.3856,0,4.7713-0.005,7.1569c0,0.7414-0.5296,1.2811-1.2458,1.276c-0.7061-0.005-1.2357-0.5498-1.2407-1.2962
		c-0.005-1.4677,0-2.9304,0-4.3981C16.8109,8.2105,16.8109,8.0996,16.8109,7.9583z"/>
	<path fill="#0042A1" d="M45.1108,10.8181c0-0.5851-0.0151-1.1701,0.005-1.7552c0.0757-2.2041,1.8813-3.9895,4.0551-4.0198
		c0.6153-0.0101,1.1096,0.348,1.276,0.9179c0.1513,0.5245-0.0555,1.1146-0.5397,1.392c-0.2017,0.116-0.4539,0.1816-0.6859,0.1967
		c-0.9684,0.0706-1.619,0.7465-1.6241,1.7249c-0.005,1.16,0.005,2.3251-0.005,3.4852c-0.005,0.5598-0.3228,0.9986-0.8272,1.1853
		c-0.459,0.1715-0.9936,0.0403-1.3315-0.3329c-0.227-0.2471-0.3329-0.5447-0.3329-0.8826
		C45.1057,12.0891,45.1057,11.4536,45.1108,10.8181C45.1057,10.8181,45.1057,10.8181,45.1108,10.8181z"/>
	<path fill="#FF3793" d="M46.7449,18.086c-0.4489,0.4186-0.928,0.4438-1.4122,0.227c-0.4943-0.2169-0.6607-0.6557-0.6758-1.16
		c-0.005-0.2118,0.0101-0.4237,0.0555-0.6305c0.2068-0.9886,1.3719-1.392,2.078-0.6052c0.0101-0.0605,0.0151-0.1059,0.0252-0.1463
		c0.0605-0.2169,0.2169-0.2824,0.4186-0.2572c0.1967,0.0252,0.3077,0.1463,0.3077,0.348c0,0.8776,0.0202,1.7602-0.0101,2.6378
		c-0.0202,0.6607-0.4539,1.1348-1.1096,1.1953c-0.3682,0.0303-0.7565-0.0555-1.1247-0.1362
		c-0.1362-0.0303-0.3026-0.1664-0.3581-0.2976c-0.0555-0.1261-0.0403-0.3531,0.0454-0.4539
		c0.0656-0.0807,0.2824-0.0454,0.4287-0.0303c0.0656,0.005,0.1311,0.0908,0.1866,0.1463c0.232,0.2169,0.5044,0.2471,0.7868,0.1362
		c0.2623-0.1009,0.3228-0.343,0.3581-0.5901C46.755,18.3634,46.7449,18.2524,46.7449,18.086z M46.7752,16.9915
		c-0.0252-0.1463-0.0454-0.2875-0.0807-0.4186c-0.0656-0.2522-0.227-0.3984-0.4943-0.4136
		c-0.2724-0.0151-0.5044,0.0605-0.6254,0.3278c-0.1412,0.3177-0.1614,0.6456-0.0252,0.9684
		c0.1059,0.2572,0.3077,0.3984,0.5952,0.3833c0.2774-0.0151,0.4741-0.1614,0.5498-0.4338
		C46.7298,17.2689,46.75,17.1277,46.7752,16.9915z"/>
	<path fill="#FF3793" d="M42.0846,17.2084c0,0.3127,0.1059,0.5397,0.3682,0.6607c0.2925,0.1311,0.5901,0.121,0.8675-0.0555
		c0.0757-0.0504,0.1362-0.1513,0.2118-0.1664c0.1513-0.0252,0.343-0.0605,0.464,0.0101c0.1715,0.0958,0.1362,0.2976,0.0353,0.459
		c-0.0353,0.0605-0.0857,0.111-0.1412,0.1564c-0.5649,0.4791-1.7249,0.4186-2.2394-0.111
		c-0.5195-0.5296-0.5397-1.5988-0.0303-2.1688c0.4388-0.4892,1.0037-0.575,1.6089-0.4287c0.5346,0.1261,0.8776,0.4741,1.0087,1.0138
		c0.121,0.4892,0.0101,0.6254-0.4892,0.6305C43.2043,17.2084,42.6495,17.2084,42.0846,17.2084z M43.4716,16.7141
		c-0.0555-0.4035-0.2925-0.6204-0.6557-0.6254c-0.3884-0.005-0.6405,0.2169-0.7061,0.6254
		C42.5688,16.7141,43.0177,16.7141,43.4716,16.7141z"/>
	<path fill="#FF3793" d="M50.1796,18.0961c-0.2976,0.3329-0.6052,0.5094-1.0138,0.4993c-0.5901-0.0151-0.9785-0.3531-1.0037-0.9432
		c-0.0252-0.5851-0.0101-1.1701-0.005-1.7552c0-0.2572,0.1513-0.3833,0.4035-0.3934c0.2623-0.005,0.4085,0.1261,0.4186,0.4085
		c0.0101,0.4539,0,0.9079,0.005,1.3618c0.005,0.4338,0.1715,0.6456,0.5044,0.6456c0.343,0,0.6052-0.2724,0.6153-0.6506
		c0.0101-0.4237,0-0.8473,0.005-1.271c0.005-0.348,0.1412-0.4993,0.4287-0.4943c0.2774,0.005,0.3984,0.1463,0.3984,0.4892
		c0.005,0.7061,0,1.4122,0,2.1183c0,0.2371-0.0353,0.4539-0.3329,0.4791C50.2906,18.6206,50.1948,18.4239,50.1796,18.0961z"/>
	<path fill="#FF3793" d="M55.1275,18.5954c-0.9633,0.005-1.5181-0.5447-1.5282-1.5181c-0.0101-0.9482,0.58-1.5635,1.498-1.5736
		c0.923-0.005,1.5232,0.6002,1.5282,1.5434C56.6305,18.0255,56.0807,18.5954,55.1275,18.5954z M54.4365,17.0369
		c0,0.0605-0.005,0.121,0,0.1816c0.0303,0.459,0.2875,0.7616,0.6557,0.7717c0.3631,0.0101,0.6204-0.2522,0.691-0.7011
		c0.0101-0.0807,0.0202-0.1614,0.0202-0.2421c0-0.575-0.2623-0.928-0.6859-0.928C54.6836,16.1139,54.4314,16.4519,54.4365,17.0369z"
		/>
	<path fill="#FF3793" d="M39.5375,18.6307c-0.2421-0.0656-0.5447-0.116-0.8171-0.2371c-0.1614-0.0706-0.3177-0.227-0.3934-0.3884
		c-0.0504-0.1059,0.005-0.3278,0.0958-0.4136c0.0706-0.0656,0.2724-0.0252,0.4035,0.0101c0.0857,0.0252,0.1362,0.1513,0.227,0.1967
		c0.1765,0.0857,0.3581,0.1765,0.5498,0.2068c0.2017,0.0303,0.4438-0.0202,0.464-0.2774c0.0202-0.2371-0.2169-0.2471-0.3884-0.2976
		c-0.2925-0.0807-0.5851-0.1463-0.8726-0.2471c-0.3278-0.116-0.5094-0.3581-0.5245-0.7061c-0.0151-0.343,0.121-0.6204,0.4287-0.7767
		c0.6052-0.3077,1.2105-0.2572,1.7955,0.0605c0.0908,0.0504,0.2017,0.1513,0.2118,0.2421c0.0151,0.1311-0.0151,0.3531-0.1009,0.3934
		c-0.121,0.0605-0.348,0.0555-0.4539-0.0202c-0.232-0.1715-0.459-0.3127-0.7465-0.2421c-0.116,0.0252-0.2068,0.1513-0.3077,0.232
		c0.0857,0.0807,0.1563,0.2017,0.2572,0.2421c0.2673,0.0958,0.5498,0.1362,0.8171,0.227c0.5145,0.1715,0.7112,0.4085,0.7011,0.8221
		c-0.005,0.4085-0.2572,0.7162-0.7212,0.8625C39.9814,18.5702,39.7897,18.5853,39.5375,18.6307z"/>
	<path fill="#FF3793" d="M58.2898,18.6408c-0.2724-0.0706-0.5498-0.1261-0.807-0.2219c-0.1463-0.0555-0.2774-0.1664-0.3833-0.2824
		c-0.1513-0.1664-0.1765-0.3783,0.005-0.5397c0.1765-0.1614,0.3631-0.0908,0.5094,0.0656c0.2068,0.227,0.4388,0.3884,0.7666,0.348
		c0.0706-0.0101,0.1564-0.005,0.2017-0.0454c0.0757-0.0656,0.1816-0.1614,0.1816-0.2471c0-0.0757-0.1059-0.1967-0.1866-0.227
		c-0.2976-0.1009-0.6052-0.1564-0.9028-0.2471c-0.575-0.1765-0.8372-0.6405-0.6103-1.1348
		c0.0807-0.1765,0.2522-0.3581,0.4237-0.4388c0.575-0.2724,1.155-0.2169,1.7148,0.0757c0.0504,0.0252,0.1009,0.0706,0.1412,0.111
		c0.1513,0.1614,0.1816,0.343,0.0252,0.5145c-0.1463,0.1614-0.3379,0.1513-0.4892,0.0151
		c-0.2169-0.1917-0.4438-0.3329-0.7364-0.2673c-0.121,0.0252-0.2219,0.1412-0.3278,0.2118
		c0.0908,0.0908,0.1614,0.2219,0.2673,0.2623c0.2118,0.0857,0.4489,0.116,0.6708,0.1765c0.5901,0.1614,0.8776,0.4741,0.8473,0.9079
		c-0.0353,0.464-0.4388,0.8272-0.9986,0.8927c-0.1009,0.0101-0.2017,0-0.3026,0C58.2999,18.6055,58.2949,18.6206,58.2898,18.6408z"
		/>
	<path fill="#FF3793" d="M52.3484,16.0786c0.1059-0.1614,0.1765-0.2976,0.2774-0.4035c0.2471-0.2522,0.6607-0.2118,0.8019,0.0656
		c0.1311,0.2673-0.0202,0.5346-0.3228,0.5699c-0.5498,0.0706-0.6607,0.1765-0.6809,0.7364c-0.0151,0.3631,0,0.7263-0.0101,1.0894
		c-0.005,0.3329-0.1311,0.464-0.4237,0.459c-0.2724-0.005-0.3934-0.1311-0.3934-0.4539c-0.005-0.696,0-1.392,0-2.0881
		c0-0.3833,0.1059-0.5447,0.3631-0.5447C52.2122,15.5036,52.3182,15.6499,52.3484,16.0786z"/>
	<path fill="#E63A8F" d="M11.863,6.188v2.0982c0,0.6456-0.5296,1.1752-1.1752,1.1752h-0.1917c-0.6456,0-1.1752-0.5296-1.1752-1.1752
		V6.188c0-0.6456,0.5296-1.1752,1.1752-1.1752h0.1917C11.3334,5.0129,11.863,5.5424,11.863,6.188z"/>
	<path fill="#00449D" d="M11.5352,5.3861c0.5851-0.121,1.1701-0.2875,1.7653-0.348c0.7666-0.0757,1.3467,0.464,1.392,1.2004
		c0.0403,0.691-0.5145,1.2609-1.271,1.3013c-0.9583,0.0504-1.619,0.7263-1.6241,1.6846c-0.0101,1.15,0,2.3049-0.005,3.4549
		c-0.005,0.8272-0.575,1.3719-1.3618,1.3113c-0.6355-0.0454-1.1197-0.5699-1.1247-1.2407c-0.005-1.6442-0.0252-2.3201-0.005-3.9643
		c0.0303-2.2797,2.2192-3.3238,2.2495-3.3036C11.5402,5.4466,11.5352,5.4163,11.5352,5.3861z"/>
	<g>
		<path fill="#E63A8F" d="M16.8109,7.9583c-0.5498-0.0504-0.9432-0.2925-1.1399-0.7767c-0.2017-0.5044-0.121-0.9835,0.2673-1.3668
			c0.4338-0.4237,0.8826-0.8322,1.3467-1.2206c0.3884-0.3278,0.8473-0.3833,1.3063-0.1513c0.464,0.232,0.7061,0.6153,0.7061,1.1449
			c0,2.3856,0,4.7713-0.005,7.1569c0,0.7414-0.5296,1.2811-1.2458,1.276c-0.7061-0.005-1.2357-0.5498-1.2407-1.2962
			c-0.005-1.4677,0-2.9304,0-4.3981C16.8109,8.2105,16.8109,8.0996,16.8109,7.9583z"/>
		<path fill="#C12B77" d="M16.8159,7.2825l-0.0202-1.6341c0-0.5346,0.0857-0.6809,0.3278-0.9331
			c0.2724-0.2875,0.5699-0.3783,0.6859-0.4035c0.0252-0.005,0.0504-0.0101,0.0807-0.0101c1.1651-0.0605,1.3769,0.8625,1.4021,1.044
			c0.005,0.0151,0.005,0.0353,0.005,0.0504c0.0101,0.2017-0.0151,0.3732-0.0504,0.5044c-0.0454,0.1765-0.1463,0.3329-0.2824,0.459
			l-0.9936,0.923c-0.005,0.005-0.0151,0.0151-0.0202,0.0202l-0.4136,0.3379c-0.005,0.005-0.005,0.005-0.0101,0.0101
			c-0.1614,0.121-0.5851,0.3329-0.7061,0.2673C16.8008,7.8978,16.8159,7.4691,16.8159,7.2825z"/>
	</g>
</g>
</svg>
